<svg aria-roledescription="er" viewBox="0 0 945.7847290039062 576" style="max-width: 945.785px; background-color: white;" xmlns:xlink="http://www.w3.org/1999/xlink" xmlns="http://www.w3.org/2000/svg" width="100%" id="mermaid-0"><style>#mermaid-0{font-family:"trebuchet ms",verdana,arial,sans-serif;font-size:16px;fill:#000000;}#mermaid-0 .error-icon{fill:#552222;}#mermaid-0 .error-text{fill:#552222;stroke:#552222;}#mermaid-0 .edge-thickness-normal{stroke-width:2px;}#mermaid-0 .edge-thickness-thick{stroke-width:3.5px;}#mermaid-0 .edge-pattern-solid{stroke-dasharray:0;}#mermaid-0 .edge-pattern-dashed{stroke-dasharray:3;}#mermaid-0 .edge-pattern-dotted{stroke-dasharray:2;}#mermaid-0 .marker{fill:#000000;stroke:#000000;}#mermaid-0 .marker.cross{stroke:#000000;}#mermaid-0 svg{font-family:"trebuchet ms",verdana,arial,sans-serif;font-size:16px;}#mermaid-0 .entityBox{fill:#cde498;stroke:#13540c;}#mermaid-0 .attributeBoxOdd{fill:#ffffff;stroke:#13540c;}#mermaid-0 .attributeBoxEven{fill:#f2f2f2;stroke:#13540c;}#mermaid-0 .relationshipLabelBox{fill:hsl(78.1578947368, 58.4615384615%, 84.5098039216%);opacity:0.7;background-color:hsl(78.1578947368, 58.4615384615%, 84.5098039216%);}#mermaid-0 .relationshipLabelBox rect{opacity:0.5;}#mermaid-0 .relationshipLine{stroke:#000000;}#mermaid-0 .entityTitleText{text-anchor:middle;font-size:18px;fill:#000000;}#mermaid-0 :root{--mermaid-font-family:"trebuchet ms",verdana,arial,sans-serif;}</style><g/><defs><marker orient="auto" markerHeight="18" markerWidth="18" refY="9" refX="0" id="ONLY_ONE_START"><path d="M9,0 L9,18 M15,0 L15,18" fill="none" stroke="gray"/></marker></defs><defs><marker orient="auto" markerHeight="18" markerWidth="18" refY="9" refX="18" id="ONLY_ONE_END"><path d="M3,0 L3,18 M9,0 L9,18" fill="none" stroke="gray"/></marker></defs><defs><marker orient="auto" markerHeight="18" markerWidth="30" refY="9" refX="0" id="ZERO_OR_ONE_START"><circle r="6" cy="9" cx="21" fill="white" stroke="gray"/><path d="M9,0 L9,18" fill="none" stroke="gray"/></marker></defs><defs><marker orient="auto" markerHeight="18" markerWidth="30" refY="9" refX="30" id="ZERO_OR_ONE_END"><circle r="6" cy="9" cx="9" fill="white" stroke="gray"/><path d="M21,0 L21,18" fill="none" stroke="gray"/></marker></defs><defs><marker orient="auto" markerHeight="36" markerWidth="45" refY="18" refX="18" id="ONE_OR_MORE_START"><path d="M0,18 Q 18,0 36,18 Q 18,36 0,18 M42,9 L42,27" fill="none" stroke="gray"/></marker></defs><defs><marker orient="auto" markerHeight="36" markerWidth="45" refY="18" refX="27" id="ONE_OR_MORE_END"><path d="M3,9 L3,27 M9,18 Q27,0 45,18 Q27,36 9,18" fill="none" stroke="gray"/></marker></defs><defs><marker orient="auto" markerHeight="36" markerWidth="57" refY="18" refX="18" id="ZERO_OR_MORE_START"><circle r="6" cy="18" cx="48" fill="white" stroke="gray"/><path d="M0,18 Q18,0 36,18 Q18,36 0,18" fill="none" stroke="gray"/></marker></defs><defs><marker orient="auto" markerHeight="36" markerWidth="57" refY="18" refX="39" id="ZERO_OR_MORE_END"><circle r="6" cy="18" cx="9" fill="white" stroke="gray"/><path d="M21,18 Q39,0 57,18 Q39,36 21,18" fill="none" stroke="gray"/></marker></defs><path style="stroke: gray; fill: none;" marker-start="url(#ZERO_OR_ONE_START)" marker-end="url(#ONLY_ONE_END)" d="M115.82803399614292,388L112.8304320776777,396.3333333333333C109.83283015921246,404.6666666666667,103.83762632228202,421.3333333333333,100.8400244038168,438C97.84242248535156,454.6666666666667,97.84242248535156,471.3333333333333,97.84242248535156,479.6666666666667L97.84242248535156,488" class="er relationshipLine"/><path style="stroke: gray; fill: none;" marker-start="url(#ZERO_OR_MORE_START)" marker-end="url(#ONLY_ONE_END)" d="M215.43967827447028,388L221.76900934086714,396.3333333333333C228.09834040726403,404.6666666666667,240.75700254005778,421.3333333333333,287.3934517043958,441.26811436639645C334.0299008687337,461.2028953994595,414.6441370646159,484.40579079891904,454.95125516255695,496.0072384986488L495.25837326049805,507.6086861983785" class="er relationshipLine"/><path style="stroke: gray; fill: none;" marker-start="url(#ZERO_OR_MORE_START)" marker-end="url(#ONLY_ONE_END)" d="M97.84242248535156,99L97.84242248535156,109.16666666666667C97.84242248535156,119.33333333333333,97.84242248535156,139.66666666666666,100.8400244038168,158.16666666666666C103.83762632228202,176.66666666666666,109.83283015921246,193.33333333333334,112.8304320776777,201.66666666666666L115.82803399614292,210" class="er relationshipLine"/><path style="stroke: gray; fill: none;" marker-start="url(#ZERO_OR_MORE_START)" marker-end="url(#ONLY_ONE_END)" d="M435.2389678955078,333L435.2389678955078,350.5C435.2389678955078,368,435.2389678955078,403,446.1535914436219,428.8333333333333C457.06821499173606,454.6666666666667,478.89746208796424,471.3333333333333,489.81208563607834,479.6666666666667L500.7267091841925,488" class="er relationshipLine"/><path style="stroke: gray; fill: none;" marker-start="url(#ZERO_OR_MORE_START)" marker-end="url(#ONLY_ONE_END)" d="M397.34423105340255,88L403.6600205270868,100C409.975810000771,112,422.60738894813943,136,428.9231784218236,165.5C435.2389678955078,195,435.2389678955078,230,435.2389678955078,247.5L435.2389678955078,265" class="er relationshipLine"/><path style="stroke: gray; fill: none;" marker-start="url(#ZERO_OR_MORE_START)" marker-end="url(#ONLY_ONE_END)" d="M353.3238523784437,88L336.672487760845,100C320.0211231432463,112,286.71839390804894,136,263.73769822405336,156.33333333333334C240.75700254005778,176.66666666666666,228.09834040726403,193.33333333333334,221.76900934086714,201.66666666666666L215.43967827447028,210" class="er relationshipLine"/><path style="stroke: gray; fill: none;" marker-start="url(#ZERO_OR_MORE_START)" marker-end="url(#ONLY_ONE_END)" d="M655.2777786254883,333L655.2777786254883,350.5C655.2777786254883,368,655.2777786254883,403,644.3631550773742,428.8333333333333C633.4485315292601,454.6666666666667,611.6192844330318,471.3333333333333,600.7046608849178,479.6666666666667L589.7900373368036,488" class="er relationshipLine"/><path style="stroke: gray; fill: none;" marker-start="url(#ZERO_OR_ONE_START)" marker-end="url(#ONLY_ONE_END)" d="M873.583381652832,377L873.583381652832,387.1666666666667C873.583381652832,397.3333333333333,873.583381652832,417.6666666666667,827.1958802541097,439.7012995798657C780.8083788553873,461.7359324930647,688.0333760579427,485.47186498612945,641.6458746592203,497.33983123266177L595.258373260498,509.2077974791942" class="er relationshipLine"/><g transform="translate(20,488 )" id="entity-HabitType-44d3c82f-da2f-4030-b164-5a2532ccc937"><rect height="68" width="155.68484497070312" y="0" x="0" class="er entityBox"/><text style="dominant-baseline: middle; text-anchor: middle; font-size: 12px;" transform="translate(77.84242248535156,12)" y="0" x="0" id="text-entity-HabitType-44d3c82f-da2f-4030-b164-5a2532ccc937" class="er entityLabel">HabitType</text><rect height="22" width="77.84242248535156" y="24" x="0" class="er attributeBoxOdd"/><text style="dominant-baseline: middle; font-size: 10.2px;" transform="translate(5,35)" y="0" x="0" id="text-entity-HabitType-44d3c82f-da2f-4030-b164-5a2532ccc937-attr-1-type" class="er entityLabel">SPECIFIC_DATE</text><rect height="22" width="77.84242248535156" y="24" x="77.84242248535156" class="er attributeBoxOdd"/><text style="dominant-baseline: middle; font-size: 10.2px;" transform="translate(82.84242248535156,35)" y="0" x="0" id="text-entity-HabitType-44d3c82f-da2f-4030-b164-5a2532ccc937-attr-1-name" class="er entityLabel">SPECIFIC_DATE</text><rect height="22" width="77.84242248535156" y="46" x="0" class="er attributeBoxEven"/><text style="dominant-baseline: middle; font-size: 10.2px;" transform="translate(5,57)" y="0" x="0" id="text-entity-HabitType-44d3c82f-da2f-4030-b164-5a2532ccc937-attr-2-type" class="er entityLabel">WEEKLY</text><rect height="22" width="77.84242248535156" y="46" x="77.84242248535156" class="er attributeBoxEven"/><text style="dominant-baseline: middle; font-size: 10.2px;" transform="translate(82.84242248535156,57)" y="0" x="0" id="text-entity-HabitType-44d3c82f-da2f-4030-b164-5a2532ccc937-attr-2-name" class="er entityLabel">WEEKLY</text></g><g transform="translate(38.130340576171875,210 )" id="entity-habits-f39a2c83-c48a-4e40-8e1d-0c729bb4a54b"><rect height="178" width="219.42416381835938" y="0" x="0" class="er entityBox"/><text style="dominant-baseline: middle; text-anchor: middle; font-size: 12px;" transform="translate(109.71208190917969,12)" y="0" x="0" id="text-entity-habits-f39a2c83-c48a-4e40-8e1d-0c729bb4a54b" class="er entityLabel">habits</text><rect height="22" width="56.127593994140625" y="24" x="0" class="er attributeBoxOdd"/><text style="dominant-baseline: middle; font-size: 10.2px;" transform="translate(5,35)" y="0" x="0" id="text-entity-habits-f39a2c83-c48a-4e40-8e1d-0c729bb4a54b-attr-1-type" class="er entityLabel">String</text><rect height="22" width="93.39634704589844" y="24" x="56.127593994140625" class="er attributeBoxOdd"/><text style="dominant-baseline: middle; font-size: 10.2px;" transform="translate(61.127593994140625,35)" y="0" x="0" id="text-entity-habits-f39a2c83-c48a-4e40-8e1d-0c729bb4a54b-attr-1-name" class="er entityLabel">id</text><rect height="22" width="22.68768310546875" y="24" x="149.52394104003906" class="er attributeBoxOdd"/><text style="dominant-baseline: middle; font-size: 10.2px;" transform="translate(154.52394104003906,35)" y="0" x="0" id="text-entity-habits-f39a2c83-c48a-4e40-8e1d-0c729bb4a54b-attr-1-key" class="er entityLabel">PK</text><rect height="22" width="47.21253967285156" y="24" x="172.2116241455078" class="er attributeBoxOdd"/><text style="dominant-baseline: middle; font-size: 10.2px;" transform="translate(177.2116241455078,35)" y="0" x="0" id="text-entity-habits-f39a2c83-c48a-4e40-8e1d-0c729bb4a54b-attr-1-comment" class="er entityLabel"/><rect height="22" width="56.127593994140625" y="46" x="0" class="er attributeBoxEven"/><text style="dominant-baseline: middle; font-size: 10.2px;" transform="translate(5,57)" y="0" x="0" id="text-entity-habits-f39a2c83-c48a-4e40-8e1d-0c729bb4a54b-attr-2-type" class="er entityLabel">String</text><rect height="22" width="93.39634704589844" y="46" x="56.127593994140625" class="er attributeBoxEven"/><text style="dominant-baseline: middle; font-size: 10.2px;" transform="translate(61.127593994140625,57)" y="0" x="0" id="text-entity-habits-f39a2c83-c48a-4e40-8e1d-0c729bb4a54b-attr-2-name" class="er entityLabel">title</text><rect height="22" width="22.68768310546875" y="46" x="149.52394104003906" class="er attributeBoxEven"/><text style="dominant-baseline: middle; font-size: 10.2px;" transform="translate(154.52394104003906,57)" y="0" x="0" id="text-entity-habits-f39a2c83-c48a-4e40-8e1d-0c729bb4a54b-attr-2-key" class="er entityLabel"/><rect height="22" width="47.21253967285156" y="46" x="172.2116241455078" class="er attributeBoxEven"/><text style="dominant-baseline: middle; font-size: 10.2px;" transform="translate(177.2116241455078,57)" y="0" x="0" id="text-entity-habits-f39a2c83-c48a-4e40-8e1d-0c729bb4a54b-attr-2-comment" class="er entityLabel"/><rect height="22" width="56.127593994140625" y="68" x="0" class="er attributeBoxOdd"/><text style="dominant-baseline: middle; font-size: 10.2px;" transform="translate(5,79)" y="0" x="0" id="text-entity-habits-f39a2c83-c48a-4e40-8e1d-0c729bb4a54b-attr-3-type" class="er entityLabel">DateTime</text><rect height="22" width="93.39634704589844" y="68" x="56.127593994140625" class="er attributeBoxOdd"/><text style="dominant-baseline: middle; font-size: 10.2px;" transform="translate(61.127593994140625,79)" y="0" x="0" id="text-entity-habits-f39a2c83-c48a-4e40-8e1d-0c729bb4a54b-attr-3-name" class="er entityLabel">created_at</text><rect height="22" width="22.68768310546875" y="68" x="149.52394104003906" class="er attributeBoxOdd"/><text style="dominant-baseline: middle; font-size: 10.2px;" transform="translate(154.52394104003906,79)" y="0" x="0" id="text-entity-habits-f39a2c83-c48a-4e40-8e1d-0c729bb4a54b-attr-3-key" class="er entityLabel"/><rect height="22" width="47.21253967285156" y="68" x="172.2116241455078" class="er attributeBoxOdd"/><text style="dominant-baseline: middle; font-size: 10.2px;" transform="translate(177.2116241455078,79)" y="0" x="0" id="text-entity-habits-f39a2c83-c48a-4e40-8e1d-0c729bb4a54b-attr-3-comment" class="er entityLabel"/><rect height="22" width="56.127593994140625" y="90" x="0" class="er attributeBoxEven"/><text style="dominant-baseline: middle; font-size: 10.2px;" transform="translate(5,101)" y="0" x="0" id="text-entity-habits-f39a2c83-c48a-4e40-8e1d-0c729bb4a54b-attr-4-type" class="er entityLabel">DateTime</text><rect height="22" width="93.39634704589844" y="90" x="56.127593994140625" class="er attributeBoxEven"/><text style="dominant-baseline: middle; font-size: 10.2px;" transform="translate(61.127593994140625,101)" y="0" x="0" id="text-entity-habits-f39a2c83-c48a-4e40-8e1d-0c729bb4a54b-attr-4-name" class="er entityLabel">deactivation_date</text><rect height="22" width="22.68768310546875" y="90" x="149.52394104003906" class="er attributeBoxEven"/><text style="dominant-baseline: middle; font-size: 10.2px;" transform="translate(154.52394104003906,101)" y="0" x="0" id="text-entity-habits-f39a2c83-c48a-4e40-8e1d-0c729bb4a54b-attr-4-key" class="er entityLabel"/><rect height="22" width="47.21253967285156" y="90" x="172.2116241455078" class="er attributeBoxEven"/><text style="dominant-baseline: middle; font-size: 10.2px;" transform="translate(177.2116241455078,101)" y="0" x="0" id="text-entity-habits-f39a2c83-c48a-4e40-8e1d-0c729bb4a54b-attr-4-comment" class="er entityLabel">nullable</text><rect height="22" width="56.127593994140625" y="112" x="0" class="er attributeBoxOdd"/><text style="dominant-baseline: middle; font-size: 10.2px;" transform="translate(5,123)" y="0" x="0" id="text-entity-habits-f39a2c83-c48a-4e40-8e1d-0c729bb4a54b-attr-5-type" class="er entityLabel">DateTime</text><rect height="22" width="93.39634704589844" y="112" x="56.127593994140625" class="er attributeBoxOdd"/><text style="dominant-baseline: middle; font-size: 10.2px;" transform="translate(61.127593994140625,123)" y="0" x="0" id="text-entity-habits-f39a2c83-c48a-4e40-8e1d-0c729bb4a54b-attr-5-name" class="er entityLabel">activation_date</text><rect height="22" width="22.68768310546875" y="112" x="149.52394104003906" class="er attributeBoxOdd"/><text style="dominant-baseline: middle; font-size: 10.2px;" transform="translate(154.52394104003906,123)" y="0" x="0" id="text-entity-habits-f39a2c83-c48a-4e40-8e1d-0c729bb4a54b-attr-5-key" class="er entityLabel"/><rect height="22" width="47.21253967285156" y="112" x="172.2116241455078" class="er attributeBoxOdd"/><text style="dominant-baseline: middle; font-size: 10.2px;" transform="translate(177.2116241455078,123)" y="0" x="0" id="text-entity-habits-f39a2c83-c48a-4e40-8e1d-0c729bb4a54b-attr-5-comment" class="er entityLabel">nullable</text><rect height="22" width="56.127593994140625" y="134" x="0" class="er attributeBoxEven"/><text style="dominant-baseline: middle; font-size: 10.2px;" transform="translate(5,145)" y="0" x="0" id="text-entity-habits-f39a2c83-c48a-4e40-8e1d-0c729bb4a54b-attr-6-type" class="er entityLabel">HabitType</text><rect height="22" width="93.39634704589844" y="134" x="56.127593994140625" class="er attributeBoxEven"/><text style="dominant-baseline: middle; font-size: 10.2px;" transform="translate(61.127593994140625,145)" y="0" x="0" id="text-entity-habits-f39a2c83-c48a-4e40-8e1d-0c729bb4a54b-attr-6-name" class="er entityLabel">type</text><rect height="22" width="22.68768310546875" y="134" x="149.52394104003906" class="er attributeBoxEven"/><text style="dominant-baseline: middle; font-size: 10.2px;" transform="translate(154.52394104003906,145)" y="0" x="0" id="text-entity-habits-f39a2c83-c48a-4e40-8e1d-0c729bb4a54b-attr-6-key" class="er entityLabel"/><rect height="22" width="47.21253967285156" y="134" x="172.2116241455078" class="er attributeBoxEven"/><text style="dominant-baseline: middle; font-size: 10.2px;" transform="translate(177.2116241455078,145)" y="0" x="0" id="text-entity-habits-f39a2c83-c48a-4e40-8e1d-0c729bb4a54b-attr-6-comment" class="er entityLabel"/><rect height="22" width="56.127593994140625" y="156" x="0" class="er attributeBoxOdd"/><text style="dominant-baseline: middle; font-size: 10.2px;" transform="translate(5,167)" y="0" x="0" id="text-entity-habits-f39a2c83-c48a-4e40-8e1d-0c729bb4a54b-attr-7-type" class="er entityLabel">DateTime</text><rect height="22" width="93.39634704589844" y="156" x="56.127593994140625" class="er attributeBoxOdd"/><text style="dominant-baseline: middle; font-size: 10.2px;" transform="translate(61.127593994140625,167)" y="0" x="0" id="text-entity-habits-f39a2c83-c48a-4e40-8e1d-0c729bb4a54b-attr-7-name" class="er entityLabel">habit_date</text><rect height="22" width="22.68768310546875" y="156" x="149.52394104003906" class="er attributeBoxOdd"/><text style="dominant-baseline: middle; font-size: 10.2px;" transform="translate(154.52394104003906,167)" y="0" x="0" id="text-entity-habits-f39a2c83-c48a-4e40-8e1d-0c729bb4a54b-attr-7-key" class="er entityLabel"/><rect height="22" width="47.21253967285156" y="156" x="172.2116241455078" class="er attributeBoxOdd"/><text style="dominant-baseline: middle; font-size: 10.2px;" transform="translate(177.2116241455078,167)" y="0" x="0" id="text-entity-habits-f39a2c83-c48a-4e40-8e1d-0c729bb4a54b-attr-7-comment" class="er entityLabel">nullable</text></g><g transform="translate(36.69593811035156,31 )" id="entity-habitweekdays-d5f1326b-60e7-4713-8e7b-fff2d310bd94"><rect height="68" width="122.29296875" y="0" x="0" class="er entityBox"/><text style="dominant-baseline: middle; text-anchor: middle; font-size: 12px;" transform="translate(61.146484375,12)" y="0" x="0" id="text-entity-habitweekdays-d5f1326b-60e7-4713-8e7b-fff2d310bd94" class="er entityLabel">habit_week_days</text><rect height="22" width="39.0484364827474" y="24" x="0" class="er attributeBoxOdd"/><text style="dominant-baseline: middle; font-size: 10.2px;" transform="translate(5,35)" y="0" x="0" id="text-entity-habitweekdays-d5f1326b-60e7-4713-8e7b-fff2d310bd94-attr-1-type" class="er entityLabel">String</text><rect height="22" width="58.90446980794271" y="24" x="39.0484364827474" class="er attributeBoxOdd"/><text style="dominant-baseline: middle; font-size: 10.2px;" transform="translate(44.0484364827474,35)" y="0" x="0" id="text-entity-habitweekdays-d5f1326b-60e7-4713-8e7b-fff2d310bd94-attr-1-name" class="er entityLabel">id</text><rect height="22" width="24.340062459309895" y="24" x="97.95290629069011" class="er attributeBoxOdd"/><text style="dominant-baseline: middle; font-size: 10.2px;" transform="translate(102.95290629069011,35)" y="0" x="0" id="text-entity-habitweekdays-d5f1326b-60e7-4713-8e7b-fff2d310bd94-attr-1-key" class="er entityLabel">PK</text><rect height="22" width="39.0484364827474" y="46" x="0" class="er attributeBoxEven"/><text style="dominant-baseline: middle; font-size: 10.2px;" transform="translate(5,57)" y="0" x="0" id="text-entity-habitweekdays-d5f1326b-60e7-4713-8e7b-fff2d310bd94-attr-2-type" class="er entityLabel">Int</text><rect height="22" width="58.90446980794271" y="46" x="39.0484364827474" class="er attributeBoxEven"/><text style="dominant-baseline: middle; font-size: 10.2px;" transform="translate(44.0484364827474,57)" y="0" x="0" id="text-entity-habitweekdays-d5f1326b-60e7-4713-8e7b-fff2d310bd94-attr-2-name" class="er entityLabel">week_day</text><rect height="22" width="24.340062459309895" y="46" x="97.95290629069011" class="er attributeBoxEven"/><text style="dominant-baseline: middle; font-size: 10.2px;" transform="translate(102.95290629069011,57)" y="0" x="0" id="text-entity-habitweekdays-d5f1326b-60e7-4713-8e7b-fff2d310bd94-attr-2-key" class="er entityLabel"/></g><g transform="translate(381.304443359375,265 )" id="entity-days-429c7685-2e49-476a-83fa-c841cdf24b1c"><rect height="68" width="107.86904907226562" y="0" x="0" class="er entityBox"/><text style="dominant-baseline: middle; text-anchor: middle; font-size: 12px;" transform="translate(53.93452453613281,12)" y="0" x="0" id="text-entity-days-429c7685-2e49-476a-83fa-c841cdf24b1c" class="er entityLabel">days</text><rect height="22" width="54.095550537109375" y="24" x="0" class="er attributeBoxOdd"/><text style="dominant-baseline: middle; font-size: 10.2px;" transform="translate(5,35)" y="0" x="0" id="text-entity-days-429c7685-2e49-476a-83fa-c841cdf24b1c-attr-1-type" class="er entityLabel">String</text><rect height="22" width="31.0858154296875" y="24" x="54.095550537109375" class="er attributeBoxOdd"/><text style="dominant-baseline: middle; font-size: 10.2px;" transform="translate(59.095550537109375,35)" y="0" x="0" id="text-entity-days-429c7685-2e49-476a-83fa-c841cdf24b1c-attr-1-name" class="er entityLabel">id</text><rect height="22" width="22.68768310546875" y="24" x="85.18136596679688" class="er attributeBoxOdd"/><text style="dominant-baseline: middle; font-size: 10.2px;" transform="translate(90.18136596679688,35)" y="0" x="0" id="text-entity-days-429c7685-2e49-476a-83fa-c841cdf24b1c-attr-1-key" class="er entityLabel">PK</text><rect height="22" width="54.095550537109375" y="46" x="0" class="er attributeBoxEven"/><text style="dominant-baseline: middle; font-size: 10.2px;" transform="translate(5,57)" y="0" x="0" id="text-entity-days-429c7685-2e49-476a-83fa-c841cdf24b1c-attr-2-type" class="er entityLabel">DateTime</text><rect height="22" width="31.0858154296875" y="46" x="54.095550537109375" class="er attributeBoxEven"/><text style="dominant-baseline: middle; font-size: 10.2px;" transform="translate(59.095550537109375,57)" y="0" x="0" id="text-entity-days-429c7685-2e49-476a-83fa-c841cdf24b1c-attr-2-name" class="er entityLabel">date</text><rect height="22" width="22.68768310546875" y="46" x="85.18136596679688" class="er attributeBoxEven"/><text style="dominant-baseline: middle; font-size: 10.2px;" transform="translate(90.18136596679688,57)" y="0" x="0" id="text-entity-days-429c7685-2e49-476a-83fa-c841cdf24b1c-attr-2-key" class="er entityLabel"/></g><g transform="translate(335.2389678955078,42 )" id="entity-dayhabits-bfc290f3-6609-4dbc-8c46-8044d321a806"><rect height="46" width="100" y="0" x="0" class="er entityBox"/><text style="dominant-baseline: middle; text-anchor: middle; font-size: 12px;" transform="translate(50,12)" y="0" x="0" id="text-entity-dayhabits-bfc290f3-6609-4dbc-8c46-8044d321a806" class="er entityLabel">day_habits</text><rect height="22" width="44.39861551920573" y="24" x="0" class="er attributeBoxOdd"/><text style="dominant-baseline: middle; font-size: 10.2px;" transform="translate(5,35)" y="0" x="0" id="text-entity-dayhabits-bfc290f3-6609-4dbc-8c46-8044d321a806-attr-1-type" class="er entityLabel">String</text><rect height="22" width="25.911142985026043" y="24" x="44.39861551920573" class="er attributeBoxOdd"/><text style="dominant-baseline: middle; font-size: 10.2px;" transform="translate(49.39861551920573,35)" y="0" x="0" id="text-entity-dayhabits-bfc290f3-6609-4dbc-8c46-8044d321a806-attr-1-name" class="er entityLabel">id</text><rect height="22" width="29.69024149576823" y="24" x="70.30975850423177" class="er attributeBoxOdd"/><text style="dominant-baseline: middle; font-size: 10.2px;" transform="translate(75.30975850423177,35)" y="0" x="0" id="text-entity-dayhabits-bfc290f3-6609-4dbc-8c46-8044d321a806-attr-1-key" class="er entityLabel">PK</text></g><g transform="translate(589.1734924316406,265 )" id="entity-years-72ba4b30-42fb-4581-930c-3c55fd772668"><rect height="68" width="132.2085723876953" y="0" x="0" class="er entityBox"/><text style="dominant-baseline: middle; text-anchor: middle; font-size: 12px;" transform="translate(66.10428619384766,12)" y="0" x="0" id="text-entity-years-72ba4b30-42fb-4581-930c-3c55fd772668" class="er entityLabel">years</text><rect height="22" width="37.39605712890625" y="24" x="0" class="er attributeBoxOdd"/><text style="dominant-baseline: middle; font-size: 10.2px;" transform="translate(5,35)" y="0" x="0" id="text-entity-years-72ba4b30-42fb-4581-930c-3c55fd772668-attr-1-type" class="er entityLabel">String</text><rect height="22" width="72.12483215332031" y="24" x="37.39605712890625" class="er attributeBoxOdd"/><text style="dominant-baseline: middle; font-size: 10.2px;" transform="translate(42.39605712890625,35)" y="0" x="0" id="text-entity-years-72ba4b30-42fb-4581-930c-3c55fd772668-attr-1-name" class="er entityLabel">id</text><rect height="22" width="22.68768310546875" y="24" x="109.52088928222656" class="er attributeBoxOdd"/><text style="dominant-baseline: middle; font-size: 10.2px;" transform="translate(114.52088928222656,35)" y="0" x="0" id="text-entity-years-72ba4b30-42fb-4581-930c-3c55fd772668-attr-1-key" class="er entityLabel">PK</text><rect height="22" width="37.39605712890625" y="46" x="0" class="er attributeBoxEven"/><text style="dominant-baseline: middle; font-size: 10.2px;" transform="translate(5,57)" y="0" x="0" id="text-entity-years-72ba4b30-42fb-4581-930c-3c55fd772668-attr-2-type" class="er entityLabel">Int</text><rect height="22" width="72.12483215332031" y="46" x="37.39605712890625" class="er attributeBoxEven"/><text style="dominant-baseline: middle; font-size: 10.2px;" transform="translate(42.39605712890625,57)" y="0" x="0" id="text-entity-years-72ba4b30-42fb-4581-930c-3c55fd772668-attr-2-name" class="er entityLabel">year_number</text><rect height="22" width="22.68768310546875" y="46" x="109.52088928222656" class="er attributeBoxEven"/><text style="dominant-baseline: middle; font-size: 10.2px;" transform="translate(114.52088928222656,57)" y="0" x="0" id="text-entity-years-72ba4b30-42fb-4581-930c-3c55fd772668-attr-2-key" class="er entityLabel"/></g><g transform="translate(495.25837326049805,488 )" id="entity-users-c5c84229-21d5-4e1a-8450-1747d4876d3c"><rect height="68" width="100" y="0" x="0" class="er entityBox"/><text style="dominant-baseline: middle; text-anchor: middle; font-size: 12px;" transform="translate(50,12)" y="0" x="0" id="text-entity-users-c5c84229-21d5-4e1a-8450-1747d4876d3c" class="er entityLabel">users</text><rect height="22" width="38.930643717447914" y="24" x="0" class="er attributeBoxOdd"/><text style="dominant-baseline: middle; font-size: 10.2px;" transform="translate(5,35)" y="0" x="0" id="text-entity-users-c5c84229-21d5-4e1a-8450-1747d4876d3c-attr-1-type" class="er entityLabel">String</text><rect height="22" width="36.847086588541664" y="24" x="38.930643717447914" class="er attributeBoxOdd"/><text style="dominant-baseline: middle; font-size: 10.2px;" transform="translate(43.930643717447914,35)" y="0" x="0" id="text-entity-users-c5c84229-21d5-4e1a-8450-1747d4876d3c-attr-1-name" class="er entityLabel">id</text><rect height="22" width="24.222269694010418" y="24" x="75.77773030598958" class="er attributeBoxOdd"/><text style="dominant-baseline: middle; font-size: 10.2px;" transform="translate(80.77773030598958,35)" y="0" x="0" id="text-entity-users-c5c84229-21d5-4e1a-8450-1747d4876d3c-attr-1-key" class="er entityLabel">PK</text><rect height="22" width="38.930643717447914" y="46" x="0" class="er attributeBoxEven"/><text style="dominant-baseline: middle; font-size: 10.2px;" transform="translate(5,57)" y="0" x="0" id="text-entity-users-c5c84229-21d5-4e1a-8450-1747d4876d3c-attr-2-type" class="er entityLabel">String</text><rect height="22" width="36.847086588541664" y="46" x="38.930643717447914" class="er attributeBoxEven"/><text style="dominant-baseline: middle; font-size: 10.2px;" transform="translate(43.930643717447914,57)" y="0" x="0" id="text-entity-users-c5c84229-21d5-4e1a-8450-1747d4876d3c-attr-2-name" class="er entityLabel">email</text><rect height="22" width="24.222269694010418" y="46" x="75.77773030598958" class="er attributeBoxEven"/><text style="dominant-baseline: middle; font-size: 10.2px;" transform="translate(80.77773030598958,57)" y="0" x="0" id="text-entity-users-c5c84229-21d5-4e1a-8450-1747d4876d3c-attr-2-key" class="er entityLabel"/></g><g transform="translate(535.2389678955078,20 )" id="entity-NotificationToken-9e1192ee-9be4-4738-bda1-b0816f727469"><rect height="90" width="125.06640625" y="0" x="0" class="er entityBox"/><text style="dominant-baseline: middle; text-anchor: middle; font-size: 12px;" transform="translate(62.533203125,12)" y="0" x="0" id="text-entity-NotificationToken-9e1192ee-9be4-4738-bda1-b0816f727469" class="er entityLabel">NotificationToken</text><rect height="22" width="44.56122843424479" y="24" x="0" class="er attributeBoxOdd"/><text style="dominant-baseline: middle; font-size: 10.2px;" transform="translate(5,35)" y="0" x="0" id="text-entity-NotificationToken-9e1192ee-9be4-4738-bda1-b0816f727469-attr-1-type" class="er entityLabel">String</text><rect height="22" width="50.652323404947914" y="24" x="44.56122843424479" class="er attributeBoxOdd"/><text style="dominant-baseline: middle; font-size: 10.2px;" transform="translate(49.56122843424479,35)" y="0" x="0" id="text-entity-NotificationToken-9e1192ee-9be4-4738-bda1-b0816f727469-attr-1-name" class="er entityLabel">id</text><rect height="22" width="29.852854410807293" y="24" x="95.2135518391927" class="er attributeBoxOdd"/><text style="dominant-baseline: middle; font-size: 10.2px;" transform="translate(100.2135518391927,35)" y="0" x="0" id="text-entity-NotificationToken-9e1192ee-9be4-4738-bda1-b0816f727469-attr-1-key" class="er entityLabel">PK</text><rect height="22" width="44.56122843424479" y="46" x="0" class="er attributeBoxEven"/><text style="dominant-baseline: middle; font-size: 10.2px;" transform="translate(5,57)" y="0" x="0" id="text-entity-NotificationToken-9e1192ee-9be4-4738-bda1-b0816f727469-attr-2-type" class="er entityLabel">String</text><rect height="22" width="50.652323404947914" y="46" x="44.56122843424479" class="er attributeBoxEven"/><text style="dominant-baseline: middle; font-size: 10.2px;" transform="translate(49.56122843424479,57)" y="0" x="0" id="text-entity-NotificationToken-9e1192ee-9be4-4738-bda1-b0816f727469-attr-2-name" class="er entityLabel">token</text><rect height="22" width="29.852854410807293" y="46" x="95.2135518391927" class="er attributeBoxEven"/><text style="dominant-baseline: middle; font-size: 10.2px;" transform="translate(100.2135518391927,57)" y="0" x="0" id="text-entity-NotificationToken-9e1192ee-9be4-4738-bda1-b0816f727469-attr-2-key" class="er entityLabel"/><rect height="22" width="44.56122843424479" y="68" x="0" class="er attributeBoxOdd"/><text style="dominant-baseline: middle; font-size: 10.2px;" transform="translate(5,79)" y="0" x="0" id="text-entity-NotificationToken-9e1192ee-9be4-4738-bda1-b0816f727469-attr-3-type" class="er entityLabel">String</text><rect height="22" width="50.652323404947914" y="68" x="44.56122843424479" class="er attributeBoxOdd"/><text style="dominant-baseline: middle; font-size: 10.2px;" transform="translate(49.56122843424479,79)" y="0" x="0" id="text-entity-NotificationToken-9e1192ee-9be4-4738-bda1-b0816f727469-attr-3-name" class="er entityLabel">user_id</text><rect height="22" width="29.852854410807293" y="68" x="95.2135518391927" class="er attributeBoxOdd"/><text style="dominant-baseline: middle; font-size: 10.2px;" transform="translate(100.2135518391927,79)" y="0" x="0" id="text-entity-NotificationToken-9e1192ee-9be4-4738-bda1-b0816f727469-attr-3-key" class="er entityLabel"/></g><g transform="translate(821.3820648193359,221 )" id="entity-colors-1e644174-b354-4ac3-8c61-c3e503b35c7c"><rect height="156" width="104.40263366699219" y="0" x="0" class="er entityBox"/><text style="dominant-baseline: middle; text-anchor: middle; font-size: 12px;" transform="translate(52.201316833496094,12)" y="0" x="0" id="text-entity-colors-1e644174-b354-4ac3-8c61-c3e503b35c7c" class="er entityLabel">colors</text><rect height="22" width="37.39605712890625" y="24" x="0" class="er attributeBoxOdd"/><text style="dominant-baseline: middle; font-size: 10.2px;" transform="translate(5,35)" y="0" x="0" id="text-entity-colors-1e644174-b354-4ac3-8c61-c3e503b35c7c-attr-1-type" class="er entityLabel">String</text><rect height="22" width="44.31889343261719" y="24" x="37.39605712890625" class="er attributeBoxOdd"/><text style="dominant-baseline: middle; font-size: 10.2px;" transform="translate(42.39605712890625,35)" y="0" x="0" id="text-entity-colors-1e644174-b354-4ac3-8c61-c3e503b35c7c-attr-1-name" class="er entityLabel">id</text><rect height="22" width="22.68768310546875" y="24" x="81.71495056152344" class="er attributeBoxOdd"/><text style="dominant-baseline: middle; font-size: 10.2px;" transform="translate(86.71495056152344,35)" y="0" x="0" id="text-entity-colors-1e644174-b354-4ac3-8c61-c3e503b35c7c-attr-1-key" class="er entityLabel">PK</text><rect height="22" width="37.39605712890625" y="46" x="0" class="er attributeBoxEven"/><text style="dominant-baseline: middle; font-size: 10.2px;" transform="translate(5,57)" y="0" x="0" id="text-entity-colors-1e644174-b354-4ac3-8c61-c3e503b35c7c-attr-2-type" class="er entityLabel">String</text><rect height="22" width="44.31889343261719" y="46" x="37.39605712890625" class="er attributeBoxEven"/><text style="dominant-baseline: middle; font-size: 10.2px;" transform="translate(42.39605712890625,57)" y="0" x="0" id="text-entity-colors-1e644174-b354-4ac3-8c61-c3e503b35c7c-attr-2-name" class="er entityLabel">color_1</text><rect height="22" width="22.68768310546875" y="46" x="81.71495056152344" class="er attributeBoxEven"/><text style="dominant-baseline: middle; font-size: 10.2px;" transform="translate(86.71495056152344,57)" y="0" x="0" id="text-entity-colors-1e644174-b354-4ac3-8c61-c3e503b35c7c-attr-2-key" class="er entityLabel"/><rect height="22" width="37.39605712890625" y="68" x="0" class="er attributeBoxOdd"/><text style="dominant-baseline: middle; font-size: 10.2px;" transform="translate(5,79)" y="0" x="0" id="text-entity-colors-1e644174-b354-4ac3-8c61-c3e503b35c7c-attr-3-type" class="er entityLabel">String</text><rect height="22" width="44.31889343261719" y="68" x="37.39605712890625" class="er attributeBoxOdd"/><text style="dominant-baseline: middle; font-size: 10.2px;" transform="translate(42.39605712890625,79)" y="0" x="0" id="text-entity-colors-1e644174-b354-4ac3-8c61-c3e503b35c7c-attr-3-name" class="er entityLabel">color_2</text><rect height="22" width="22.68768310546875" y="68" x="81.71495056152344" class="er attributeBoxOdd"/><text style="dominant-baseline: middle; font-size: 10.2px;" transform="translate(86.71495056152344,79)" y="0" x="0" id="text-entity-colors-1e644174-b354-4ac3-8c61-c3e503b35c7c-attr-3-key" class="er entityLabel"/><rect height="22" width="37.39605712890625" y="90" x="0" class="er attributeBoxEven"/><text style="dominant-baseline: middle; font-size: 10.2px;" transform="translate(5,101)" y="0" x="0" id="text-entity-colors-1e644174-b354-4ac3-8c61-c3e503b35c7c-attr-4-type" class="er entityLabel">String</text><rect height="22" width="44.31889343261719" y="90" x="37.39605712890625" class="er attributeBoxEven"/><text style="dominant-baseline: middle; font-size: 10.2px;" transform="translate(42.39605712890625,101)" y="0" x="0" id="text-entity-colors-1e644174-b354-4ac3-8c61-c3e503b35c7c-attr-4-name" class="er entityLabel">color_3</text><rect height="22" width="22.68768310546875" y="90" x="81.71495056152344" class="er attributeBoxEven"/><text style="dominant-baseline: middle; font-size: 10.2px;" transform="translate(86.71495056152344,101)" y="0" x="0" id="text-entity-colors-1e644174-b354-4ac3-8c61-c3e503b35c7c-attr-4-key" class="er entityLabel"/><rect height="22" width="37.39605712890625" y="112" x="0" class="er attributeBoxOdd"/><text style="dominant-baseline: middle; font-size: 10.2px;" transform="translate(5,123)" y="0" x="0" id="text-entity-colors-1e644174-b354-4ac3-8c61-c3e503b35c7c-attr-5-type" class="er entityLabel">String</text><rect height="22" width="44.31889343261719" y="112" x="37.39605712890625" class="er attributeBoxOdd"/><text style="dominant-baseline: middle; font-size: 10.2px;" transform="translate(42.39605712890625,123)" y="0" x="0" id="text-entity-colors-1e644174-b354-4ac3-8c61-c3e503b35c7c-attr-5-name" class="er entityLabel">color_4</text><rect height="22" width="22.68768310546875" y="112" x="81.71495056152344" class="er attributeBoxOdd"/><text style="dominant-baseline: middle; font-size: 10.2px;" transform="translate(86.71495056152344,123)" y="0" x="0" id="text-entity-colors-1e644174-b354-4ac3-8c61-c3e503b35c7c-attr-5-key" class="er entityLabel"/><rect height="22" width="37.39605712890625" y="134" x="0" class="er attributeBoxEven"/><text style="dominant-baseline: middle; font-size: 10.2px;" transform="translate(5,145)" y="0" x="0" id="text-entity-colors-1e644174-b354-4ac3-8c61-c3e503b35c7c-attr-6-type" class="er entityLabel">String</text><rect height="22" width="44.31889343261719" y="134" x="37.39605712890625" class="er attributeBoxEven"/><text style="dominant-baseline: middle; font-size: 10.2px;" transform="translate(42.39605712890625,145)" y="0" x="0" id="text-entity-colors-1e644174-b354-4ac3-8c61-c3e503b35c7c-attr-6-name" class="er entityLabel">color_5</text><rect height="22" width="22.68768310546875" y="134" x="81.71495056152344" class="er attributeBoxEven"/><text style="dominant-baseline: middle; font-size: 10.2px;" transform="translate(86.71495056152344,145)" y="0" x="0" id="text-entity-colors-1e644174-b354-4ac3-8c61-c3e503b35c7c-attr-6-key" class="er entityLabel"/></g><rect height="14" width="58.38671875" y="429.96722412109375" x="71.83668518066406" class="er relationshipLabelBox"/><text style="text-anchor: middle; dominant-baseline: middle; font-size: 12px;" y="436.96722412109375" x="101.03004455566406" id="rel1" class="er relationshipLabel">enum:type</text><rect height="14" width="23.958984375" y="456.25396728515625" x="335.1629638671875" class="er relationshipLabelBox"/><text style="text-anchor: middle; dominant-baseline: middle; font-size: 12px;" y="463.25396728515625" x="347.1424560546875" id="rel2" class="er relationshipLabel">user</text><rect height="14" width="27.96875" y="148.56454467773438" x="86.455078125" class="er relationshipLabelBox"/><text style="text-anchor: middle; dominant-baseline: middle; font-size: 12px;" y="155.56454467773438" x="100.439453125" id="rel3" class="er relationshipLabel">habit</text><rect height="14" width="23.958984375" y="414.5519714355469" x="431.4507751464844" class="er relationshipLabelBox"/><text style="text-anchor: middle; dominant-baseline: middle; font-size: 12px;" y="421.5519714355469" x="443.4302673339844" id="rel4" class="er relationshipLabel">user</text><rect height="14" width="19.990234375" y="166.30252075195312" x="420.4359130859375" class="er relationshipLabelBox"/><text style="text-anchor: middle; dominant-baseline: middle; font-size: 12px;" y="173.30252075195312" x="430.4310302734375" id="rel5" class="er relationshipLabel">day</text><rect height="14" width="27.96875" y="136.32057189941406" x="265.1783447265625" class="er relationshipLabelBox"/><text style="text-anchor: middle; dominant-baseline: middle; font-size: 12px;" y="143.32057189941406" x="279.1627197265625" id="rel6" class="er relationshipLabel">habit</text><rect height="14" width="23.958984375" y="414.5519714355469" x="635.10693359375" class="er relationshipLabelBox"/><text style="text-anchor: middle; dominant-baseline: middle; font-size: 12px;" y="421.5519714355469" x="647.08642578125" id="rel7" class="er relationshipLabel">user</text><rect height="14" width="23.958984375" y="459.7242126464844" x="741.165771484375" class="er relationshipLabelBox"/><text style="text-anchor: middle; dominant-baseline: middle; font-size: 12px;" y="466.7242126464844" x="753.145263671875" id="rel8" class="er relationshipLabel">user</text></svg>