<svg aria-roledescription="er" viewBox="0 0 704.2595825195312 466" style="max-width: 704.26px; background-color: white;" xmlns:xlink="http://www.w3.org/1999/xlink" xmlns="http://www.w3.org/2000/svg" width="100%" id="mermaid-0"><style>#mermaid-0{font-family:"trebuchet ms",verdana,arial,sans-serif;font-size:16px;fill:#000000;}#mermaid-0 .error-icon{fill:#552222;}#mermaid-0 .error-text{fill:#552222;stroke:#552222;}#mermaid-0 .edge-thickness-normal{stroke-width:2px;}#mermaid-0 .edge-thickness-thick{stroke-width:3.5px;}#mermaid-0 .edge-pattern-solid{stroke-dasharray:0;}#mermaid-0 .edge-pattern-dashed{stroke-dasharray:3;}#mermaid-0 .edge-pattern-dotted{stroke-dasharray:2;}#mermaid-0 .marker{fill:#000000;stroke:#000000;}#mermaid-0 .marker.cross{stroke:#000000;}#mermaid-0 svg{font-family:"trebuchet ms",verdana,arial,sans-serif;font-size:16px;}#mermaid-0 .entityBox{fill:#cde498;stroke:#13540c;}#mermaid-0 .attributeBoxOdd{fill:#ffffff;stroke:#13540c;}#mermaid-0 .attributeBoxEven{fill:#f2f2f2;stroke:#13540c;}#mermaid-0 .relationshipLabelBox{fill:hsl(78.1578947368, 58.4615384615%, 84.5098039216%);opacity:0.7;background-color:hsl(78.1578947368, 58.4615384615%, 84.5098039216%);}#mermaid-0 .relationshipLabelBox rect{opacity:0.5;}#mermaid-0 .relationshipLine{stroke:#000000;}#mermaid-0 .entityTitleText{text-anchor:middle;font-size:18px;fill:#000000;}#mermaid-0 :root{--mermaid-font-family:"trebuchet ms",verdana,arial,sans-serif;}</style><g/><defs><marker orient="auto" markerHeight="18" markerWidth="18" refY="9" refX="0" id="ONLY_ONE_START"><path d="M9,0 L9,18 M15,0 L15,18" fill="none" stroke="gray"/></marker></defs><defs><marker orient="auto" markerHeight="18" markerWidth="18" refY="9" refX="18" id="ONLY_ONE_END"><path d="M3,0 L3,18 M9,0 L9,18" fill="none" stroke="gray"/></marker></defs><defs><marker orient="auto" markerHeight="18" markerWidth="30" refY="9" refX="0" id="ZERO_OR_ONE_START"><circle r="6" cy="9" cx="21" fill="white" stroke="gray"/><path d="M9,0 L9,18" fill="none" stroke="gray"/></marker></defs><defs><marker orient="auto" markerHeight="18" markerWidth="30" refY="9" refX="30" id="ZERO_OR_ONE_END"><circle r="6" cy="9" cx="9" fill="white" stroke="gray"/><path d="M21,0 L21,18" fill="none" stroke="gray"/></marker></defs><defs><marker orient="auto" markerHeight="36" markerWidth="45" refY="18" refX="18" id="ONE_OR_MORE_START"><path d="M0,18 Q 18,0 36,18 Q 18,36 0,18 M42,9 L42,27" fill="none" stroke="gray"/></marker></defs><defs><marker orient="auto" markerHeight="36" markerWidth="45" refY="18" refX="27" id="ONE_OR_MORE_END"><path d="M3,9 L3,27 M9,18 Q27,0 45,18 Q27,36 9,18" fill="none" stroke="gray"/></marker></defs><defs><marker orient="auto" markerHeight="36" markerWidth="57" refY="18" refX="18" id="ZERO_OR_MORE_START"><circle r="6" cy="18" cx="48" fill="white" stroke="gray"/><path d="M0,18 Q18,0 36,18 Q18,36 0,18" fill="none" stroke="gray"/></marker></defs><defs><marker orient="auto" markerHeight="36" markerWidth="57" refY="18" refX="39" id="ZERO_OR_MORE_END"><circle r="6" cy="18" cx="9" fill="white" stroke="gray"/><path d="M21,18 Q39,0 57,18 Q39,36 21,18" fill="none" stroke="gray"/></marker></defs><path style="stroke: gray; fill: none;" marker-start="url(#ZERO_OR_MORE_START)" marker-end="url(#ONLY_ONE_END)" d="M131.146484375,278L131.146484375,286.3333333333333C131.146484375,294.6666666666667,131.146484375,311.3333333333333,167.30815251668295,331.04464929844215C203.46982065836588,350.755965263551,275.79315694173175,373.51193052710204,311.95482508341473,384.88991315887756L348.11649322509766,396.2678957906531" class="er relationshipLine"/><path style="stroke: gray; fill: none;" marker-start="url(#ZERO_OR_MORE_START)" marker-end="url(#ONLY_ONE_END)" d="M81.146484375,88L81.146484375,96.33333333333333C81.146484375,104.66666666666667,81.146484375,121.33333333333333,85.5324492872807,138C89.91841419956141,154.66666666666666,98.69034402412281,171.33333333333334,103.0763089364035,179.66666666666666L107.4622738486842,188" class="er relationshipLine"/><path style="stroke: gray; fill: none;" marker-start="url(#ZERO_OR_MORE_START)" marker-end="url(#ONLY_ONE_END)" d="M398.11649322509766,267L398.11649322509766,277.1666666666667C398.11649322509766,287.3333333333333,398.11649322509766,307.6666666666667,398.11649322509766,326.1666666666667C398.11649322509766,344.6666666666667,398.11649322509766,361.3333333333333,398.11649322509766,369.6666666666667L398.11649322509766,378" class="er relationshipLine"/><path style="stroke: gray; fill: none;" marker-start="url(#ZERO_OR_MORE_START)" marker-end="url(#ONLY_ONE_END)" d="M361.80696941557386,77L367.8585567171611,87.16666666666667C373.91014401874844,97.33333333333333,386.013318621923,117.66666666666667,392.06490592351037,138C398.11649322509766,158.33333333333334,398.11649322509766,178.66666666666666,398.11649322509766,188.83333333333334L398.11649322509766,199" class="er relationshipLine"/><path style="stroke: gray; fill: none;" marker-start="url(#ZERO_OR_MORE_START)" marker-end="url(#ONLY_ONE_END)" d="M317.61499759129117,77L304.132452419826,87.16666666666667C290.64990724836076,97.33333333333333,263.6848169054304,117.66666666666667,240.94146101576348,136.16666666666666C218.1981051260965,154.66666666666666,199.676483689693,171.33333333333334,190.41567297149126,179.66666666666666L181.15486225328948,188" class="er relationshipLine"/><path style="stroke: gray; fill: none;" marker-start="url(#ZERO_OR_MORE_START)" marker-end="url(#ONLY_ONE_END)" d="M618.1553039550781,267L618.1553039550781,277.1666666666667C618.1553039550781,287.3333333333333,618.1553039550781,307.6666666666667,589.815502166748,328.65207636472064C561.475700378418,349.6374860627746,504.7960968017578,371.27497212554925,476.45629501342773,382.0937151569365L448.11649322509766,392.91245818832385" class="er relationshipLine"/><g transform="translate(62.2874755859375,188 )" id="entity-habits-4b48b43b-40fc-4ab8-bdb5-e385358bfbbd"><rect height="90" width="137.718017578125" y="0" x="0" class="er entityBox"/><text style="dominant-baseline: middle; text-anchor: middle; font-size: 12px;" transform="translate(68.8590087890625,12)" y="0" x="0" id="text-entity-habits-4b48b43b-40fc-4ab8-bdb5-e385358bfbbd" class="er entityLabel">habits</text><rect height="22" width="54.095550537109375" y="24" x="0" class="er attributeBoxOdd"/><text style="dominant-baseline: middle; font-size: 10.2px;" transform="translate(5,35)" y="0" x="0" id="text-entity-habits-4b48b43b-40fc-4ab8-bdb5-e385358bfbbd-attr-1-type" class="er entityLabel">String</text><rect height="22" width="60.934783935546875" y="24" x="54.095550537109375" class="er attributeBoxOdd"/><text style="dominant-baseline: middle; font-size: 10.2px;" transform="translate(59.095550537109375,35)" y="0" x="0" id="text-entity-habits-4b48b43b-40fc-4ab8-bdb5-e385358bfbbd-attr-1-name" class="er entityLabel">id</text><rect height="22" width="22.68768310546875" y="24" x="115.03033447265625" class="er attributeBoxOdd"/><text style="dominant-baseline: middle; font-size: 10.2px;" transform="translate(120.03033447265625,35)" y="0" x="0" id="text-entity-habits-4b48b43b-40fc-4ab8-bdb5-e385358bfbbd-attr-1-key" class="er entityLabel">PK</text><rect height="22" width="54.095550537109375" y="46" x="0" class="er attributeBoxEven"/><text style="dominant-baseline: middle; font-size: 10.2px;" transform="translate(5,57)" y="0" x="0" id="text-entity-habits-4b48b43b-40fc-4ab8-bdb5-e385358bfbbd-attr-2-type" class="er entityLabel">String</text><rect height="22" width="60.934783935546875" y="46" x="54.095550537109375" class="er attributeBoxEven"/><text style="dominant-baseline: middle; font-size: 10.2px;" transform="translate(59.095550537109375,57)" y="0" x="0" id="text-entity-habits-4b48b43b-40fc-4ab8-bdb5-e385358bfbbd-attr-2-name" class="er entityLabel">title</text><rect height="22" width="22.68768310546875" y="46" x="115.03033447265625" class="er attributeBoxEven"/><text style="dominant-baseline: middle; font-size: 10.2px;" transform="translate(120.03033447265625,57)" y="0" x="0" id="text-entity-habits-4b48b43b-40fc-4ab8-bdb5-e385358bfbbd-attr-2-key" class="er entityLabel"/><rect height="22" width="54.095550537109375" y="68" x="0" class="er attributeBoxOdd"/><text style="dominant-baseline: middle; font-size: 10.2px;" transform="translate(5,79)" y="0" x="0" id="text-entity-habits-4b48b43b-40fc-4ab8-bdb5-e385358bfbbd-attr-3-type" class="er entityLabel">DateTime</text><rect height="22" width="60.934783935546875" y="68" x="54.095550537109375" class="er attributeBoxOdd"/><text style="dominant-baseline: middle; font-size: 10.2px;" transform="translate(59.095550537109375,79)" y="0" x="0" id="text-entity-habits-4b48b43b-40fc-4ab8-bdb5-e385358bfbbd-attr-3-name" class="er entityLabel">created_at</text><rect height="22" width="22.68768310546875" y="68" x="115.03033447265625" class="er attributeBoxOdd"/><text style="dominant-baseline: middle; font-size: 10.2px;" transform="translate(120.03033447265625,79)" y="0" x="0" id="text-entity-habits-4b48b43b-40fc-4ab8-bdb5-e385358bfbbd-attr-3-key" class="er entityLabel"/></g><g transform="translate(20,20 )" id="entity-habitweekdays-9266df72-21d6-4c2a-808b-368d6e967fbf"><rect height="68" width="122.29296875" y="0" x="0" class="er entityBox"/><text style="dominant-baseline: middle; text-anchor: middle; font-size: 12px;" transform="translate(61.146484375,12)" y="0" x="0" id="text-entity-habitweekdays-9266df72-21d6-4c2a-808b-368d6e967fbf" class="er entityLabel">habit_week_days</text><rect height="22" width="39.0484364827474" y="24" x="0" class="er attributeBoxOdd"/><text style="dominant-baseline: middle; font-size: 10.2px;" transform="translate(5,35)" y="0" x="0" id="text-entity-habitweekdays-9266df72-21d6-4c2a-808b-368d6e967fbf-attr-1-type" class="er entityLabel">String</text><rect height="22" width="58.90446980794271" y="24" x="39.0484364827474" class="er attributeBoxOdd"/><text style="dominant-baseline: middle; font-size: 10.2px;" transform="translate(44.0484364827474,35)" y="0" x="0" id="text-entity-habitweekdays-9266df72-21d6-4c2a-808b-368d6e967fbf-attr-1-name" class="er entityLabel">id</text><rect height="22" width="24.340062459309895" y="24" x="97.95290629069011" class="er attributeBoxOdd"/><text style="dominant-baseline: middle; font-size: 10.2px;" transform="translate(102.95290629069011,35)" y="0" x="0" id="text-entity-habitweekdays-9266df72-21d6-4c2a-808b-368d6e967fbf-attr-1-key" class="er entityLabel">PK</text><rect height="22" width="39.0484364827474" y="46" x="0" class="er attributeBoxEven"/><text style="dominant-baseline: middle; font-size: 10.2px;" transform="translate(5,57)" y="0" x="0" id="text-entity-habitweekdays-9266df72-21d6-4c2a-808b-368d6e967fbf-attr-2-type" class="er entityLabel">Int</text><rect height="22" width="58.90446980794271" y="46" x="39.0484364827474" class="er attributeBoxEven"/><text style="dominant-baseline: middle; font-size: 10.2px;" transform="translate(44.0484364827474,57)" y="0" x="0" id="text-entity-habitweekdays-9266df72-21d6-4c2a-808b-368d6e967fbf-attr-2-name" class="er entityLabel">week_day</text><rect height="22" width="24.340062459309895" y="46" x="97.95290629069011" class="er attributeBoxEven"/><text style="dominant-baseline: middle; font-size: 10.2px;" transform="translate(102.95290629069011,57)" y="0" x="0" id="text-entity-habitweekdays-9266df72-21d6-4c2a-808b-368d6e967fbf-attr-2-key" class="er entityLabel"/></g><g transform="translate(344.18196868896484,199 )" id="entity-days-7eee629f-d3a4-4a7a-a767-13abe1477331"><rect height="68" width="107.86904907226562" y="0" x="0" class="er entityBox"/><text style="dominant-baseline: middle; text-anchor: middle; font-size: 12px;" transform="translate(53.93452453613281,12)" y="0" x="0" id="text-entity-days-7eee629f-d3a4-4a7a-a767-13abe1477331" class="er entityLabel">days</text><rect height="22" width="54.095550537109375" y="24" x="0" class="er attributeBoxOdd"/><text style="dominant-baseline: middle; font-size: 10.2px;" transform="translate(5,35)" y="0" x="0" id="text-entity-days-7eee629f-d3a4-4a7a-a767-13abe1477331-attr-1-type" class="er entityLabel">String</text><rect height="22" width="31.0858154296875" y="24" x="54.095550537109375" class="er attributeBoxOdd"/><text style="dominant-baseline: middle; font-size: 10.2px;" transform="translate(59.095550537109375,35)" y="0" x="0" id="text-entity-days-7eee629f-d3a4-4a7a-a767-13abe1477331-attr-1-name" class="er entityLabel">id</text><rect height="22" width="22.68768310546875" y="24" x="85.18136596679688" class="er attributeBoxOdd"/><text style="dominant-baseline: middle; font-size: 10.2px;" transform="translate(90.18136596679688,35)" y="0" x="0" id="text-entity-days-7eee629f-d3a4-4a7a-a767-13abe1477331-attr-1-key" class="er entityLabel">PK</text><rect height="22" width="54.095550537109375" y="46" x="0" class="er attributeBoxEven"/><text style="dominant-baseline: middle; font-size: 10.2px;" transform="translate(5,57)" y="0" x="0" id="text-entity-days-7eee629f-d3a4-4a7a-a767-13abe1477331-attr-2-type" class="er entityLabel">DateTime</text><rect height="22" width="31.0858154296875" y="46" x="54.095550537109375" class="er attributeBoxEven"/><text style="dominant-baseline: middle; font-size: 10.2px;" transform="translate(59.095550537109375,57)" y="0" x="0" id="text-entity-days-7eee629f-d3a4-4a7a-a767-13abe1477331-attr-2-name" class="er entityLabel">date</text><rect height="22" width="22.68768310546875" y="46" x="85.18136596679688" class="er attributeBoxEven"/><text style="dominant-baseline: middle; font-size: 10.2px;" transform="translate(90.18136596679688,57)" y="0" x="0" id="text-entity-days-7eee629f-d3a4-4a7a-a767-13abe1477331-attr-2-key" class="er entityLabel"/></g><g transform="translate(298.11649322509766,31 )" id="entity-dayhabits-14e31737-44f3-44c5-abd0-f12a572a2ce8"><rect height="46" width="100" y="0" x="0" class="er entityBox"/><text style="dominant-baseline: middle; text-anchor: middle; font-size: 12px;" transform="translate(50,12)" y="0" x="0" id="text-entity-dayhabits-14e31737-44f3-44c5-abd0-f12a572a2ce8" class="er entityLabel">day_habits</text><rect height="22" width="44.39861551920573" y="24" x="0" class="er attributeBoxOdd"/><text style="dominant-baseline: middle; font-size: 10.2px;" transform="translate(5,35)" y="0" x="0" id="text-entity-dayhabits-14e31737-44f3-44c5-abd0-f12a572a2ce8-attr-1-type" class="er entityLabel">String</text><rect height="22" width="25.911142985026043" y="24" x="44.39861551920573" class="er attributeBoxOdd"/><text style="dominant-baseline: middle; font-size: 10.2px;" transform="translate(49.39861551920573,35)" y="0" x="0" id="text-entity-dayhabits-14e31737-44f3-44c5-abd0-f12a572a2ce8-attr-1-name" class="er entityLabel">id</text><rect height="22" width="29.69024149576823" y="24" x="70.30975850423177" class="er attributeBoxOdd"/><text style="dominant-baseline: middle; font-size: 10.2px;" transform="translate(75.30975850423177,35)" y="0" x="0" id="text-entity-dayhabits-14e31737-44f3-44c5-abd0-f12a572a2ce8-attr-1-key" class="er entityLabel">PK</text></g><g transform="translate(552.0510177612305,199 )" id="entity-years-f2b2d868-2e25-43d8-923d-96525b6495f3"><rect height="68" width="132.2085723876953" y="0" x="0" class="er entityBox"/><text style="dominant-baseline: middle; text-anchor: middle; font-size: 12px;" transform="translate(66.10428619384766,12)" y="0" x="0" id="text-entity-years-f2b2d868-2e25-43d8-923d-96525b6495f3" class="er entityLabel">years</text><rect height="22" width="37.39605712890625" y="24" x="0" class="er attributeBoxOdd"/><text style="dominant-baseline: middle; font-size: 10.2px;" transform="translate(5,35)" y="0" x="0" id="text-entity-years-f2b2d868-2e25-43d8-923d-96525b6495f3-attr-1-type" class="er entityLabel">String</text><rect height="22" width="72.12483215332031" y="24" x="37.39605712890625" class="er attributeBoxOdd"/><text style="dominant-baseline: middle; font-size: 10.2px;" transform="translate(42.39605712890625,35)" y="0" x="0" id="text-entity-years-f2b2d868-2e25-43d8-923d-96525b6495f3-attr-1-name" class="er entityLabel">id</text><rect height="22" width="22.68768310546875" y="24" x="109.52088928222656" class="er attributeBoxOdd"/><text style="dominant-baseline: middle; font-size: 10.2px;" transform="translate(114.52088928222656,35)" y="0" x="0" id="text-entity-years-f2b2d868-2e25-43d8-923d-96525b6495f3-attr-1-key" class="er entityLabel">PK</text><rect height="22" width="37.39605712890625" y="46" x="0" class="er attributeBoxEven"/><text style="dominant-baseline: middle; font-size: 10.2px;" transform="translate(5,57)" y="0" x="0" id="text-entity-years-f2b2d868-2e25-43d8-923d-96525b6495f3-attr-2-type" class="er entityLabel">Int</text><rect height="22" width="72.12483215332031" y="46" x="37.39605712890625" class="er attributeBoxEven"/><text style="dominant-baseline: middle; font-size: 10.2px;" transform="translate(42.39605712890625,57)" y="0" x="0" id="text-entity-years-f2b2d868-2e25-43d8-923d-96525b6495f3-attr-2-name" class="er entityLabel">year_number</text><rect height="22" width="22.68768310546875" y="46" x="109.52088928222656" class="er attributeBoxEven"/><text style="dominant-baseline: middle; font-size: 10.2px;" transform="translate(114.52088928222656,57)" y="0" x="0" id="text-entity-years-f2b2d868-2e25-43d8-923d-96525b6495f3-attr-2-key" class="er entityLabel"/></g><g transform="translate(348.11649322509766,378 )" id="entity-users-839a1616-93d7-46e7-b507-1b15a005f334"><rect height="68" width="100" y="0" x="0" class="er entityBox"/><text style="dominant-baseline: middle; text-anchor: middle; font-size: 12px;" transform="translate(50,12)" y="0" x="0" id="text-entity-users-839a1616-93d7-46e7-b507-1b15a005f334" class="er entityLabel">users</text><rect height="22" width="38.930643717447914" y="24" x="0" class="er attributeBoxOdd"/><text style="dominant-baseline: middle; font-size: 10.2px;" transform="translate(5,35)" y="0" x="0" id="text-entity-users-839a1616-93d7-46e7-b507-1b15a005f334-attr-1-type" class="er entityLabel">String</text><rect height="22" width="36.847086588541664" y="24" x="38.930643717447914" class="er attributeBoxOdd"/><text style="dominant-baseline: middle; font-size: 10.2px;" transform="translate(43.930643717447914,35)" y="0" x="0" id="text-entity-users-839a1616-93d7-46e7-b507-1b15a005f334-attr-1-name" class="er entityLabel">id</text><rect height="22" width="24.222269694010418" y="24" x="75.77773030598958" class="er attributeBoxOdd"/><text style="dominant-baseline: middle; font-size: 10.2px;" transform="translate(80.77773030598958,35)" y="0" x="0" id="text-entity-users-839a1616-93d7-46e7-b507-1b15a005f334-attr-1-key" class="er entityLabel">PK</text><rect height="22" width="38.930643717447914" y="46" x="0" class="er attributeBoxEven"/><text style="dominant-baseline: middle; font-size: 10.2px;" transform="translate(5,57)" y="0" x="0" id="text-entity-users-839a1616-93d7-46e7-b507-1b15a005f334-attr-2-type" class="er entityLabel">String</text><rect height="22" width="36.847086588541664" y="46" x="38.930643717447914" class="er attributeBoxEven"/><text style="dominant-baseline: middle; font-size: 10.2px;" transform="translate(43.930643717447914,57)" y="0" x="0" id="text-entity-users-839a1616-93d7-46e7-b507-1b15a005f334-attr-2-name" class="er entityLabel">email</text><rect height="22" width="24.222269694010418" y="46" x="75.77773030598958" class="er attributeBoxEven"/><text style="dominant-baseline: middle; font-size: 10.2px;" transform="translate(80.77773030598958,57)" y="0" x="0" id="text-entity-users-839a1616-93d7-46e7-b507-1b15a005f334-attr-2-key" class="er entityLabel"/></g><rect height="14" width="23.958984375" y="348.41827392578125" x="211.94374084472656" class="er relationshipLabelBox"/><text style="text-anchor: middle; dominant-baseline: middle; font-size: 12px;" y="355.41827392578125" x="223.92323303222656" id="rel1" class="er relationshipLabel">user</text><rect height="14" width="27.96875" y="133.108642578125" x="72.1260757446289" class="er relationshipLabelBox"/><text style="text-anchor: middle; dominant-baseline: middle; font-size: 12px;" y="140.108642578125" x="86.1104507446289" id="rel2" class="er relationshipLabel">habit</text><rect height="14" width="23.958984375" y="315.5" x="386.1369934082031" class="er relationshipLabelBox"/><text style="text-anchor: middle; dominant-baseline: middle; font-size: 12px;" y="322.5" x="398.1164855957031" id="rel3" class="er relationshipLabel">user</text><rect height="14" width="19.990234375" y="127.78829956054688" x="381.0647277832031" class="er relationshipLabelBox"/><text style="text-anchor: middle; dominant-baseline: middle; font-size: 12px;" y="134.78829956054688" x="391.0598449707031" id="rel4" class="er relationshipLabel">day</text><rect height="14" width="27.96875" y="123.60450744628906" x="233.85125732421875" class="er relationshipLabelBox"/><text style="text-anchor: middle; dominant-baseline: middle; font-size: 12px;" y="130.60450744628906" x="247.83563232421875" id="rel5" class="er relationshipLabel">habit</text><rect height="14" width="23.958984375" y="342.8072814941406" x="541.3795776367188" class="er relationshipLabelBox"/><text style="text-anchor: middle; dominant-baseline: middle; font-size: 12px;" y="349.8072814941406" x="553.3590698242188" id="rel6" class="er relationshipLabel">user</text></svg>