<svg aria-roledescription="er" viewBox="0 0 704.2595825195312 488" style="max-width: 704.26px; background-color: white;" xmlns:xlink="http://www.w3.org/1999/xlink" xmlns="http://www.w3.org/2000/svg" width="100%" id="mermaid-0"><style>#mermaid-0{font-family:"trebuchet ms",verdana,arial,sans-serif;font-size:16px;fill:#000000;}#mermaid-0 .error-icon{fill:#552222;}#mermaid-0 .error-text{fill:#552222;stroke:#552222;}#mermaid-0 .edge-thickness-normal{stroke-width:2px;}#mermaid-0 .edge-thickness-thick{stroke-width:3.5px;}#mermaid-0 .edge-pattern-solid{stroke-dasharray:0;}#mermaid-0 .edge-pattern-dashed{stroke-dasharray:3;}#mermaid-0 .edge-pattern-dotted{stroke-dasharray:2;}#mermaid-0 .marker{fill:#000000;stroke:#000000;}#mermaid-0 .marker.cross{stroke:#000000;}#mermaid-0 svg{font-family:"trebuchet ms",verdana,arial,sans-serif;font-size:16px;}#mermaid-0 .entityBox{fill:#cde498;stroke:#13540c;}#mermaid-0 .attributeBoxOdd{fill:#ffffff;stroke:#13540c;}#mermaid-0 .attributeBoxEven{fill:#f2f2f2;stroke:#13540c;}#mermaid-0 .relationshipLabelBox{fill:hsl(78.1578947368, 58.4615384615%, 84.5098039216%);opacity:0.7;background-color:hsl(78.1578947368, 58.4615384615%, 84.5098039216%);}#mermaid-0 .relationshipLabelBox rect{opacity:0.5;}#mermaid-0 .relationshipLine{stroke:#000000;}#mermaid-0 .entityTitleText{text-anchor:middle;font-size:18px;fill:#000000;}#mermaid-0 :root{--mermaid-font-family:"trebuchet ms",verdana,arial,sans-serif;}</style><g/><defs><marker orient="auto" markerHeight="18" markerWidth="18" refY="9" refX="0" id="ONLY_ONE_START"><path d="M9,0 L9,18 M15,0 L15,18" fill="none" stroke="gray"/></marker></defs><defs><marker orient="auto" markerHeight="18" markerWidth="18" refY="9" refX="18" id="ONLY_ONE_END"><path d="M3,0 L3,18 M9,0 L9,18" fill="none" stroke="gray"/></marker></defs><defs><marker orient="auto" markerHeight="18" markerWidth="30" refY="9" refX="0" id="ZERO_OR_ONE_START"><circle r="6" cy="9" cx="21" fill="white" stroke="gray"/><path d="M9,0 L9,18" fill="none" stroke="gray"/></marker></defs><defs><marker orient="auto" markerHeight="18" markerWidth="30" refY="9" refX="30" id="ZERO_OR_ONE_END"><circle r="6" cy="9" cx="9" fill="white" stroke="gray"/><path d="M21,0 L21,18" fill="none" stroke="gray"/></marker></defs><defs><marker orient="auto" markerHeight="36" markerWidth="45" refY="18" refX="18" id="ONE_OR_MORE_START"><path d="M0,18 Q 18,0 36,18 Q 18,36 0,18 M42,9 L42,27" fill="none" stroke="gray"/></marker></defs><defs><marker orient="auto" markerHeight="36" markerWidth="45" refY="18" refX="27" id="ONE_OR_MORE_END"><path d="M3,9 L3,27 M9,18 Q27,0 45,18 Q27,36 9,18" fill="none" stroke="gray"/></marker></defs><defs><marker orient="auto" markerHeight="36" markerWidth="57" refY="18" refX="18" id="ZERO_OR_MORE_START"><circle r="6" cy="18" cx="48" fill="white" stroke="gray"/><path d="M0,18 Q18,0 36,18 Q18,36 0,18" fill="none" stroke="gray"/></marker></defs><defs><marker orient="auto" markerHeight="36" markerWidth="57" refY="18" refX="39" id="ZERO_OR_MORE_END"><circle r="6" cy="18" cx="9" fill="white" stroke="gray"/><path d="M21,18 Q39,0 57,18 Q39,36 21,18" fill="none" stroke="gray"/></marker></defs><path style="stroke: gray; fill: none;" marker-start="url(#ZERO_OR_MORE_START)" marker-end="url(#ONLY_ONE_END)" d="M131.146484375,300L131.146484375,308.3333333333333C131.146484375,316.6666666666667,131.146484375,333.3333333333333,167.30815251668295,353.0446492984422C203.46982065836588,372.755965263551,275.79315694173175,395.51193052710204,311.95482508341473,406.88991315887756L348.11649322509766,418.2678957906531" class="er relationshipLine"/><path style="stroke: gray; fill: none;" marker-start="url(#ZERO_OR_MORE_START)" marker-end="url(#ONLY_ONE_END)" d="M81.146484375,99L81.146484375,109.16666666666667C81.146484375,119.33333333333333,81.146484375,139.66666666666666,85.5324492872807,158.16666666666666C89.91841419956141,176.66666666666666,98.69034402412281,193.33333333333334,103.0763089364035,201.66666666666666L107.4622738486842,210" class="er relationshipLine"/><path style="stroke: gray; fill: none;" marker-start="url(#ZERO_OR_MORE_START)" marker-end="url(#ONLY_ONE_END)" d="M398.11649322509766,289L398.11649322509766,299.1666666666667C398.11649322509766,309.3333333333333,398.11649322509766,329.6666666666667,398.11649322509766,348.1666666666667C398.11649322509766,366.6666666666667,398.11649322509766,383.3333333333333,398.11649322509766,391.6666666666667L398.11649322509766,400" class="er relationshipLine"/><path style="stroke: gray; fill: none;" marker-start="url(#ZERO_OR_MORE_START)" marker-end="url(#ONLY_ONE_END)" d="M360.2217563829924,88L366.5375458566766,100C372.85333533036084,112,385.4849142777293,136,391.8007037514135,158.16666666666666C398.11649322509766,180.33333333333334,398.11649322509766,200.66666666666666,398.11649322509766,210.83333333333334L398.11649322509766,221" class="er relationshipLine"/><path style="stroke: gray; fill: none;" marker-start="url(#ZERO_OR_MORE_START)" marker-end="url(#ONLY_ONE_END)" d="M321.14674971731085,88L307.075579191509,100C293.0044086657072,112,264.86206761410364,136,241.53008637010007,156.33333333333334C218.1981051260965,176.66666666666666,199.676483689693,193.33333333333334,190.41567297149126,201.66666666666666L181.15486225328948,210" class="er relationshipLine"/><path style="stroke: gray; fill: none;" marker-start="url(#ZERO_OR_MORE_START)" marker-end="url(#ONLY_ONE_END)" d="M618.1553039550781,289L618.1553039550781,299.1666666666667C618.1553039550781,309.3333333333333,618.1553039550781,329.6666666666667,589.815502166748,350.65207636472064C561.475700378418,371.6374860627746,504.7960968017578,393.27497212554925,476.45629501342773,404.0937151569365L448.11649322509766,414.91245818832385" class="er relationshipLine"/><g transform="translate(62.2874755859375,210 )" id="entity-habits-658cfa08-b115-4ac0-bdda-7df07805f8c0"><rect height="90" width="137.718017578125" y="0" x="0" class="er entityBox"/><text style="dominant-baseline: middle; text-anchor: middle; font-size: 12px;" transform="translate(68.8590087890625,12)" y="0" x="0" id="text-entity-habits-658cfa08-b115-4ac0-bdda-7df07805f8c0" class="er entityLabel">habits</text><rect height="22" width="54.095550537109375" y="24" x="0" class="er attributeBoxOdd"/><text style="dominant-baseline: middle; font-size: 10.2px;" transform="translate(5,35)" y="0" x="0" id="text-entity-habits-658cfa08-b115-4ac0-bdda-7df07805f8c0-attr-1-type" class="er entityLabel">String</text><rect height="22" width="60.934783935546875" y="24" x="54.095550537109375" class="er attributeBoxOdd"/><text style="dominant-baseline: middle; font-size: 10.2px;" transform="translate(59.095550537109375,35)" y="0" x="0" id="text-entity-habits-658cfa08-b115-4ac0-bdda-7df07805f8c0-attr-1-name" class="er entityLabel">id</text><rect height="22" width="22.68768310546875" y="24" x="115.03033447265625" class="er attributeBoxOdd"/><text style="dominant-baseline: middle; font-size: 10.2px;" transform="translate(120.03033447265625,35)" y="0" x="0" id="text-entity-habits-658cfa08-b115-4ac0-bdda-7df07805f8c0-attr-1-key" class="er entityLabel">PK</text><rect height="22" width="54.095550537109375" y="46" x="0" class="er attributeBoxEven"/><text style="dominant-baseline: middle; font-size: 10.2px;" transform="translate(5,57)" y="0" x="0" id="text-entity-habits-658cfa08-b115-4ac0-bdda-7df07805f8c0-attr-2-type" class="er entityLabel">String</text><rect height="22" width="60.934783935546875" y="46" x="54.095550537109375" class="er attributeBoxEven"/><text style="dominant-baseline: middle; font-size: 10.2px;" transform="translate(59.095550537109375,57)" y="0" x="0" id="text-entity-habits-658cfa08-b115-4ac0-bdda-7df07805f8c0-attr-2-name" class="er entityLabel">title</text><rect height="22" width="22.68768310546875" y="46" x="115.03033447265625" class="er attributeBoxEven"/><text style="dominant-baseline: middle; font-size: 10.2px;" transform="translate(120.03033447265625,57)" y="0" x="0" id="text-entity-habits-658cfa08-b115-4ac0-bdda-7df07805f8c0-attr-2-key" class="er entityLabel"/><rect height="22" width="54.095550537109375" y="68" x="0" class="er attributeBoxOdd"/><text style="dominant-baseline: middle; font-size: 10.2px;" transform="translate(5,79)" y="0" x="0" id="text-entity-habits-658cfa08-b115-4ac0-bdda-7df07805f8c0-attr-3-type" class="er entityLabel">DateTime</text><rect height="22" width="60.934783935546875" y="68" x="54.095550537109375" class="er attributeBoxOdd"/><text style="dominant-baseline: middle; font-size: 10.2px;" transform="translate(59.095550537109375,79)" y="0" x="0" id="text-entity-habits-658cfa08-b115-4ac0-bdda-7df07805f8c0-attr-3-name" class="er entityLabel">created_at</text><rect height="22" width="22.68768310546875" y="68" x="115.03033447265625" class="er attributeBoxOdd"/><text style="dominant-baseline: middle; font-size: 10.2px;" transform="translate(120.03033447265625,79)" y="0" x="0" id="text-entity-habits-658cfa08-b115-4ac0-bdda-7df07805f8c0-attr-3-key" class="er entityLabel"/></g><g transform="translate(20,31 )" id="entity-habitweekdays-575ff33e-65c4-4b6e-a260-04e6a25df652"><rect height="68" width="122.29296875" y="0" x="0" class="er entityBox"/><text style="dominant-baseline: middle; text-anchor: middle; font-size: 12px;" transform="translate(61.146484375,12)" y="0" x="0" id="text-entity-habitweekdays-575ff33e-65c4-4b6e-a260-04e6a25df652" class="er entityLabel">habit_week_days</text><rect height="22" width="39.0484364827474" y="24" x="0" class="er attributeBoxOdd"/><text style="dominant-baseline: middle; font-size: 10.2px;" transform="translate(5,35)" y="0" x="0" id="text-entity-habitweekdays-575ff33e-65c4-4b6e-a260-04e6a25df652-attr-1-type" class="er entityLabel">String</text><rect height="22" width="58.90446980794271" y="24" x="39.0484364827474" class="er attributeBoxOdd"/><text style="dominant-baseline: middle; font-size: 10.2px;" transform="translate(44.0484364827474,35)" y="0" x="0" id="text-entity-habitweekdays-575ff33e-65c4-4b6e-a260-04e6a25df652-attr-1-name" class="er entityLabel">id</text><rect height="22" width="24.340062459309895" y="24" x="97.95290629069011" class="er attributeBoxOdd"/><text style="dominant-baseline: middle; font-size: 10.2px;" transform="translate(102.95290629069011,35)" y="0" x="0" id="text-entity-habitweekdays-575ff33e-65c4-4b6e-a260-04e6a25df652-attr-1-key" class="er entityLabel">PK</text><rect height="22" width="39.0484364827474" y="46" x="0" class="er attributeBoxEven"/><text style="dominant-baseline: middle; font-size: 10.2px;" transform="translate(5,57)" y="0" x="0" id="text-entity-habitweekdays-575ff33e-65c4-4b6e-a260-04e6a25df652-attr-2-type" class="er entityLabel">Int</text><rect height="22" width="58.90446980794271" y="46" x="39.0484364827474" class="er attributeBoxEven"/><text style="dominant-baseline: middle; font-size: 10.2px;" transform="translate(44.0484364827474,57)" y="0" x="0" id="text-entity-habitweekdays-575ff33e-65c4-4b6e-a260-04e6a25df652-attr-2-name" class="er entityLabel">week_day</text><rect height="22" width="24.340062459309895" y="46" x="97.95290629069011" class="er attributeBoxEven"/><text style="dominant-baseline: middle; font-size: 10.2px;" transform="translate(102.95290629069011,57)" y="0" x="0" id="text-entity-habitweekdays-575ff33e-65c4-4b6e-a260-04e6a25df652-attr-2-key" class="er entityLabel"/></g><g transform="translate(344.18196868896484,221 )" id="entity-days-746b6a8f-9bd4-4a4a-9263-cdaaf0695c6f"><rect height="68" width="107.86904907226562" y="0" x="0" class="er entityBox"/><text style="dominant-baseline: middle; text-anchor: middle; font-size: 12px;" transform="translate(53.93452453613281,12)" y="0" x="0" id="text-entity-days-746b6a8f-9bd4-4a4a-9263-cdaaf0695c6f" class="er entityLabel">days</text><rect height="22" width="54.095550537109375" y="24" x="0" class="er attributeBoxOdd"/><text style="dominant-baseline: middle; font-size: 10.2px;" transform="translate(5,35)" y="0" x="0" id="text-entity-days-746b6a8f-9bd4-4a4a-9263-cdaaf0695c6f-attr-1-type" class="er entityLabel">String</text><rect height="22" width="31.0858154296875" y="24" x="54.095550537109375" class="er attributeBoxOdd"/><text style="dominant-baseline: middle; font-size: 10.2px;" transform="translate(59.095550537109375,35)" y="0" x="0" id="text-entity-days-746b6a8f-9bd4-4a4a-9263-cdaaf0695c6f-attr-1-name" class="er entityLabel">id</text><rect height="22" width="22.68768310546875" y="24" x="85.18136596679688" class="er attributeBoxOdd"/><text style="dominant-baseline: middle; font-size: 10.2px;" transform="translate(90.18136596679688,35)" y="0" x="0" id="text-entity-days-746b6a8f-9bd4-4a4a-9263-cdaaf0695c6f-attr-1-key" class="er entityLabel">PK</text><rect height="22" width="54.095550537109375" y="46" x="0" class="er attributeBoxEven"/><text style="dominant-baseline: middle; font-size: 10.2px;" transform="translate(5,57)" y="0" x="0" id="text-entity-days-746b6a8f-9bd4-4a4a-9263-cdaaf0695c6f-attr-2-type" class="er entityLabel">DateTime</text><rect height="22" width="31.0858154296875" y="46" x="54.095550537109375" class="er attributeBoxEven"/><text style="dominant-baseline: middle; font-size: 10.2px;" transform="translate(59.095550537109375,57)" y="0" x="0" id="text-entity-days-746b6a8f-9bd4-4a4a-9263-cdaaf0695c6f-attr-2-name" class="er entityLabel">date</text><rect height="22" width="22.68768310546875" y="46" x="85.18136596679688" class="er attributeBoxEven"/><text style="dominant-baseline: middle; font-size: 10.2px;" transform="translate(90.18136596679688,57)" y="0" x="0" id="text-entity-days-746b6a8f-9bd4-4a4a-9263-cdaaf0695c6f-attr-2-key" class="er entityLabel"/></g><g transform="translate(298.11649322509766,42 )" id="entity-dayhabits-a3041206-e3ba-487a-a7c3-ca665ee72b5d"><rect height="46" width="100" y="0" x="0" class="er entityBox"/><text style="dominant-baseline: middle; text-anchor: middle; font-size: 12px;" transform="translate(50,12)" y="0" x="0" id="text-entity-dayhabits-a3041206-e3ba-487a-a7c3-ca665ee72b5d" class="er entityLabel">day_habits</text><rect height="22" width="44.39861551920573" y="24" x="0" class="er attributeBoxOdd"/><text style="dominant-baseline: middle; font-size: 10.2px;" transform="translate(5,35)" y="0" x="0" id="text-entity-dayhabits-a3041206-e3ba-487a-a7c3-ca665ee72b5d-attr-1-type" class="er entityLabel">String</text><rect height="22" width="25.911142985026043" y="24" x="44.39861551920573" class="er attributeBoxOdd"/><text style="dominant-baseline: middle; font-size: 10.2px;" transform="translate(49.39861551920573,35)" y="0" x="0" id="text-entity-dayhabits-a3041206-e3ba-487a-a7c3-ca665ee72b5d-attr-1-name" class="er entityLabel">id</text><rect height="22" width="29.69024149576823" y="24" x="70.30975850423177" class="er attributeBoxOdd"/><text style="dominant-baseline: middle; font-size: 10.2px;" transform="translate(75.30975850423177,35)" y="0" x="0" id="text-entity-dayhabits-a3041206-e3ba-487a-a7c3-ca665ee72b5d-attr-1-key" class="er entityLabel">PK</text></g><g transform="translate(552.0510177612305,221 )" id="entity-years-a13801ef-3d7c-4fb4-ab29-73fe5d09c083"><rect height="68" width="132.2085723876953" y="0" x="0" class="er entityBox"/><text style="dominant-baseline: middle; text-anchor: middle; font-size: 12px;" transform="translate(66.10428619384766,12)" y="0" x="0" id="text-entity-years-a13801ef-3d7c-4fb4-ab29-73fe5d09c083" class="er entityLabel">years</text><rect height="22" width="37.39605712890625" y="24" x="0" class="er attributeBoxOdd"/><text style="dominant-baseline: middle; font-size: 10.2px;" transform="translate(5,35)" y="0" x="0" id="text-entity-years-a13801ef-3d7c-4fb4-ab29-73fe5d09c083-attr-1-type" class="er entityLabel">String</text><rect height="22" width="72.12483215332031" y="24" x="37.39605712890625" class="er attributeBoxOdd"/><text style="dominant-baseline: middle; font-size: 10.2px;" transform="translate(42.39605712890625,35)" y="0" x="0" id="text-entity-years-a13801ef-3d7c-4fb4-ab29-73fe5d09c083-attr-1-name" class="er entityLabel">id</text><rect height="22" width="22.68768310546875" y="24" x="109.52088928222656" class="er attributeBoxOdd"/><text style="dominant-baseline: middle; font-size: 10.2px;" transform="translate(114.52088928222656,35)" y="0" x="0" id="text-entity-years-a13801ef-3d7c-4fb4-ab29-73fe5d09c083-attr-1-key" class="er entityLabel">PK</text><rect height="22" width="37.39605712890625" y="46" x="0" class="er attributeBoxEven"/><text style="dominant-baseline: middle; font-size: 10.2px;" transform="translate(5,57)" y="0" x="0" id="text-entity-years-a13801ef-3d7c-4fb4-ab29-73fe5d09c083-attr-2-type" class="er entityLabel">Int</text><rect height="22" width="72.12483215332031" y="46" x="37.39605712890625" class="er attributeBoxEven"/><text style="dominant-baseline: middle; font-size: 10.2px;" transform="translate(42.39605712890625,57)" y="0" x="0" id="text-entity-years-a13801ef-3d7c-4fb4-ab29-73fe5d09c083-attr-2-name" class="er entityLabel">year_number</text><rect height="22" width="22.68768310546875" y="46" x="109.52088928222656" class="er attributeBoxEven"/><text style="dominant-baseline: middle; font-size: 10.2px;" transform="translate(114.52088928222656,57)" y="0" x="0" id="text-entity-years-a13801ef-3d7c-4fb4-ab29-73fe5d09c083-attr-2-key" class="er entityLabel"/></g><g transform="translate(348.11649322509766,400 )" id="entity-users-f50c2525-f3da-4b6b-ad06-1b00c451217d"><rect height="68" width="100" y="0" x="0" class="er entityBox"/><text style="dominant-baseline: middle; text-anchor: middle; font-size: 12px;" transform="translate(50,12)" y="0" x="0" id="text-entity-users-f50c2525-f3da-4b6b-ad06-1b00c451217d" class="er entityLabel">users</text><rect height="22" width="38.930643717447914" y="24" x="0" class="er attributeBoxOdd"/><text style="dominant-baseline: middle; font-size: 10.2px;" transform="translate(5,35)" y="0" x="0" id="text-entity-users-f50c2525-f3da-4b6b-ad06-1b00c451217d-attr-1-type" class="er entityLabel">String</text><rect height="22" width="36.847086588541664" y="24" x="38.930643717447914" class="er attributeBoxOdd"/><text style="dominant-baseline: middle; font-size: 10.2px;" transform="translate(43.930643717447914,35)" y="0" x="0" id="text-entity-users-f50c2525-f3da-4b6b-ad06-1b00c451217d-attr-1-name" class="er entityLabel">id</text><rect height="22" width="24.222269694010418" y="24" x="75.77773030598958" class="er attributeBoxOdd"/><text style="dominant-baseline: middle; font-size: 10.2px;" transform="translate(80.77773030598958,35)" y="0" x="0" id="text-entity-users-f50c2525-f3da-4b6b-ad06-1b00c451217d-attr-1-key" class="er entityLabel">PK</text><rect height="22" width="38.930643717447914" y="46" x="0" class="er attributeBoxEven"/><text style="dominant-baseline: middle; font-size: 10.2px;" transform="translate(5,57)" y="0" x="0" id="text-entity-users-f50c2525-f3da-4b6b-ad06-1b00c451217d-attr-2-type" class="er entityLabel">String</text><rect height="22" width="36.847086588541664" y="46" x="38.930643717447914" class="er attributeBoxEven"/><text style="dominant-baseline: middle; font-size: 10.2px;" transform="translate(43.930643717447914,57)" y="0" x="0" id="text-entity-users-f50c2525-f3da-4b6b-ad06-1b00c451217d-attr-2-name" class="er entityLabel">email</text><rect height="22" width="24.222269694010418" y="46" x="75.77773030598958" class="er attributeBoxEven"/><text style="dominant-baseline: middle; font-size: 10.2px;" transform="translate(80.77773030598958,57)" y="0" x="0" id="text-entity-users-f50c2525-f3da-4b6b-ad06-1b00c451217d-attr-2-key" class="er entityLabel"/></g><g transform="translate(498.11649322509766,20 )" id="entity-NotificationToken-c7d6999f-251b-46eb-8e73-df228d9dff29"><rect height="90" width="125.06640625" y="0" x="0" class="er entityBox"/><text style="dominant-baseline: middle; text-anchor: middle; font-size: 12px;" transform="translate(62.533203125,12)" y="0" x="0" id="text-entity-NotificationToken-c7d6999f-251b-46eb-8e73-df228d9dff29" class="er entityLabel">NotificationToken</text><rect height="22" width="44.56122843424479" y="24" x="0" class="er attributeBoxOdd"/><text style="dominant-baseline: middle; font-size: 10.2px;" transform="translate(5,35)" y="0" x="0" id="text-entity-NotificationToken-c7d6999f-251b-46eb-8e73-df228d9dff29-attr-1-type" class="er entityLabel">String</text><rect height="22" width="50.652323404947914" y="24" x="44.56122843424479" class="er attributeBoxOdd"/><text style="dominant-baseline: middle; font-size: 10.2px;" transform="translate(49.56122843424479,35)" y="0" x="0" id="text-entity-NotificationToken-c7d6999f-251b-46eb-8e73-df228d9dff29-attr-1-name" class="er entityLabel">id</text><rect height="22" width="29.852854410807293" y="24" x="95.2135518391927" class="er attributeBoxOdd"/><text style="dominant-baseline: middle; font-size: 10.2px;" transform="translate(100.2135518391927,35)" y="0" x="0" id="text-entity-NotificationToken-c7d6999f-251b-46eb-8e73-df228d9dff29-attr-1-key" class="er entityLabel">PK</text><rect height="22" width="44.56122843424479" y="46" x="0" class="er attributeBoxEven"/><text style="dominant-baseline: middle; font-size: 10.2px;" transform="translate(5,57)" y="0" x="0" id="text-entity-NotificationToken-c7d6999f-251b-46eb-8e73-df228d9dff29-attr-2-type" class="er entityLabel">String</text><rect height="22" width="50.652323404947914" y="46" x="44.56122843424479" class="er attributeBoxEven"/><text style="dominant-baseline: middle; font-size: 10.2px;" transform="translate(49.56122843424479,57)" y="0" x="0" id="text-entity-NotificationToken-c7d6999f-251b-46eb-8e73-df228d9dff29-attr-2-name" class="er entityLabel">token</text><rect height="22" width="29.852854410807293" y="46" x="95.2135518391927" class="er attributeBoxEven"/><text style="dominant-baseline: middle; font-size: 10.2px;" transform="translate(100.2135518391927,57)" y="0" x="0" id="text-entity-NotificationToken-c7d6999f-251b-46eb-8e73-df228d9dff29-attr-2-key" class="er entityLabel"/><rect height="22" width="44.56122843424479" y="68" x="0" class="er attributeBoxOdd"/><text style="dominant-baseline: middle; font-size: 10.2px;" transform="translate(5,79)" y="0" x="0" id="text-entity-NotificationToken-c7d6999f-251b-46eb-8e73-df228d9dff29-attr-3-type" class="er entityLabel">String</text><rect height="22" width="50.652323404947914" y="68" x="44.56122843424479" class="er attributeBoxOdd"/><text style="dominant-baseline: middle; font-size: 10.2px;" transform="translate(49.56122843424479,79)" y="0" x="0" id="text-entity-NotificationToken-c7d6999f-251b-46eb-8e73-df228d9dff29-attr-3-name" class="er entityLabel">user_id</text><rect height="22" width="29.852854410807293" y="68" x="95.2135518391927" class="er attributeBoxOdd"/><text style="dominant-baseline: middle; font-size: 10.2px;" transform="translate(100.2135518391927,79)" y="0" x="0" id="text-entity-NotificationToken-c7d6999f-251b-46eb-8e73-df228d9dff29-attr-3-key" class="er entityLabel"/></g><rect height="14" width="23.958984375" y="370.41827392578125" x="211.94374084472656" class="er relationshipLabelBox"/><text style="text-anchor: middle; dominant-baseline: middle; font-size: 12px;" y="377.41827392578125" x="223.92323303222656" id="rel1" class="er relationshipLabel">user</text><rect height="14" width="27.96875" y="149.69284057617188" x="71.20887756347656" class="er relationshipLabelBox"/><text style="text-anchor: middle; dominant-baseline: middle; font-size: 12px;" y="156.69284057617188" x="85.19325256347656" id="rel2" class="er relationshipLabel">habit</text><rect height="14" width="23.958984375" y="337.5" x="386.1369934082031" class="er relationshipLabelBox"/><text style="text-anchor: middle; dominant-baseline: middle; font-size: 12px;" y="344.5" x="398.1164855957031" id="rel3" class="er relationshipLabel">user</text><rect height="14" width="19.990234375" y="144.62586975097656" x="379.7837219238281" class="er relationshipLabelBox"/><text style="text-anchor: middle; dominant-baseline: middle; font-size: 12px;" y="151.62586975097656" x="389.7788391113281" id="rel4" class="er relationshipLabel">day</text><rect height="14" width="27.96875" y="141.41688537597656" x="236.65728759765625" class="er relationshipLabelBox"/><text style="text-anchor: middle; dominant-baseline: middle; font-size: 12px;" y="148.41688537597656" x="250.64166259765625" id="rel5" class="er relationshipLabel">habit</text><rect height="14" width="23.958984375" y="364.8072814941406" x="541.3795776367188" class="er relationshipLabelBox"/><text style="text-anchor: middle; dominant-baseline: middle; font-size: 12px;" y="371.8072814941406" x="553.3590698242188" id="rel6" class="er relationshipLabel">user</text></svg>