<svg aria-roledescription="er" viewBox="0 0 936.4765625 576.734375" style="max-width: 936.477px; background-color: white;" xmlns:xlink="http://www.w3.org/1999/xlink" xmlns="http://www.w3.org/2000/svg" width="100%" id="mermaid-0"><style>#mermaid-0{font-family:"trebuchet ms",verdana,arial,sans-serif;font-size:16px;fill:#000000;}#mermaid-0 .error-icon{fill:#552222;}#mermaid-0 .error-text{fill:#552222;stroke:#552222;}#mermaid-0 .edge-thickness-normal{stroke-width:2px;}#mermaid-0 .edge-thickness-thick{stroke-width:3.5px;}#mermaid-0 .edge-pattern-solid{stroke-dasharray:0;}#mermaid-0 .edge-pattern-dashed{stroke-dasharray:3;}#mermaid-0 .edge-pattern-dotted{stroke-dasharray:2;}#mermaid-0 .marker{fill:#000000;stroke:#000000;}#mermaid-0 .marker.cross{stroke:#000000;}#mermaid-0 svg{font-family:"trebuchet ms",verdana,arial,sans-serif;font-size:16px;}#mermaid-0 .entityBox{fill:#cde498;stroke:#13540c;}#mermaid-0 .attributeBoxOdd{fill:#ffffff;stroke:#13540c;}#mermaid-0 .attributeBoxEven{fill:#f2f2f2;stroke:#13540c;}#mermaid-0 .relationshipLabelBox{fill:hsl(78.1578947368, 58.4615384615%, 84.5098039216%);opacity:0.7;background-color:hsl(78.1578947368, 58.4615384615%, 84.5098039216%);}#mermaid-0 .relationshipLabelBox rect{opacity:0.5;}#mermaid-0 .relationshipLine{stroke:#000000;}#mermaid-0 .entityTitleText{text-anchor:middle;font-size:18px;fill:#000000;}#mermaid-0 :root{--mermaid-font-family:"trebuchet ms",verdana,arial,sans-serif;}</style><g/><defs><marker orient="auto" markerHeight="18" markerWidth="18" refY="9" refX="0" id="ONLY_ONE_START"><path d="M9,0 L9,18 M15,0 L15,18" fill="none" stroke="gray"/></marker></defs><defs><marker orient="auto" markerHeight="18" markerWidth="18" refY="9" refX="18" id="ONLY_ONE_END"><path d="M3,0 L3,18 M9,0 L9,18" fill="none" stroke="gray"/></marker></defs><defs><marker orient="auto" markerHeight="18" markerWidth="30" refY="9" refX="0" id="ZERO_OR_ONE_START"><circle r="6" cy="9" cx="21" fill="white" stroke="gray"/><path d="M9,0 L9,18" fill="none" stroke="gray"/></marker></defs><defs><marker orient="auto" markerHeight="18" markerWidth="30" refY="9" refX="30" id="ZERO_OR_ONE_END"><circle r="6" cy="9" cx="9" fill="white" stroke="gray"/><path d="M21,0 L21,18" fill="none" stroke="gray"/></marker></defs><defs><marker orient="auto" markerHeight="36" markerWidth="45" refY="18" refX="18" id="ONE_OR_MORE_START"><path d="M0,18 Q 18,0 36,18 Q 18,36 0,18 M42,9 L42,27" fill="none" stroke="gray"/></marker></defs><defs><marker orient="auto" markerHeight="36" markerWidth="45" refY="18" refX="27" id="ONE_OR_MORE_END"><path d="M3,9 L3,27 M9,18 Q27,0 45,18 Q27,36 9,18" fill="none" stroke="gray"/></marker></defs><defs><marker orient="auto" markerHeight="36" markerWidth="57" refY="18" refX="18" id="ZERO_OR_MORE_START"><circle r="6" cy="18" cx="48" fill="white" stroke="gray"/><path d="M0,18 Q18,0 36,18 Q18,36 0,18" fill="none" stroke="gray"/></marker></defs><defs><marker orient="auto" markerHeight="36" markerWidth="57" refY="18" refX="39" id="ZERO_OR_MORE_END"><circle r="6" cy="18" cx="9" fill="white" stroke="gray"/><path d="M21,18 Q39,0 57,18 Q39,36 21,18" fill="none" stroke="gray"/></marker></defs><path style="stroke: gray; fill: none;" marker-start="url(#ZERO_OR_ONE_START)" marker-end="url(#ONLY_ONE_END)" d="M115.28031234865978,388.55078125L112.28567695721648,396.8841145833333C109.29104156577318,405.2174479166667,103.30177078288659,421.8841145833333,100.3071353914433,438.5660807291667C97.3125,455.248046875,97.3125,471.9453125,97.3125,480.2939453125L97.3125,488.642578125" class="er relationshipLine"/><path style="stroke: gray; fill: none;" marker-start="url(#ZERO_OR_MORE_START)" marker-end="url(#ONLY_ONE_END)" d="M214.92544109093046,388.55078125L221.24646132577539,396.8841145833333C227.5674815606203,405.2174479166667,240.20952203031015,421.8841145833333,286.4048912234884,441.8100181382897C332.6002604166667,461.7359216932461,412.3489583333333,484.92106213649214,452.2233072916667,496.5136323581152L492.09765625,508.1062025797382" class="er relationshipLine"/><path style="stroke: gray; fill: none;" marker-start="url(#ZERO_OR_MORE_START)" marker-end="url(#ONLY_ONE_END)" d="M97.3125,99.2294921875L97.3125,109.40380859375C97.3125,119.578125,97.3125,139.9267578125,100.3071353914433,158.43440755208334C103.30177078288659,176.94205729166666,109.29104156577318,193.60872395833334,112.28567695721648,201.94205729166666L115.28031234865978,210.275390625" class="er relationshipLine"/><path style="stroke: gray; fill: none;" marker-start="url(#ZERO_OR_MORE_START)" marker-end="url(#ONLY_ONE_END)" d="M433.578125,333.458984375L433.578125,350.9742838541667C433.578125,368.4895833333333,433.578125,403.5201822916667,444.3321992461193,429.3688151041667C455.0862734922386,455.2174479166667,476.59442198447715,471.8841145833333,487.3484962305965,480.2174479166667L498.1025704767158,488.55078125" class="er relationshipLine"/><path style="stroke: gray; fill: none;" marker-start="url(#ZERO_OR_MORE_START)" marker-end="url(#ONLY_ONE_END)" d="M395.6899899983063,88.18359375L402.0046791652553,100.19889322916667C408.31936833220425,112.21419270833333,420.9487466661021,136.24479166666666,427.26343583305106,165.775390625C433.578125,195.30598958333334,433.578125,230.33658854166666,433.578125,247.85188802083334L433.578125,265.3671875" class="er relationshipLine"/><path style="stroke: gray; fill: none;" marker-start="url(#ZERO_OR_MORE_START)" marker-end="url(#ONLY_ONE_END)" d="M351.91127546614695,88.18359375L335.40132330512245,100.19889322916667C318.89137114409795,112.21419270833333,285.87146682204894,136.24479166666666,263.0404944261796,156.59342447916666C240.20952203031015,176.94205729166666,227.5674815606203,193.60872395833334,221.24646132577539,201.94205729166666L214.92544109093046,210.275390625" class="er relationshipLine"/><path style="stroke: gray; fill: none;" marker-start="url(#ZERO_OR_MORE_START)" marker-end="url(#ONLY_ONE_END)" d="M650.6171875,333.5048828125L650.6171875,351.0125325520833C650.6171875,368.5201822916667,650.6171875,403.5354817708333,639.8631132538807,429.37646484375C629.1090390077615,455.2174479166667,607.6008905155228,471.8841145833333,596.8468162694035,480.2174479166667L586.0927420232841,488.55078125" class="er relationshipLine"/><path style="stroke: gray; fill: none;" marker-start="url(#ZERO_OR_ONE_START)" marker-end="url(#ONLY_ONE_END)" d="M865.59375,377.6884765625L865.59375,387.8321940104167C865.59375,397.9759114583333,865.59375,418.2633463541667,820.0110677083334,440.2561393685128C774.4283854166666,462.24893238285887,683.2630208333334,485.9470835157178,637.6803385416666,497.7961590821472L592.09765625,509.64523464857666" class="er relationshipLine"/><g transform="translate(20,488.642578125 )" id="entity-HabitType-3d28fe18-bba4-41db-842a-ed0c2958f229"><rect height="68" width="154.625" y="0" x="0" class="er entityBox"/><text style="dominant-baseline: middle; text-anchor: middle; font-size: 12px;" transform="translate(77.3125,12)" y="0" x="0" id="text-entity-HabitType-3d28fe18-bba4-41db-842a-ed0c2958f229" class="er entityLabel">HabitType</text><rect height="22" width="77.3125" y="24" x="0" class="er attributeBoxOdd"/><text style="dominant-baseline: middle; font-size: 10.2px;" transform="translate(5,35)" y="0" x="0" id="text-entity-HabitType-3d28fe18-bba4-41db-842a-ed0c2958f229-attr-1-type" class="er entityLabel">SPECIFIC_DATE</text><rect height="22" width="77.3125" y="24" x="77.3125" class="er attributeBoxOdd"/><text style="dominant-baseline: middle; font-size: 10.2px;" transform="translate(82.3125,35)" y="0" x="0" id="text-entity-HabitType-3d28fe18-bba4-41db-842a-ed0c2958f229-attr-1-name" class="er entityLabel">SPECIFIC_DATE</text><rect height="22" width="77.3125" y="46" x="0" class="er attributeBoxEven"/><text style="dominant-baseline: middle; font-size: 10.2px;" transform="translate(5,57)" y="0" x="0" id="text-entity-HabitType-3d28fe18-bba4-41db-842a-ed0c2958f229-attr-2-type" class="er entityLabel">WEEKLY</text><rect height="22" width="77.3125" y="46" x="77.3125" class="er attributeBoxEven"/><text style="dominant-baseline: middle; font-size: 10.2px;" transform="translate(82.3125,57)" y="0" x="0" id="text-entity-HabitType-3d28fe18-bba4-41db-842a-ed0c2958f229-attr-2-name" class="er entityLabel">WEEKLY</text></g><g transform="translate(38.8046875,210.275390625 )" id="entity-habits-b3dec204-7b73-46d2-9955-8f35c1aeb10b"><rect height="178.275390625" width="217.015625" y="0" x="0" class="er entityBox"/><text style="dominant-baseline: middle; text-anchor: middle; font-size: 12px;" transform="translate(108.5078125,12)" y="0" x="0" id="text-entity-habits-b3dec204-7b73-46d2-9955-8f35c1aeb10b" class="er entityLabel">habits</text><rect height="22.091796875" width="55.703125" y="24" x="0" class="er attributeBoxOdd"/><text style="dominant-baseline: middle; font-size: 10.2px;" transform="translate(5,35.0458984375)" y="0" x="0" id="text-entity-habits-b3dec204-7b73-46d2-9955-8f35c1aeb10b-attr-1-type" class="er entityLabel">String</text><rect height="22.091796875" width="92.96875" y="24" x="55.703125" class="er attributeBoxOdd"/><text style="dominant-baseline: middle; font-size: 10.2px;" transform="translate(60.703125,35.0458984375)" y="0" x="0" id="text-entity-habits-b3dec204-7b73-46d2-9955-8f35c1aeb10b-attr-1-name" class="er entityLabel">id</text><rect height="22.091796875" width="21.5625" y="24" x="148.671875" class="er attributeBoxOdd"/><text style="dominant-baseline: middle; font-size: 10.2px;" transform="translate(153.671875,35.0458984375)" y="0" x="0" id="text-entity-habits-b3dec204-7b73-46d2-9955-8f35c1aeb10b-attr-1-key" class="er entityLabel">PK</text><rect height="22.091796875" width="46.78125" y="24" x="170.234375" class="er attributeBoxOdd"/><text style="dominant-baseline: middle; font-size: 10.2px;" transform="translate(175.234375,35.0458984375)" y="0" x="0" id="text-entity-habits-b3dec204-7b73-46d2-9955-8f35c1aeb10b-attr-1-comment" class="er entityLabel"/><rect height="22.091796875" width="55.703125" y="46.091796875" x="0" class="er attributeBoxEven"/><text style="dominant-baseline: middle; font-size: 10.2px;" transform="translate(5,57.1376953125)" y="0" x="0" id="text-entity-habits-b3dec204-7b73-46d2-9955-8f35c1aeb10b-attr-2-type" class="er entityLabel">String</text><rect height="22.091796875" width="92.96875" y="46.091796875" x="55.703125" class="er attributeBoxEven"/><text style="dominant-baseline: middle; font-size: 10.2px;" transform="translate(60.703125,57.1376953125)" y="0" x="0" id="text-entity-habits-b3dec204-7b73-46d2-9955-8f35c1aeb10b-attr-2-name" class="er entityLabel">title</text><rect height="22.091796875" width="21.5625" y="46.091796875" x="148.671875" class="er attributeBoxEven"/><text style="dominant-baseline: middle; font-size: 10.2px;" transform="translate(153.671875,57.1376953125)" y="0" x="0" id="text-entity-habits-b3dec204-7b73-46d2-9955-8f35c1aeb10b-attr-2-key" class="er entityLabel"/><rect height="22.091796875" width="46.78125" y="46.091796875" x="170.234375" class="er attributeBoxEven"/><text style="dominant-baseline: middle; font-size: 10.2px;" transform="translate(175.234375,57.1376953125)" y="0" x="0" id="text-entity-habits-b3dec204-7b73-46d2-9955-8f35c1aeb10b-attr-2-comment" class="er entityLabel"/><rect height="22" width="55.703125" y="68.18359375" x="0" class="er attributeBoxOdd"/><text style="dominant-baseline: middle; font-size: 10.2px;" transform="translate(5,79.18359375)" y="0" x="0" id="text-entity-habits-b3dec204-7b73-46d2-9955-8f35c1aeb10b-attr-3-type" class="er entityLabel">DateTime</text><rect height="22" width="92.96875" y="68.18359375" x="55.703125" class="er attributeBoxOdd"/><text style="dominant-baseline: middle; font-size: 10.2px;" transform="translate(60.703125,79.18359375)" y="0" x="0" id="text-entity-habits-b3dec204-7b73-46d2-9955-8f35c1aeb10b-attr-3-name" class="er entityLabel">created_at</text><rect height="22" width="21.5625" y="68.18359375" x="148.671875" class="er attributeBoxOdd"/><text style="dominant-baseline: middle; font-size: 10.2px;" transform="translate(153.671875,79.18359375)" y="0" x="0" id="text-entity-habits-b3dec204-7b73-46d2-9955-8f35c1aeb10b-attr-3-key" class="er entityLabel"/><rect height="22" width="46.78125" y="68.18359375" x="170.234375" class="er attributeBoxOdd"/><text style="dominant-baseline: middle; font-size: 10.2px;" transform="translate(175.234375,79.18359375)" y="0" x="0" id="text-entity-habits-b3dec204-7b73-46d2-9955-8f35c1aeb10b-attr-3-comment" class="er entityLabel"/><rect height="22" width="55.703125" y="90.18359375" x="0" class="er attributeBoxEven"/><text style="dominant-baseline: middle; font-size: 10.2px;" transform="translate(5,101.18359375)" y="0" x="0" id="text-entity-habits-b3dec204-7b73-46d2-9955-8f35c1aeb10b-attr-4-type" class="er entityLabel">DateTime</text><rect height="22" width="92.96875" y="90.18359375" x="55.703125" class="er attributeBoxEven"/><text style="dominant-baseline: middle; font-size: 10.2px;" transform="translate(60.703125,101.18359375)" y="0" x="0" id="text-entity-habits-b3dec204-7b73-46d2-9955-8f35c1aeb10b-attr-4-name" class="er entityLabel">deactivation_date</text><rect height="22" width="21.5625" y="90.18359375" x="148.671875" class="er attributeBoxEven"/><text style="dominant-baseline: middle; font-size: 10.2px;" transform="translate(153.671875,101.18359375)" y="0" x="0" id="text-entity-habits-b3dec204-7b73-46d2-9955-8f35c1aeb10b-attr-4-key" class="er entityLabel"/><rect height="22" width="46.78125" y="90.18359375" x="170.234375" class="er attributeBoxEven"/><text style="dominant-baseline: middle; font-size: 10.2px;" transform="translate(175.234375,101.18359375)" y="0" x="0" id="text-entity-habits-b3dec204-7b73-46d2-9955-8f35c1aeb10b-attr-4-comment" class="er entityLabel">nullable</text><rect height="22" width="55.703125" y="112.18359375" x="0" class="er attributeBoxOdd"/><text style="dominant-baseline: middle; font-size: 10.2px;" transform="translate(5,123.18359375)" y="0" x="0" id="text-entity-habits-b3dec204-7b73-46d2-9955-8f35c1aeb10b-attr-5-type" class="er entityLabel">DateTime</text><rect height="22" width="92.96875" y="112.18359375" x="55.703125" class="er attributeBoxOdd"/><text style="dominant-baseline: middle; font-size: 10.2px;" transform="translate(60.703125,123.18359375)" y="0" x="0" id="text-entity-habits-b3dec204-7b73-46d2-9955-8f35c1aeb10b-attr-5-name" class="er entityLabel">activation_date</text><rect height="22" width="21.5625" y="112.18359375" x="148.671875" class="er attributeBoxOdd"/><text style="dominant-baseline: middle; font-size: 10.2px;" transform="translate(153.671875,123.18359375)" y="0" x="0" id="text-entity-habits-b3dec204-7b73-46d2-9955-8f35c1aeb10b-attr-5-key" class="er entityLabel"/><rect height="22" width="46.78125" y="112.18359375" x="170.234375" class="er attributeBoxOdd"/><text style="dominant-baseline: middle; font-size: 10.2px;" transform="translate(175.234375,123.18359375)" y="0" x="0" id="text-entity-habits-b3dec204-7b73-46d2-9955-8f35c1aeb10b-attr-5-comment" class="er entityLabel">nullable</text><rect height="22.091796875" width="55.703125" y="134.18359375" x="0" class="er attributeBoxEven"/><text style="dominant-baseline: middle; font-size: 10.2px;" transform="translate(5,145.2294921875)" y="0" x="0" id="text-entity-habits-b3dec204-7b73-46d2-9955-8f35c1aeb10b-attr-6-type" class="er entityLabel">HabitType</text><rect height="22.091796875" width="92.96875" y="134.18359375" x="55.703125" class="er attributeBoxEven"/><text style="dominant-baseline: middle; font-size: 10.2px;" transform="translate(60.703125,145.2294921875)" y="0" x="0" id="text-entity-habits-b3dec204-7b73-46d2-9955-8f35c1aeb10b-attr-6-name" class="er entityLabel">type</text><rect height="22.091796875" width="21.5625" y="134.18359375" x="148.671875" class="er attributeBoxEven"/><text style="dominant-baseline: middle; font-size: 10.2px;" transform="translate(153.671875,145.2294921875)" y="0" x="0" id="text-entity-habits-b3dec204-7b73-46d2-9955-8f35c1aeb10b-attr-6-key" class="er entityLabel"/><rect height="22.091796875" width="46.78125" y="134.18359375" x="170.234375" class="er attributeBoxEven"/><text style="dominant-baseline: middle; font-size: 10.2px;" transform="translate(175.234375,145.2294921875)" y="0" x="0" id="text-entity-habits-b3dec204-7b73-46d2-9955-8f35c1aeb10b-attr-6-comment" class="er entityLabel"/><rect height="22" width="55.703125" y="156.275390625" x="0" class="er attributeBoxOdd"/><text style="dominant-baseline: middle; font-size: 10.2px;" transform="translate(5,167.275390625)" y="0" x="0" id="text-entity-habits-b3dec204-7b73-46d2-9955-8f35c1aeb10b-attr-7-type" class="er entityLabel">DateTime</text><rect height="22" width="92.96875" y="156.275390625" x="55.703125" class="er attributeBoxOdd"/><text style="dominant-baseline: middle; font-size: 10.2px;" transform="translate(60.703125,167.275390625)" y="0" x="0" id="text-entity-habits-b3dec204-7b73-46d2-9955-8f35c1aeb10b-attr-7-name" class="er entityLabel">habit_date</text><rect height="22" width="21.5625" y="156.275390625" x="148.671875" class="er attributeBoxOdd"/><text style="dominant-baseline: middle; font-size: 10.2px;" transform="translate(153.671875,167.275390625)" y="0" x="0" id="text-entity-habits-b3dec204-7b73-46d2-9955-8f35c1aeb10b-attr-7-key" class="er entityLabel"/><rect height="22" width="46.78125" y="156.275390625" x="170.234375" class="er attributeBoxOdd"/><text style="dominant-baseline: middle; font-size: 10.2px;" transform="translate(175.234375,167.275390625)" y="0" x="0" id="text-entity-habits-b3dec204-7b73-46d2-9955-8f35c1aeb10b-attr-7-comment" class="er entityLabel">nullable</text></g><g transform="translate(36.234375,31.0458984375 )" id="entity-habitweekdays-387ee101-0d6f-4cda-a13c-7db5b3e081c5"><rect height="68.18359375" width="122.15625" y="0" x="0" class="er entityBox"/><text style="dominant-baseline: middle; text-anchor: middle; font-size: 12px;" transform="translate(61.078125,12)" y="0" x="0" id="text-entity-habitweekdays-387ee101-0d6f-4cda-a13c-7db5b3e081c5" class="er entityLabel">habit_week_days</text><rect height="22.091796875" width="39.453125" y="24" x="0" class="er attributeBoxOdd"/><text style="dominant-baseline: middle; font-size: 10.2px;" transform="translate(5,35.0458984375)" y="0" x="0" id="text-entity-habitweekdays-387ee101-0d6f-4cda-a13c-7db5b3e081c5-attr-1-type" class="er entityLabel">String</text><rect height="22.091796875" width="58.21875" y="24" x="39.453125" class="er attributeBoxOdd"/><text style="dominant-baseline: middle; font-size: 10.2px;" transform="translate(44.453125,35.0458984375)" y="0" x="0" id="text-entity-habitweekdays-387ee101-0d6f-4cda-a13c-7db5b3e081c5-attr-1-name" class="er entityLabel">id</text><rect height="22.091796875" width="24.484375" y="24" x="97.671875" class="er attributeBoxOdd"/><text style="dominant-baseline: middle; font-size: 10.2px;" transform="translate(102.671875,35.0458984375)" y="0" x="0" id="text-entity-habitweekdays-387ee101-0d6f-4cda-a13c-7db5b3e081c5-attr-1-key" class="er entityLabel">PK</text><rect height="22.091796875" width="39.453125" y="46.091796875" x="0" class="er attributeBoxEven"/><text style="dominant-baseline: middle; font-size: 10.2px;" transform="translate(5,57.1376953125)" y="0" x="0" id="text-entity-habitweekdays-387ee101-0d6f-4cda-a13c-7db5b3e081c5-attr-2-type" class="er entityLabel">Int</text><rect height="22.091796875" width="58.21875" y="46.091796875" x="39.453125" class="er attributeBoxEven"/><text style="dominant-baseline: middle; font-size: 10.2px;" transform="translate(44.453125,57.1376953125)" y="0" x="0" id="text-entity-habitweekdays-387ee101-0d6f-4cda-a13c-7db5b3e081c5-attr-2-name" class="er entityLabel">week_day</text><rect height="22.091796875" width="24.484375" y="46.091796875" x="97.671875" class="er attributeBoxEven"/><text style="dominant-baseline: middle; font-size: 10.2px;" transform="translate(102.671875,57.1376953125)" y="0" x="0" id="text-entity-habitweekdays-387ee101-0d6f-4cda-a13c-7db5b3e081c5-attr-2-key" class="er entityLabel"/></g><g transform="translate(380.6328125,265.3671875 )" id="entity-days-7ee7314e-ef9a-4927-9b2c-7ae72f1be601"><rect height="68.091796875" width="105.890625" y="0" x="0" class="er entityBox"/><text style="dominant-baseline: middle; text-anchor: middle; font-size: 12px;" transform="translate(52.9453125,12)" y="0" x="0" id="text-entity-days-7ee7314e-ef9a-4927-9b2c-7ae72f1be601" class="er entityLabel">days</text><rect height="22.091796875" width="53.671875" y="24" x="0" class="er attributeBoxOdd"/><text style="dominant-baseline: middle; font-size: 10.2px;" transform="translate(5,35.0458984375)" y="0" x="0" id="text-entity-days-7ee7314e-ef9a-4927-9b2c-7ae72f1be601-attr-1-type" class="er entityLabel">String</text><rect height="22.091796875" width="30.65625" y="24" x="53.671875" class="er attributeBoxOdd"/><text style="dominant-baseline: middle; font-size: 10.2px;" transform="translate(58.671875,35.0458984375)" y="0" x="0" id="text-entity-days-7ee7314e-ef9a-4927-9b2c-7ae72f1be601-attr-1-name" class="er entityLabel">id</text><rect height="22.091796875" width="21.5625" y="24" x="84.328125" class="er attributeBoxOdd"/><text style="dominant-baseline: middle; font-size: 10.2px;" transform="translate(89.328125,35.0458984375)" y="0" x="0" id="text-entity-days-7ee7314e-ef9a-4927-9b2c-7ae72f1be601-attr-1-key" class="er entityLabel">PK</text><rect height="22" width="53.671875" y="46.091796875" x="0" class="er attributeBoxEven"/><text style="dominant-baseline: middle; font-size: 10.2px;" transform="translate(5,57.091796875)" y="0" x="0" id="text-entity-days-7ee7314e-ef9a-4927-9b2c-7ae72f1be601-attr-2-type" class="er entityLabel">DateTime</text><rect height="22" width="30.65625" y="46.091796875" x="53.671875" class="er attributeBoxEven"/><text style="dominant-baseline: middle; font-size: 10.2px;" transform="translate(58.671875,57.091796875)" y="0" x="0" id="text-entity-days-7ee7314e-ef9a-4927-9b2c-7ae72f1be601-attr-2-name" class="er entityLabel">date</text><rect height="22" width="21.5625" y="46.091796875" x="84.328125" class="er attributeBoxEven"/><text style="dominant-baseline: middle; font-size: 10.2px;" transform="translate(89.328125,57.091796875)" y="0" x="0" id="text-entity-days-7ee7314e-ef9a-4927-9b2c-7ae72f1be601-attr-2-key" class="er entityLabel"/></g><g transform="translate(333.578125,42.091796875 )" id="entity-dayhabits-71f6d035-eac9-43f5-b85e-c02be7851140"><rect height="46.091796875" width="100" y="0" x="0" class="er entityBox"/><text style="dominant-baseline: middle; text-anchor: middle; font-size: 12px;" transform="translate(50,12)" y="0" x="0" id="text-entity-dayhabits-71f6d035-eac9-43f5-b85e-c02be7851140" class="er entityLabel">day_habits</text><rect height="22.091796875" width="44.302083333333336" y="24" x="0" class="er attributeBoxOdd"/><text style="dominant-baseline: middle; font-size: 10.2px;" transform="translate(5,35.0458984375)" y="0" x="0" id="text-entity-dayhabits-71f6d035-eac9-43f5-b85e-c02be7851140-attr-1-type" class="er entityLabel">String</text><rect height="22.091796875" width="26.364583333333332" y="24" x="44.302083333333336" class="er attributeBoxOdd"/><text style="dominant-baseline: middle; font-size: 10.2px;" transform="translate(49.302083333333336,35.0458984375)" y="0" x="0" id="text-entity-dayhabits-71f6d035-eac9-43f5-b85e-c02be7851140-attr-1-name" class="er entityLabel">id</text><rect height="22.091796875" width="29.333333333333332" y="24" x="70.66666666666667" class="er attributeBoxOdd"/><text style="dominant-baseline: middle; font-size: 10.2px;" transform="translate(75.66666666666667,35.0458984375)" y="0" x="0" id="text-entity-dayhabits-71f6d035-eac9-43f5-b85e-c02be7851140-attr-1-key" class="er entityLabel">PK</text></g><g transform="translate(586.5234375,265.3212890625 )" id="entity-years-76953f41-f00c-4386-b914-998b6a045a4b"><rect height="68.18359375" width="128.1875" y="0" x="0" class="er entityBox"/><text style="dominant-baseline: middle; text-anchor: middle; font-size: 12px;" transform="translate(64.09375,12)" y="0" x="0" id="text-entity-years-76953f41-f00c-4386-b914-998b6a045a4b" class="er entityLabel">years</text><rect height="22.091796875" width="36.53125" y="24" x="0" class="er attributeBoxOdd"/><text style="dominant-baseline: middle; font-size: 10.2px;" transform="translate(5,35.0458984375)" y="0" x="0" id="text-entity-years-76953f41-f00c-4386-b914-998b6a045a4b-attr-1-type" class="er entityLabel">String</text><rect height="22.091796875" width="70.09375" y="24" x="36.53125" class="er attributeBoxOdd"/><text style="dominant-baseline: middle; font-size: 10.2px;" transform="translate(41.53125,35.0458984375)" y="0" x="0" id="text-entity-years-76953f41-f00c-4386-b914-998b6a045a4b-attr-1-name" class="er entityLabel">id</text><rect height="22.091796875" width="21.5625" y="24" x="106.625" class="er attributeBoxOdd"/><text style="dominant-baseline: middle; font-size: 10.2px;" transform="translate(111.625,35.0458984375)" y="0" x="0" id="text-entity-years-76953f41-f00c-4386-b914-998b6a045a4b-attr-1-key" class="er entityLabel">PK</text><rect height="22.091796875" width="36.53125" y="46.091796875" x="0" class="er attributeBoxEven"/><text style="dominant-baseline: middle; font-size: 10.2px;" transform="translate(5,57.1376953125)" y="0" x="0" id="text-entity-years-76953f41-f00c-4386-b914-998b6a045a4b-attr-2-type" class="er entityLabel">Int</text><rect height="22.091796875" width="70.09375" y="46.091796875" x="36.53125" class="er attributeBoxEven"/><text style="dominant-baseline: middle; font-size: 10.2px;" transform="translate(41.53125,57.1376953125)" y="0" x="0" id="text-entity-years-76953f41-f00c-4386-b914-998b6a045a4b-attr-2-name" class="er entityLabel">year_number</text><rect height="22.091796875" width="21.5625" y="46.091796875" x="106.625" class="er attributeBoxEven"/><text style="dominant-baseline: middle; font-size: 10.2px;" transform="translate(111.625,57.1376953125)" y="0" x="0" id="text-entity-years-76953f41-f00c-4386-b914-998b6a045a4b-attr-2-key" class="er entityLabel"/></g><g transform="translate(492.09765625,488.55078125 )" id="entity-users-8828e572-5a86-4275-9451-29df65316c5e"><rect height="68.18359375" width="100" y="0" x="0" class="er entityBox"/><text style="dominant-baseline: middle; text-anchor: middle; font-size: 12px;" transform="translate(50,12)" y="0" x="0" id="text-entity-users-8828e572-5a86-4275-9451-29df65316c5e" class="er entityLabel">users</text><rect height="22.091796875" width="38.729166666666664" y="24" x="0" class="er attributeBoxOdd"/><text style="dominant-baseline: middle; font-size: 10.2px;" transform="translate(5,35.0458984375)" y="0" x="0" id="text-entity-users-8828e572-5a86-4275-9451-29df65316c5e-attr-1-type" class="er entityLabel">String</text><rect height="22.091796875" width="37.510416666666664" y="24" x="38.729166666666664" class="er attributeBoxOdd"/><text style="dominant-baseline: middle; font-size: 10.2px;" transform="translate(43.729166666666664,35.0458984375)" y="0" x="0" id="text-entity-users-8828e572-5a86-4275-9451-29df65316c5e-attr-1-name" class="er entityLabel">id</text><rect height="22.091796875" width="23.760416666666668" y="24" x="76.23958333333333" class="er attributeBoxOdd"/><text style="dominant-baseline: middle; font-size: 10.2px;" transform="translate(81.23958333333333,35.0458984375)" y="0" x="0" id="text-entity-users-8828e572-5a86-4275-9451-29df65316c5e-attr-1-key" class="er entityLabel">PK</text><rect height="22.091796875" width="38.729166666666664" y="46.091796875" x="0" class="er attributeBoxEven"/><text style="dominant-baseline: middle; font-size: 10.2px;" transform="translate(5,57.1376953125)" y="0" x="0" id="text-entity-users-8828e572-5a86-4275-9451-29df65316c5e-attr-2-type" class="er entityLabel">String</text><rect height="22.091796875" width="37.510416666666664" y="46.091796875" x="38.729166666666664" class="er attributeBoxEven"/><text style="dominant-baseline: middle; font-size: 10.2px;" transform="translate(43.729166666666664,57.1376953125)" y="0" x="0" id="text-entity-users-8828e572-5a86-4275-9451-29df65316c5e-attr-2-name" class="er entityLabel">email</text><rect height="22.091796875" width="23.760416666666668" y="46.091796875" x="76.23958333333333" class="er attributeBoxEven"/><text style="dominant-baseline: middle; font-size: 10.2px;" transform="translate(81.23958333333333,57.1376953125)" y="0" x="0" id="text-entity-users-8828e572-5a86-4275-9451-29df65316c5e-attr-2-key" class="er entityLabel"/></g><g transform="translate(533.578125,20 )" id="entity-NotificationToken-96a047bb-9bbc-499f-893f-85c0e96e00fd"><rect height="90.275390625" width="124.625" y="0" x="0" class="er entityBox"/><text style="dominant-baseline: middle; text-anchor: middle; font-size: 12px;" transform="translate(62.3125,12)" y="0" x="0" id="text-entity-NotificationToken-96a047bb-9bbc-499f-893f-85c0e96e00fd" class="er entityLabel">NotificationToken</text><rect height="22.091796875" width="44.317708333333336" y="24" x="0" class="er attributeBoxOdd"/><text style="dominant-baseline: middle; font-size: 10.2px;" transform="translate(5,35.0458984375)" y="0" x="0" id="text-entity-NotificationToken-96a047bb-9bbc-499f-893f-85c0e96e00fd-attr-1-type" class="er entityLabel">String</text><rect height="22.091796875" width="50.958333333333336" y="24" x="44.317708333333336" class="er attributeBoxOdd"/><text style="dominant-baseline: middle; font-size: 10.2px;" transform="translate(49.317708333333336,35.0458984375)" y="0" x="0" id="text-entity-NotificationToken-96a047bb-9bbc-499f-893f-85c0e96e00fd-attr-1-name" class="er entityLabel">id</text><rect height="22.091796875" width="29.348958333333332" y="24" x="95.27604166666667" class="er attributeBoxOdd"/><text style="dominant-baseline: middle; font-size: 10.2px;" transform="translate(100.27604166666667,35.0458984375)" y="0" x="0" id="text-entity-NotificationToken-96a047bb-9bbc-499f-893f-85c0e96e00fd-attr-1-key" class="er entityLabel">PK</text><rect height="22.091796875" width="44.317708333333336" y="46.091796875" x="0" class="er attributeBoxEven"/><text style="dominant-baseline: middle; font-size: 10.2px;" transform="translate(5,57.1376953125)" y="0" x="0" id="text-entity-NotificationToken-96a047bb-9bbc-499f-893f-85c0e96e00fd-attr-2-type" class="er entityLabel">String</text><rect height="22.091796875" width="50.958333333333336" y="46.091796875" x="44.317708333333336" class="er attributeBoxEven"/><text style="dominant-baseline: middle; font-size: 10.2px;" transform="translate(49.317708333333336,57.1376953125)" y="0" x="0" id="text-entity-NotificationToken-96a047bb-9bbc-499f-893f-85c0e96e00fd-attr-2-name" class="er entityLabel">token</text><rect height="22.091796875" width="29.348958333333332" y="46.091796875" x="95.27604166666667" class="er attributeBoxEven"/><text style="dominant-baseline: middle; font-size: 10.2px;" transform="translate(100.27604166666667,57.1376953125)" y="0" x="0" id="text-entity-NotificationToken-96a047bb-9bbc-499f-893f-85c0e96e00fd-attr-2-key" class="er entityLabel"/><rect height="22.091796875" width="44.317708333333336" y="68.18359375" x="0" class="er attributeBoxOdd"/><text style="dominant-baseline: middle; font-size: 10.2px;" transform="translate(5,79.2294921875)" y="0" x="0" id="text-entity-NotificationToken-96a047bb-9bbc-499f-893f-85c0e96e00fd-attr-3-type" class="er entityLabel">String</text><rect height="22.091796875" width="50.958333333333336" y="68.18359375" x="44.317708333333336" class="er attributeBoxOdd"/><text style="dominant-baseline: middle; font-size: 10.2px;" transform="translate(49.317708333333336,79.2294921875)" y="0" x="0" id="text-entity-NotificationToken-96a047bb-9bbc-499f-893f-85c0e96e00fd-attr-3-name" class="er entityLabel">user_id</text><rect height="22.091796875" width="29.348958333333332" y="68.18359375" x="95.27604166666667" class="er attributeBoxOdd"/><text style="dominant-baseline: middle; font-size: 10.2px;" transform="translate(100.27604166666667,79.2294921875)" y="0" x="0" id="text-entity-NotificationToken-96a047bb-9bbc-499f-893f-85c0e96e00fd-attr-3-key" class="er entityLabel"/></g><g transform="translate(814.7109375,221.1376953125 )" id="entity-colors-729bded5-f49b-46ef-8b78-fa9aea565f03"><rect height="156.55078125" width="101.765625" y="0" x="0" class="er entityBox"/><text style="dominant-baseline: middle; text-anchor: middle; font-size: 12px;" transform="translate(50.8828125,12)" y="0" x="0" id="text-entity-colors-729bded5-f49b-46ef-8b78-fa9aea565f03" class="er entityLabel">colors</text><rect height="22.091796875" width="36.53125" y="24" x="0" class="er attributeBoxOdd"/><text style="dominant-baseline: middle; font-size: 10.2px;" transform="translate(5,35.0458984375)" y="0" x="0" id="text-entity-colors-729bded5-f49b-46ef-8b78-fa9aea565f03-attr-1-type" class="er entityLabel">String</text><rect height="22.091796875" width="43.671875" y="24" x="36.53125" class="er attributeBoxOdd"/><text style="dominant-baseline: middle; font-size: 10.2px;" transform="translate(41.53125,35.0458984375)" y="0" x="0" id="text-entity-colors-729bded5-f49b-46ef-8b78-fa9aea565f03-attr-1-name" class="er entityLabel">id</text><rect height="22.091796875" width="21.5625" y="24" x="80.203125" class="er attributeBoxOdd"/><text style="dominant-baseline: middle; font-size: 10.2px;" transform="translate(85.203125,35.0458984375)" y="0" x="0" id="text-entity-colors-729bded5-f49b-46ef-8b78-fa9aea565f03-attr-1-key" class="er entityLabel">PK</text><rect height="22.091796875" width="36.53125" y="46.091796875" x="0" class="er attributeBoxEven"/><text style="dominant-baseline: middle; font-size: 10.2px;" transform="translate(5,57.1376953125)" y="0" x="0" id="text-entity-colors-729bded5-f49b-46ef-8b78-fa9aea565f03-attr-2-type" class="er entityLabel">String</text><rect height="22.091796875" width="43.671875" y="46.091796875" x="36.53125" class="er attributeBoxEven"/><text style="dominant-baseline: middle; font-size: 10.2px;" transform="translate(41.53125,57.1376953125)" y="0" x="0" id="text-entity-colors-729bded5-f49b-46ef-8b78-fa9aea565f03-attr-2-name" class="er entityLabel">color_1</text><rect height="22.091796875" width="21.5625" y="46.091796875" x="80.203125" class="er attributeBoxEven"/><text style="dominant-baseline: middle; font-size: 10.2px;" transform="translate(85.203125,57.1376953125)" y="0" x="0" id="text-entity-colors-729bded5-f49b-46ef-8b78-fa9aea565f03-attr-2-key" class="er entityLabel"/><rect height="22.091796875" width="36.53125" y="68.18359375" x="0" class="er attributeBoxOdd"/><text style="dominant-baseline: middle; font-size: 10.2px;" transform="translate(5,79.2294921875)" y="0" x="0" id="text-entity-colors-729bded5-f49b-46ef-8b78-fa9aea565f03-attr-3-type" class="er entityLabel">String</text><rect height="22.091796875" width="43.671875" y="68.18359375" x="36.53125" class="er attributeBoxOdd"/><text style="dominant-baseline: middle; font-size: 10.2px;" transform="translate(41.53125,79.2294921875)" y="0" x="0" id="text-entity-colors-729bded5-f49b-46ef-8b78-fa9aea565f03-attr-3-name" class="er entityLabel">color_2</text><rect height="22.091796875" width="21.5625" y="68.18359375" x="80.203125" class="er attributeBoxOdd"/><text style="dominant-baseline: middle; font-size: 10.2px;" transform="translate(85.203125,79.2294921875)" y="0" x="0" id="text-entity-colors-729bded5-f49b-46ef-8b78-fa9aea565f03-attr-3-key" class="er entityLabel"/><rect height="22.091796875" width="36.53125" y="90.275390625" x="0" class="er attributeBoxEven"/><text style="dominant-baseline: middle; font-size: 10.2px;" transform="translate(5,101.3212890625)" y="0" x="0" id="text-entity-colors-729bded5-f49b-46ef-8b78-fa9aea565f03-attr-4-type" class="er entityLabel">String</text><rect height="22.091796875" width="43.671875" y="90.275390625" x="36.53125" class="er attributeBoxEven"/><text style="dominant-baseline: middle; font-size: 10.2px;" transform="translate(41.53125,101.3212890625)" y="0" x="0" id="text-entity-colors-729bded5-f49b-46ef-8b78-fa9aea565f03-attr-4-name" class="er entityLabel">color_3</text><rect height="22.091796875" width="21.5625" y="90.275390625" x="80.203125" class="er attributeBoxEven"/><text style="dominant-baseline: middle; font-size: 10.2px;" transform="translate(85.203125,101.3212890625)" y="0" x="0" id="text-entity-colors-729bded5-f49b-46ef-8b78-fa9aea565f03-attr-4-key" class="er entityLabel"/><rect height="22.091796875" width="36.53125" y="112.3671875" x="0" class="er attributeBoxOdd"/><text style="dominant-baseline: middle; font-size: 10.2px;" transform="translate(5,123.4130859375)" y="0" x="0" id="text-entity-colors-729bded5-f49b-46ef-8b78-fa9aea565f03-attr-5-type" class="er entityLabel">String</text><rect height="22.091796875" width="43.671875" y="112.3671875" x="36.53125" class="er attributeBoxOdd"/><text style="dominant-baseline: middle; font-size: 10.2px;" transform="translate(41.53125,123.4130859375)" y="0" x="0" id="text-entity-colors-729bded5-f49b-46ef-8b78-fa9aea565f03-attr-5-name" class="er entityLabel">color_4</text><rect height="22.091796875" width="21.5625" y="112.3671875" x="80.203125" class="er attributeBoxOdd"/><text style="dominant-baseline: middle; font-size: 10.2px;" transform="translate(85.203125,123.4130859375)" y="0" x="0" id="text-entity-colors-729bded5-f49b-46ef-8b78-fa9aea565f03-attr-5-key" class="er entityLabel"/><rect height="22.091796875" width="36.53125" y="134.458984375" x="0" class="er attributeBoxEven"/><text style="dominant-baseline: middle; font-size: 10.2px;" transform="translate(5,145.5048828125)" y="0" x="0" id="text-entity-colors-729bded5-f49b-46ef-8b78-fa9aea565f03-attr-6-type" class="er entityLabel">String</text><rect height="22.091796875" width="43.671875" y="134.458984375" x="36.53125" class="er attributeBoxEven"/><text style="dominant-baseline: middle; font-size: 10.2px;" transform="translate(41.53125,145.5048828125)" y="0" x="0" id="text-entity-colors-729bded5-f49b-46ef-8b78-fa9aea565f03-attr-6-name" class="er entityLabel">color_5</text><rect height="22.091796875" width="21.5625" y="134.458984375" x="80.203125" class="er attributeBoxEven"/><text style="dominant-baseline: middle; font-size: 10.2px;" transform="translate(85.203125,145.5048828125)" y="0" x="0" id="text-entity-colors-729bded5-f49b-46ef-8b78-fa9aea565f03-attr-6-key" class="er entityLabel"/></g><rect height="14" width="57.9375" y="430.5654296875" x="71.52200317382812" class="er relationshipLabelBox"/><text style="text-anchor: middle; dominant-baseline: middle; font-size: 12px;" y="437.5654296875" x="100.49075317382812" id="rel1" class="er relationshipLabel">enum:type</text><rect height="14" width="22.625" y="456.6968994140625" x="333.98504638671875" class="er relationshipLabelBox"/><text style="text-anchor: middle; dominant-baseline: middle; font-size: 12px;" y="463.6968994140625" x="345.29754638671875" id="rel2" class="er relationshipLabel">user</text><rect height="14" width="27.734375" y="148.8150177001953" x="86.03740692138672" class="er relationshipLabelBox"/><text style="text-anchor: middle; dominant-baseline: middle; font-size: 12px;" y="155.8150177001953" x="99.90459442138672" id="rel3" class="er relationshipLabel">habit</text><rect height="14" width="22.625" y="414.79779052734375" x="430.2439270019531" class="er relationshipLabelBox"/><text style="text-anchor: middle; dominant-baseline: middle; font-size: 12px;" y="421.79779052734375" x="441.5564270019531" id="rel4" class="er relationshipLabel">user</text><rect height="14" width="18.921875" y="166.58258056640625" x="419.30950927734375" class="er relationshipLabelBox"/><text style="text-anchor: middle; dominant-baseline: middle; font-size: 12px;" y="173.58258056640625" x="428.77044677734375" id="rel5" class="er relationshipLabel">day</text><rect height="14" width="27.734375" y="136.6504364013672" x="264.39111328125" class="er relationshipLabelBox"/><text style="text-anchor: middle; dominant-baseline: middle; font-size: 12px;" y="143.6504364013672" x="278.25830078125" id="rel6" class="er relationshipLabel">habit</text><rect height="14" width="22.625" y="414.82073974609375" x="631.3223266601562" class="er relationshipLabelBox"/><text style="text-anchor: middle; dominant-baseline: middle; font-size: 12px;" y="421.82073974609375" x="642.6348266601562" id="rel7" class="er relationshipLabel">user</text><rect height="14" width="22.625" y="460.1217956542969" x="736.282470703125" class="er relationshipLabelBox"/><text style="text-anchor: middle; dominant-baseline: middle; font-size: 12px;" y="467.1217956542969" x="747.594970703125" id="rel8" class="er relationshipLabel">user</text></svg>