<svg aria-roledescription="er" viewBox="0 0 908.6622314453125 554" style="max-width: 908.662px; background-color: white;" xmlns:xlink="http://www.w3.org/1999/xlink" xmlns="http://www.w3.org/2000/svg" width="100%" id="mermaid-0"><style>#mermaid-0{font-family:"trebuchet ms",verdana,arial,sans-serif;font-size:16px;fill:#000000;}#mermaid-0 .error-icon{fill:#552222;}#mermaid-0 .error-text{fill:#552222;stroke:#552222;}#mermaid-0 .edge-thickness-normal{stroke-width:2px;}#mermaid-0 .edge-thickness-thick{stroke-width:3.5px;}#mermaid-0 .edge-pattern-solid{stroke-dasharray:0;}#mermaid-0 .edge-pattern-dashed{stroke-dasharray:3;}#mermaid-0 .edge-pattern-dotted{stroke-dasharray:2;}#mermaid-0 .marker{fill:#000000;stroke:#000000;}#mermaid-0 .marker.cross{stroke:#000000;}#mermaid-0 svg{font-family:"trebuchet ms",verdana,arial,sans-serif;font-size:16px;}#mermaid-0 .entityBox{fill:#cde498;stroke:#13540c;}#mermaid-0 .attributeBoxOdd{fill:#ffffff;stroke:#13540c;}#mermaid-0 .attributeBoxEven{fill:#f2f2f2;stroke:#13540c;}#mermaid-0 .relationshipLabelBox{fill:hsl(78.1578947368, 58.4615384615%, 84.5098039216%);opacity:0.7;background-color:hsl(78.1578947368, 58.4615384615%, 84.5098039216%);}#mermaid-0 .relationshipLabelBox rect{opacity:0.5;}#mermaid-0 .relationshipLine{stroke:#000000;}#mermaid-0 .entityTitleText{text-anchor:middle;font-size:18px;fill:#000000;}#mermaid-0 :root{--mermaid-font-family:"trebuchet ms",verdana,arial,sans-serif;}</style><g/><defs><marker orient="auto" markerHeight="18" markerWidth="18" refY="9" refX="0" id="ONLY_ONE_START"><path d="M9,0 L9,18 M15,0 L15,18" fill="none" stroke="gray"/></marker></defs><defs><marker orient="auto" markerHeight="18" markerWidth="18" refY="9" refX="18" id="ONLY_ONE_END"><path d="M3,0 L3,18 M9,0 L9,18" fill="none" stroke="gray"/></marker></defs><defs><marker orient="auto" markerHeight="18" markerWidth="30" refY="9" refX="0" id="ZERO_OR_ONE_START"><circle r="6" cy="9" cx="21" fill="white" stroke="gray"/><path d="M9,0 L9,18" fill="none" stroke="gray"/></marker></defs><defs><marker orient="auto" markerHeight="18" markerWidth="30" refY="9" refX="30" id="ZERO_OR_ONE_END"><circle r="6" cy="9" cx="9" fill="white" stroke="gray"/><path d="M21,0 L21,18" fill="none" stroke="gray"/></marker></defs><defs><marker orient="auto" markerHeight="36" markerWidth="45" refY="18" refX="18" id="ONE_OR_MORE_START"><path d="M0,18 Q 18,0 36,18 Q 18,36 0,18 M42,9 L42,27" fill="none" stroke="gray"/></marker></defs><defs><marker orient="auto" markerHeight="36" markerWidth="45" refY="18" refX="27" id="ONE_OR_MORE_END"><path d="M3,9 L3,27 M9,18 Q27,0 45,18 Q27,36 9,18" fill="none" stroke="gray"/></marker></defs><defs><marker orient="auto" markerHeight="36" markerWidth="57" refY="18" refX="18" id="ZERO_OR_MORE_START"><circle r="6" cy="18" cx="48" fill="white" stroke="gray"/><path d="M0,18 Q18,0 36,18 Q18,36 0,18" fill="none" stroke="gray"/></marker></defs><defs><marker orient="auto" markerHeight="36" markerWidth="57" refY="18" refX="39" id="ZERO_OR_MORE_END"><circle r="6" cy="18" cx="9" fill="white" stroke="gray"/><path d="M21,18 Q39,0 57,18 Q39,36 21,18" fill="none" stroke="gray"/></marker></defs><path style="stroke: gray; fill: none;" marker-start="url(#ZERO_OR_MORE_START)" marker-end="url(#ONLY_ONE_END)" d="M131.146484375,333L131.146484375,346.8333333333333C131.146484375,360.6666666666667,131.146484375,388.3333333333333,185.64472007751465,414.3098506033896C240.1429557800293,440.28636787344584,349.1394271850586,464.5727357468916,403.63766288757324,476.7159196836146L458.1358985900879,488.8591036203374" class="er relationshipLine"/><path style="stroke: gray; fill: none;" marker-start="url(#ZERO_OR_MORE_START)" marker-end="url(#ONLY_ONE_END)" d="M81.146484375,99L81.146484375,109.16666666666667C81.146484375,119.33333333333333,81.146484375,139.66666666666666,86.55013020833333,163.66666666666666C91.95377604166667,187.66666666666666,102.76106770833333,215.33333333333334,108.16471354166667,229.16666666666666L113.568359375,243" class="er relationshipLine"/><path style="stroke: gray; fill: none;" marker-start="url(#ZERO_OR_MORE_START)" marker-end="url(#ONLY_ONE_END)" d="M398.11649322509766,322L398.11649322509766,337.6666666666667C398.11649322509766,353.3333333333333,398.11649322509766,384.6666666666667,409.03111677321175,408.6666666666667C419.9457403213259,432.6666666666667,441.7749874175541,449.3333333333333,452.6896109656682,457.6666666666667L463.60423451378233,466" class="er relationshipLine"/><path style="stroke: gray; fill: none;" marker-start="url(#ZERO_OR_MORE_START)" marker-end="url(#ONLY_ONE_END)" d="M360.2217563829924,88L366.5375458566766,100C372.85333533036084,112,385.4849142777293,136,391.8007037514135,163.66666666666666C398.11649322509766,191.33333333333334,398.11649322509766,222.66666666666666,398.11649322509766,238.33333333333334L398.11649322509766,254" class="er relationshipLine"/><path style="stroke: gray; fill: none;" marker-start="url(#ZERO_OR_MORE_START)" marker-end="url(#ONLY_ONE_END)" d="M321.14674971731085,88L307.075579191509,100C293.0044086657072,112,264.86206761410364,136,239.38128888314228,161.83333333333334C213.900510152181,187.66666666666666,191.08129374186197,215.33333333333334,179.67168553670248,229.16666666666666L168.26207733154297,243" class="er relationshipLine"/><path style="stroke: gray; fill: none;" marker-start="url(#ZERO_OR_MORE_START)" marker-end="url(#ONLY_ONE_END)" d="M618.1553039550781,322L618.1553039550781,337.6666666666667C618.1553039550781,353.3333333333333,618.1553039550781,384.6666666666667,607.2406804069641,408.6666666666667C596.3260568588499,432.6666666666667,574.4968097626216,449.3333333333333,563.5821862145076,457.6666666666667L552.6675626663935,466" class="er relationshipLine"/><path style="stroke: gray; fill: none;" marker-start="url(#ZERO_OR_ONE_START)" marker-end="url(#ONLY_ONE_END)" d="M836.4609069824219,366L836.4609069824219,374.3333333333333C836.4609069824219,382.6666666666667,836.4609069824219,399.3333333333333,790.0734055836996,419.534632913199C743.6859041849772,439.7359324930647,650.9109013875326,463.47186498612945,604.5233999888102,475.33983123266177L558.1358985900879,487.2077974791942" class="er relationshipLine"/><g transform="translate(62.2874755859375,243 )" id="entity-habits-dba35ffb-9d61-4740-83e6-d1c257a8c9e2"><rect height="90" width="137.718017578125" y="0" x="0" class="er entityBox"/><text style="dominant-baseline: middle; text-anchor: middle; font-size: 12px;" transform="translate(68.8590087890625,12)" y="0" x="0" id="text-entity-habits-dba35ffb-9d61-4740-83e6-d1c257a8c9e2" class="er entityLabel">habits</text><rect height="22" width="54.095550537109375" y="24" x="0" class="er attributeBoxOdd"/><text style="dominant-baseline: middle; font-size: 10.2px;" transform="translate(5,35)" y="0" x="0" id="text-entity-habits-dba35ffb-9d61-4740-83e6-d1c257a8c9e2-attr-1-type" class="er entityLabel">String</text><rect height="22" width="60.934783935546875" y="24" x="54.095550537109375" class="er attributeBoxOdd"/><text style="dominant-baseline: middle; font-size: 10.2px;" transform="translate(59.095550537109375,35)" y="0" x="0" id="text-entity-habits-dba35ffb-9d61-4740-83e6-d1c257a8c9e2-attr-1-name" class="er entityLabel">id</text><rect height="22" width="22.68768310546875" y="24" x="115.03033447265625" class="er attributeBoxOdd"/><text style="dominant-baseline: middle; font-size: 10.2px;" transform="translate(120.03033447265625,35)" y="0" x="0" id="text-entity-habits-dba35ffb-9d61-4740-83e6-d1c257a8c9e2-attr-1-key" class="er entityLabel">PK</text><rect height="22" width="54.095550537109375" y="46" x="0" class="er attributeBoxEven"/><text style="dominant-baseline: middle; font-size: 10.2px;" transform="translate(5,57)" y="0" x="0" id="text-entity-habits-dba35ffb-9d61-4740-83e6-d1c257a8c9e2-attr-2-type" class="er entityLabel">String</text><rect height="22" width="60.934783935546875" y="46" x="54.095550537109375" class="er attributeBoxEven"/><text style="dominant-baseline: middle; font-size: 10.2px;" transform="translate(59.095550537109375,57)" y="0" x="0" id="text-entity-habits-dba35ffb-9d61-4740-83e6-d1c257a8c9e2-attr-2-name" class="er entityLabel">title</text><rect height="22" width="22.68768310546875" y="46" x="115.03033447265625" class="er attributeBoxEven"/><text style="dominant-baseline: middle; font-size: 10.2px;" transform="translate(120.03033447265625,57)" y="0" x="0" id="text-entity-habits-dba35ffb-9d61-4740-83e6-d1c257a8c9e2-attr-2-key" class="er entityLabel"/><rect height="22" width="54.095550537109375" y="68" x="0" class="er attributeBoxOdd"/><text style="dominant-baseline: middle; font-size: 10.2px;" transform="translate(5,79)" y="0" x="0" id="text-entity-habits-dba35ffb-9d61-4740-83e6-d1c257a8c9e2-attr-3-type" class="er entityLabel">DateTime</text><rect height="22" width="60.934783935546875" y="68" x="54.095550537109375" class="er attributeBoxOdd"/><text style="dominant-baseline: middle; font-size: 10.2px;" transform="translate(59.095550537109375,79)" y="0" x="0" id="text-entity-habits-dba35ffb-9d61-4740-83e6-d1c257a8c9e2-attr-3-name" class="er entityLabel">created_at</text><rect height="22" width="22.68768310546875" y="68" x="115.03033447265625" class="er attributeBoxOdd"/><text style="dominant-baseline: middle; font-size: 10.2px;" transform="translate(120.03033447265625,79)" y="0" x="0" id="text-entity-habits-dba35ffb-9d61-4740-83e6-d1c257a8c9e2-attr-3-key" class="er entityLabel"/></g><g transform="translate(20,31 )" id="entity-habitweekdays-c976d06c-23f3-4621-b5d2-9e7dcfa10c0f"><rect height="68" width="122.29296875" y="0" x="0" class="er entityBox"/><text style="dominant-baseline: middle; text-anchor: middle; font-size: 12px;" transform="translate(61.146484375,12)" y="0" x="0" id="text-entity-habitweekdays-c976d06c-23f3-4621-b5d2-9e7dcfa10c0f" class="er entityLabel">habit_week_days</text><rect height="22" width="39.0484364827474" y="24" x="0" class="er attributeBoxOdd"/><text style="dominant-baseline: middle; font-size: 10.2px;" transform="translate(5,35)" y="0" x="0" id="text-entity-habitweekdays-c976d06c-23f3-4621-b5d2-9e7dcfa10c0f-attr-1-type" class="er entityLabel">String</text><rect height="22" width="58.90446980794271" y="24" x="39.0484364827474" class="er attributeBoxOdd"/><text style="dominant-baseline: middle; font-size: 10.2px;" transform="translate(44.0484364827474,35)" y="0" x="0" id="text-entity-habitweekdays-c976d06c-23f3-4621-b5d2-9e7dcfa10c0f-attr-1-name" class="er entityLabel">id</text><rect height="22" width="24.340062459309895" y="24" x="97.95290629069011" class="er attributeBoxOdd"/><text style="dominant-baseline: middle; font-size: 10.2px;" transform="translate(102.95290629069011,35)" y="0" x="0" id="text-entity-habitweekdays-c976d06c-23f3-4621-b5d2-9e7dcfa10c0f-attr-1-key" class="er entityLabel">PK</text><rect height="22" width="39.0484364827474" y="46" x="0" class="er attributeBoxEven"/><text style="dominant-baseline: middle; font-size: 10.2px;" transform="translate(5,57)" y="0" x="0" id="text-entity-habitweekdays-c976d06c-23f3-4621-b5d2-9e7dcfa10c0f-attr-2-type" class="er entityLabel">Int</text><rect height="22" width="58.90446980794271" y="46" x="39.0484364827474" class="er attributeBoxEven"/><text style="dominant-baseline: middle; font-size: 10.2px;" transform="translate(44.0484364827474,57)" y="0" x="0" id="text-entity-habitweekdays-c976d06c-23f3-4621-b5d2-9e7dcfa10c0f-attr-2-name" class="er entityLabel">week_day</text><rect height="22" width="24.340062459309895" y="46" x="97.95290629069011" class="er attributeBoxEven"/><text style="dominant-baseline: middle; font-size: 10.2px;" transform="translate(102.95290629069011,57)" y="0" x="0" id="text-entity-habitweekdays-c976d06c-23f3-4621-b5d2-9e7dcfa10c0f-attr-2-key" class="er entityLabel"/></g><g transform="translate(344.18196868896484,254 )" id="entity-days-b5155616-5b26-4129-a641-3febc8f896eb"><rect height="68" width="107.86904907226562" y="0" x="0" class="er entityBox"/><text style="dominant-baseline: middle; text-anchor: middle; font-size: 12px;" transform="translate(53.93452453613281,12)" y="0" x="0" id="text-entity-days-b5155616-5b26-4129-a641-3febc8f896eb" class="er entityLabel">days</text><rect height="22" width="54.095550537109375" y="24" x="0" class="er attributeBoxOdd"/><text style="dominant-baseline: middle; font-size: 10.2px;" transform="translate(5,35)" y="0" x="0" id="text-entity-days-b5155616-5b26-4129-a641-3febc8f896eb-attr-1-type" class="er entityLabel">String</text><rect height="22" width="31.0858154296875" y="24" x="54.095550537109375" class="er attributeBoxOdd"/><text style="dominant-baseline: middle; font-size: 10.2px;" transform="translate(59.095550537109375,35)" y="0" x="0" id="text-entity-days-b5155616-5b26-4129-a641-3febc8f896eb-attr-1-name" class="er entityLabel">id</text><rect height="22" width="22.68768310546875" y="24" x="85.18136596679688" class="er attributeBoxOdd"/><text style="dominant-baseline: middle; font-size: 10.2px;" transform="translate(90.18136596679688,35)" y="0" x="0" id="text-entity-days-b5155616-5b26-4129-a641-3febc8f896eb-attr-1-key" class="er entityLabel">PK</text><rect height="22" width="54.095550537109375" y="46" x="0" class="er attributeBoxEven"/><text style="dominant-baseline: middle; font-size: 10.2px;" transform="translate(5,57)" y="0" x="0" id="text-entity-days-b5155616-5b26-4129-a641-3febc8f896eb-attr-2-type" class="er entityLabel">DateTime</text><rect height="22" width="31.0858154296875" y="46" x="54.095550537109375" class="er attributeBoxEven"/><text style="dominant-baseline: middle; font-size: 10.2px;" transform="translate(59.095550537109375,57)" y="0" x="0" id="text-entity-days-b5155616-5b26-4129-a641-3febc8f896eb-attr-2-name" class="er entityLabel">date</text><rect height="22" width="22.68768310546875" y="46" x="85.18136596679688" class="er attributeBoxEven"/><text style="dominant-baseline: middle; font-size: 10.2px;" transform="translate(90.18136596679688,57)" y="0" x="0" id="text-entity-days-b5155616-5b26-4129-a641-3febc8f896eb-attr-2-key" class="er entityLabel"/></g><g transform="translate(298.11649322509766,42 )" id="entity-dayhabits-63383c9e-c6a2-4fc7-8fcc-f77264e122b4"><rect height="46" width="100" y="0" x="0" class="er entityBox"/><text style="dominant-baseline: middle; text-anchor: middle; font-size: 12px;" transform="translate(50,12)" y="0" x="0" id="text-entity-dayhabits-63383c9e-c6a2-4fc7-8fcc-f77264e122b4" class="er entityLabel">day_habits</text><rect height="22" width="44.39861551920573" y="24" x="0" class="er attributeBoxOdd"/><text style="dominant-baseline: middle; font-size: 10.2px;" transform="translate(5,35)" y="0" x="0" id="text-entity-dayhabits-63383c9e-c6a2-4fc7-8fcc-f77264e122b4-attr-1-type" class="er entityLabel">String</text><rect height="22" width="25.911142985026043" y="24" x="44.39861551920573" class="er attributeBoxOdd"/><text style="dominant-baseline: middle; font-size: 10.2px;" transform="translate(49.39861551920573,35)" y="0" x="0" id="text-entity-dayhabits-63383c9e-c6a2-4fc7-8fcc-f77264e122b4-attr-1-name" class="er entityLabel">id</text><rect height="22" width="29.69024149576823" y="24" x="70.30975850423177" class="er attributeBoxOdd"/><text style="dominant-baseline: middle; font-size: 10.2px;" transform="translate(75.30975850423177,35)" y="0" x="0" id="text-entity-dayhabits-63383c9e-c6a2-4fc7-8fcc-f77264e122b4-attr-1-key" class="er entityLabel">PK</text></g><g transform="translate(552.0510177612305,254 )" id="entity-years-60fc155e-acaf-4664-b903-4cfc2882f52c"><rect height="68" width="132.2085723876953" y="0" x="0" class="er entityBox"/><text style="dominant-baseline: middle; text-anchor: middle; font-size: 12px;" transform="translate(66.10428619384766,12)" y="0" x="0" id="text-entity-years-60fc155e-acaf-4664-b903-4cfc2882f52c" class="er entityLabel">years</text><rect height="22" width="37.39605712890625" y="24" x="0" class="er attributeBoxOdd"/><text style="dominant-baseline: middle; font-size: 10.2px;" transform="translate(5,35)" y="0" x="0" id="text-entity-years-60fc155e-acaf-4664-b903-4cfc2882f52c-attr-1-type" class="er entityLabel">String</text><rect height="22" width="72.12483215332031" y="24" x="37.39605712890625" class="er attributeBoxOdd"/><text style="dominant-baseline: middle; font-size: 10.2px;" transform="translate(42.39605712890625,35)" y="0" x="0" id="text-entity-years-60fc155e-acaf-4664-b903-4cfc2882f52c-attr-1-name" class="er entityLabel">id</text><rect height="22" width="22.68768310546875" y="24" x="109.52088928222656" class="er attributeBoxOdd"/><text style="dominant-baseline: middle; font-size: 10.2px;" transform="translate(114.52088928222656,35)" y="0" x="0" id="text-entity-years-60fc155e-acaf-4664-b903-4cfc2882f52c-attr-1-key" class="er entityLabel">PK</text><rect height="22" width="37.39605712890625" y="46" x="0" class="er attributeBoxEven"/><text style="dominant-baseline: middle; font-size: 10.2px;" transform="translate(5,57)" y="0" x="0" id="text-entity-years-60fc155e-acaf-4664-b903-4cfc2882f52c-attr-2-type" class="er entityLabel">Int</text><rect height="22" width="72.12483215332031" y="46" x="37.39605712890625" class="er attributeBoxEven"/><text style="dominant-baseline: middle; font-size: 10.2px;" transform="translate(42.39605712890625,57)" y="0" x="0" id="text-entity-years-60fc155e-acaf-4664-b903-4cfc2882f52c-attr-2-name" class="er entityLabel">year_number</text><rect height="22" width="22.68768310546875" y="46" x="109.52088928222656" class="er attributeBoxEven"/><text style="dominant-baseline: middle; font-size: 10.2px;" transform="translate(114.52088928222656,57)" y="0" x="0" id="text-entity-years-60fc155e-acaf-4664-b903-4cfc2882f52c-attr-2-key" class="er entityLabel"/></g><g transform="translate(458.1358985900879,466 )" id="entity-users-d7af9e9f-1984-42c1-84a6-95c45a52848e"><rect height="68" width="100" y="0" x="0" class="er entityBox"/><text style="dominant-baseline: middle; text-anchor: middle; font-size: 12px;" transform="translate(50,12)" y="0" x="0" id="text-entity-users-d7af9e9f-1984-42c1-84a6-95c45a52848e" class="er entityLabel">users</text><rect height="22" width="38.930643717447914" y="24" x="0" class="er attributeBoxOdd"/><text style="dominant-baseline: middle; font-size: 10.2px;" transform="translate(5,35)" y="0" x="0" id="text-entity-users-d7af9e9f-1984-42c1-84a6-95c45a52848e-attr-1-type" class="er entityLabel">String</text><rect height="22" width="36.847086588541664" y="24" x="38.930643717447914" class="er attributeBoxOdd"/><text style="dominant-baseline: middle; font-size: 10.2px;" transform="translate(43.930643717447914,35)" y="0" x="0" id="text-entity-users-d7af9e9f-1984-42c1-84a6-95c45a52848e-attr-1-name" class="er entityLabel">id</text><rect height="22" width="24.222269694010418" y="24" x="75.77773030598958" class="er attributeBoxOdd"/><text style="dominant-baseline: middle; font-size: 10.2px;" transform="translate(80.77773030598958,35)" y="0" x="0" id="text-entity-users-d7af9e9f-1984-42c1-84a6-95c45a52848e-attr-1-key" class="er entityLabel">PK</text><rect height="22" width="38.930643717447914" y="46" x="0" class="er attributeBoxEven"/><text style="dominant-baseline: middle; font-size: 10.2px;" transform="translate(5,57)" y="0" x="0" id="text-entity-users-d7af9e9f-1984-42c1-84a6-95c45a52848e-attr-2-type" class="er entityLabel">String</text><rect height="22" width="36.847086588541664" y="46" x="38.930643717447914" class="er attributeBoxEven"/><text style="dominant-baseline: middle; font-size: 10.2px;" transform="translate(43.930643717447914,57)" y="0" x="0" id="text-entity-users-d7af9e9f-1984-42c1-84a6-95c45a52848e-attr-2-name" class="er entityLabel">email</text><rect height="22" width="24.222269694010418" y="46" x="75.77773030598958" class="er attributeBoxEven"/><text style="dominant-baseline: middle; font-size: 10.2px;" transform="translate(80.77773030598958,57)" y="0" x="0" id="text-entity-users-d7af9e9f-1984-42c1-84a6-95c45a52848e-attr-2-key" class="er entityLabel"/></g><g transform="translate(498.11649322509766,20 )" id="entity-NotificationToken-e6db2a5d-226f-4a40-8109-cb5953ea4460"><rect height="90" width="125.06640625" y="0" x="0" class="er entityBox"/><text style="dominant-baseline: middle; text-anchor: middle; font-size: 12px;" transform="translate(62.533203125,12)" y="0" x="0" id="text-entity-NotificationToken-e6db2a5d-226f-4a40-8109-cb5953ea4460" class="er entityLabel">NotificationToken</text><rect height="22" width="44.56122843424479" y="24" x="0" class="er attributeBoxOdd"/><text style="dominant-baseline: middle; font-size: 10.2px;" transform="translate(5,35)" y="0" x="0" id="text-entity-NotificationToken-e6db2a5d-226f-4a40-8109-cb5953ea4460-attr-1-type" class="er entityLabel">String</text><rect height="22" width="50.652323404947914" y="24" x="44.56122843424479" class="er attributeBoxOdd"/><text style="dominant-baseline: middle; font-size: 10.2px;" transform="translate(49.56122843424479,35)" y="0" x="0" id="text-entity-NotificationToken-e6db2a5d-226f-4a40-8109-cb5953ea4460-attr-1-name" class="er entityLabel">id</text><rect height="22" width="29.852854410807293" y="24" x="95.2135518391927" class="er attributeBoxOdd"/><text style="dominant-baseline: middle; font-size: 10.2px;" transform="translate(100.2135518391927,35)" y="0" x="0" id="text-entity-NotificationToken-e6db2a5d-226f-4a40-8109-cb5953ea4460-attr-1-key" class="er entityLabel">PK</text><rect height="22" width="44.56122843424479" y="46" x="0" class="er attributeBoxEven"/><text style="dominant-baseline: middle; font-size: 10.2px;" transform="translate(5,57)" y="0" x="0" id="text-entity-NotificationToken-e6db2a5d-226f-4a40-8109-cb5953ea4460-attr-2-type" class="er entityLabel">String</text><rect height="22" width="50.652323404947914" y="46" x="44.56122843424479" class="er attributeBoxEven"/><text style="dominant-baseline: middle; font-size: 10.2px;" transform="translate(49.56122843424479,57)" y="0" x="0" id="text-entity-NotificationToken-e6db2a5d-226f-4a40-8109-cb5953ea4460-attr-2-name" class="er entityLabel">token</text><rect height="22" width="29.852854410807293" y="46" x="95.2135518391927" class="er attributeBoxEven"/><text style="dominant-baseline: middle; font-size: 10.2px;" transform="translate(100.2135518391927,57)" y="0" x="0" id="text-entity-NotificationToken-e6db2a5d-226f-4a40-8109-cb5953ea4460-attr-2-key" class="er entityLabel"/><rect height="22" width="44.56122843424479" y="68" x="0" class="er attributeBoxOdd"/><text style="dominant-baseline: middle; font-size: 10.2px;" transform="translate(5,79)" y="0" x="0" id="text-entity-NotificationToken-e6db2a5d-226f-4a40-8109-cb5953ea4460-attr-3-type" class="er entityLabel">String</text><rect height="22" width="50.652323404947914" y="68" x="44.56122843424479" class="er attributeBoxOdd"/><text style="dominant-baseline: middle; font-size: 10.2px;" transform="translate(49.56122843424479,79)" y="0" x="0" id="text-entity-NotificationToken-e6db2a5d-226f-4a40-8109-cb5953ea4460-attr-3-name" class="er entityLabel">user_id</text><rect height="22" width="29.852854410807293" y="68" x="95.2135518391927" class="er attributeBoxOdd"/><text style="dominant-baseline: middle; font-size: 10.2px;" transform="translate(100.2135518391927,79)" y="0" x="0" id="text-entity-NotificationToken-e6db2a5d-226f-4a40-8109-cb5953ea4460-attr-3-key" class="er entityLabel"/></g><g transform="translate(784.2595901489258,210 )" id="entity-colors-f34b16e0-55ea-4b71-84d5-097357bfb790"><rect height="156" width="104.40263366699219" y="0" x="0" class="er entityBox"/><text style="dominant-baseline: middle; text-anchor: middle; font-size: 12px;" transform="translate(52.201316833496094,12)" y="0" x="0" id="text-entity-colors-f34b16e0-55ea-4b71-84d5-097357bfb790" class="er entityLabel">colors</text><rect height="22" width="37.39605712890625" y="24" x="0" class="er attributeBoxOdd"/><text style="dominant-baseline: middle; font-size: 10.2px;" transform="translate(5,35)" y="0" x="0" id="text-entity-colors-f34b16e0-55ea-4b71-84d5-097357bfb790-attr-1-type" class="er entityLabel">String</text><rect height="22" width="44.31889343261719" y="24" x="37.39605712890625" class="er attributeBoxOdd"/><text style="dominant-baseline: middle; font-size: 10.2px;" transform="translate(42.39605712890625,35)" y="0" x="0" id="text-entity-colors-f34b16e0-55ea-4b71-84d5-097357bfb790-attr-1-name" class="er entityLabel">id</text><rect height="22" width="22.68768310546875" y="24" x="81.71495056152344" class="er attributeBoxOdd"/><text style="dominant-baseline: middle; font-size: 10.2px;" transform="translate(86.71495056152344,35)" y="0" x="0" id="text-entity-colors-f34b16e0-55ea-4b71-84d5-097357bfb790-attr-1-key" class="er entityLabel">PK</text><rect height="22" width="37.39605712890625" y="46" x="0" class="er attributeBoxEven"/><text style="dominant-baseline: middle; font-size: 10.2px;" transform="translate(5,57)" y="0" x="0" id="text-entity-colors-f34b16e0-55ea-4b71-84d5-097357bfb790-attr-2-type" class="er entityLabel">String</text><rect height="22" width="44.31889343261719" y="46" x="37.39605712890625" class="er attributeBoxEven"/><text style="dominant-baseline: middle; font-size: 10.2px;" transform="translate(42.39605712890625,57)" y="0" x="0" id="text-entity-colors-f34b16e0-55ea-4b71-84d5-097357bfb790-attr-2-name" class="er entityLabel">color_1</text><rect height="22" width="22.68768310546875" y="46" x="81.71495056152344" class="er attributeBoxEven"/><text style="dominant-baseline: middle; font-size: 10.2px;" transform="translate(86.71495056152344,57)" y="0" x="0" id="text-entity-colors-f34b16e0-55ea-4b71-84d5-097357bfb790-attr-2-key" class="er entityLabel"/><rect height="22" width="37.39605712890625" y="68" x="0" class="er attributeBoxOdd"/><text style="dominant-baseline: middle; font-size: 10.2px;" transform="translate(5,79)" y="0" x="0" id="text-entity-colors-f34b16e0-55ea-4b71-84d5-097357bfb790-attr-3-type" class="er entityLabel">String</text><rect height="22" width="44.31889343261719" y="68" x="37.39605712890625" class="er attributeBoxOdd"/><text style="dominant-baseline: middle; font-size: 10.2px;" transform="translate(42.39605712890625,79)" y="0" x="0" id="text-entity-colors-f34b16e0-55ea-4b71-84d5-097357bfb790-attr-3-name" class="er entityLabel">color_2</text><rect height="22" width="22.68768310546875" y="68" x="81.71495056152344" class="er attributeBoxOdd"/><text style="dominant-baseline: middle; font-size: 10.2px;" transform="translate(86.71495056152344,79)" y="0" x="0" id="text-entity-colors-f34b16e0-55ea-4b71-84d5-097357bfb790-attr-3-key" class="er entityLabel"/><rect height="22" width="37.39605712890625" y="90" x="0" class="er attributeBoxEven"/><text style="dominant-baseline: middle; font-size: 10.2px;" transform="translate(5,101)" y="0" x="0" id="text-entity-colors-f34b16e0-55ea-4b71-84d5-097357bfb790-attr-4-type" class="er entityLabel">String</text><rect height="22" width="44.31889343261719" y="90" x="37.39605712890625" class="er attributeBoxEven"/><text style="dominant-baseline: middle; font-size: 10.2px;" transform="translate(42.39605712890625,101)" y="0" x="0" id="text-entity-colors-f34b16e0-55ea-4b71-84d5-097357bfb790-attr-4-name" class="er entityLabel">color_3</text><rect height="22" width="22.68768310546875" y="90" x="81.71495056152344" class="er attributeBoxEven"/><text style="dominant-baseline: middle; font-size: 10.2px;" transform="translate(86.71495056152344,101)" y="0" x="0" id="text-entity-colors-f34b16e0-55ea-4b71-84d5-097357bfb790-attr-4-key" class="er entityLabel"/><rect height="22" width="37.39605712890625" y="112" x="0" class="er attributeBoxOdd"/><text style="dominant-baseline: middle; font-size: 10.2px;" transform="translate(5,123)" y="0" x="0" id="text-entity-colors-f34b16e0-55ea-4b71-84d5-097357bfb790-attr-5-type" class="er entityLabel">String</text><rect height="22" width="44.31889343261719" y="112" x="37.39605712890625" class="er attributeBoxOdd"/><text style="dominant-baseline: middle; font-size: 10.2px;" transform="translate(42.39605712890625,123)" y="0" x="0" id="text-entity-colors-f34b16e0-55ea-4b71-84d5-097357bfb790-attr-5-name" class="er entityLabel">color_4</text><rect height="22" width="22.68768310546875" y="112" x="81.71495056152344" class="er attributeBoxOdd"/><text style="dominant-baseline: middle; font-size: 10.2px;" transform="translate(86.71495056152344,123)" y="0" x="0" id="text-entity-colors-f34b16e0-55ea-4b71-84d5-097357bfb790-attr-5-key" class="er entityLabel"/><rect height="22" width="37.39605712890625" y="134" x="0" class="er attributeBoxEven"/><text style="dominant-baseline: middle; font-size: 10.2px;" transform="translate(5,145)" y="0" x="0" id="text-entity-colors-f34b16e0-55ea-4b71-84d5-097357bfb790-attr-6-type" class="er entityLabel">String</text><rect height="22" width="44.31889343261719" y="134" x="37.39605712890625" class="er attributeBoxEven"/><text style="dominant-baseline: middle; font-size: 10.2px;" transform="translate(42.39605712890625,145)" y="0" x="0" id="text-entity-colors-f34b16e0-55ea-4b71-84d5-097357bfb790-attr-6-name" class="er entityLabel">color_5</text><rect height="22" width="22.68768310546875" y="134" x="81.71495056152344" class="er attributeBoxEven"/><text style="dominant-baseline: middle; font-size: 10.2px;" transform="translate(86.71495056152344,145)" y="0" x="0" id="text-entity-colors-f34b16e0-55ea-4b71-84d5-097357bfb790-attr-6-key" class="er entityLabel"/></g><rect height="14" width="23.958984375" y="436.6195983886719" x="256.9093017578125" class="er relationshipLabelBox"/><text style="text-anchor: middle; dominant-baseline: middle; font-size: 12px;" y="443.6195983886719" x="268.8887939453125" id="rel1" class="er relationshipLabel">user</text><rect height="14" width="27.96875" y="165.8076171875" x="74.82518005371094" class="er relationshipLabelBox"/><text style="text-anchor: middle; dominant-baseline: middle; font-size: 12px;" y="172.8076171875" x="88.80955505371094" id="rel2" class="er relationshipLabel">habit</text><rect height="14" width="23.958984375" y="397.9931640625" x="395.4869689941406" class="er relationshipLabelBox"/><text style="text-anchor: middle; dominant-baseline: middle; font-size: 12px;" y="404.9931640625" x="407.4664611816406" id="rel3" class="er relationshipLabel">user</text><rect height="14" width="19.990234375" y="160.82008361816406" x="382.70166015625" class="er relationshipLabelBox"/><text style="text-anchor: middle; dominant-baseline: middle; font-size: 12px;" y="167.82008361816406" x="392.69677734375" id="rel4" class="er relationshipLabel">day</text><rect height="14" width="27.96875" y="154.03378295898438" x="226.1876983642578" class="er relationshipLabelBox"/><text style="text-anchor: middle; dominant-baseline: middle; font-size: 12px;" y="161.03378295898438" x="240.1720733642578" id="rel5" class="er relationshipLabel">habit</text><rect height="14" width="23.958984375" y="397.9931640625" x="596.8258666992188" class="er relationshipLabelBox"/><text style="text-anchor: middle; dominant-baseline: middle; font-size: 12px;" y="404.9931640625" x="608.8053588867188" id="rel6" class="er relationshipLabel">user</text><rect height="14" width="23.958984375" y="439.23541259765625" x="700.2177124023438" class="er relationshipLabelBox"/><text style="text-anchor: middle; dominant-baseline: middle; font-size: 12px;" y="446.23541259765625" x="712.1972045898438" id="rel7" class="er relationshipLabel">user</text></svg>