<svg aria-roledescription="er" viewBox="0 0 899.79296875 555.009765625" style="max-width: 899.793px; background-color: white;" xmlns:xlink="http://www.w3.org/1999/xlink" xmlns="http://www.w3.org/2000/svg" width="100%" id="mermaid-0"><style>#mermaid-0{font-family:"trebuchet ms",verdana,arial,sans-serif;font-size:16px;fill:#000000;}#mermaid-0 .error-icon{fill:#552222;}#mermaid-0 .error-text{fill:#552222;stroke:#552222;}#mermaid-0 .edge-thickness-normal{stroke-width:2px;}#mermaid-0 .edge-thickness-thick{stroke-width:3.5px;}#mermaid-0 .edge-pattern-solid{stroke-dasharray:0;}#mermaid-0 .edge-pattern-dashed{stroke-dasharray:3;}#mermaid-0 .edge-pattern-dotted{stroke-dasharray:2;}#mermaid-0 .marker{fill:#000000;stroke:#000000;}#mermaid-0 .marker.cross{stroke:#000000;}#mermaid-0 svg{font-family:"trebuchet ms",verdana,arial,sans-serif;font-size:16px;}#mermaid-0 .entityBox{fill:#cde498;stroke:#13540c;}#mermaid-0 .attributeBoxOdd{fill:#ffffff;stroke:#13540c;}#mermaid-0 .attributeBoxEven{fill:#f2f2f2;stroke:#13540c;}#mermaid-0 .relationshipLabelBox{fill:hsl(78.1578947368, 58.4615384615%, 84.5098039216%);opacity:0.7;background-color:hsl(78.1578947368, 58.4615384615%, 84.5098039216%);}#mermaid-0 .relationshipLabelBox rect{opacity:0.5;}#mermaid-0 .relationshipLine{stroke:#000000;}#mermaid-0 .entityTitleText{text-anchor:middle;font-size:18px;fill:#000000;}#mermaid-0 :root{--mermaid-font-family:"trebuchet ms",verdana,arial,sans-serif;}</style><g/><defs><marker orient="auto" markerHeight="18" markerWidth="18" refY="9" refX="0" id="ONLY_ONE_START"><path d="M9,0 L9,18 M15,0 L15,18" fill="none" stroke="gray"/></marker></defs><defs><marker orient="auto" markerHeight="18" markerWidth="18" refY="9" refX="18" id="ONLY_ONE_END"><path d="M3,0 L3,18 M9,0 L9,18" fill="none" stroke="gray"/></marker></defs><defs><marker orient="auto" markerHeight="18" markerWidth="30" refY="9" refX="0" id="ZERO_OR_ONE_START"><circle r="6" cy="9" cx="21" fill="white" stroke="gray"/><path d="M9,0 L9,18" fill="none" stroke="gray"/></marker></defs><defs><marker orient="auto" markerHeight="18" markerWidth="30" refY="9" refX="30" id="ZERO_OR_ONE_END"><circle r="6" cy="9" cx="9" fill="white" stroke="gray"/><path d="M21,0 L21,18" fill="none" stroke="gray"/></marker></defs><defs><marker orient="auto" markerHeight="36" markerWidth="45" refY="18" refX="18" id="ONE_OR_MORE_START"><path d="M0,18 Q 18,0 36,18 Q 18,36 0,18 M42,9 L42,27" fill="none" stroke="gray"/></marker></defs><defs><marker orient="auto" markerHeight="36" markerWidth="45" refY="18" refX="27" id="ONE_OR_MORE_END"><path d="M3,9 L3,27 M9,18 Q27,0 45,18 Q27,36 9,18" fill="none" stroke="gray"/></marker></defs><defs><marker orient="auto" markerHeight="36" markerWidth="57" refY="18" refX="18" id="ZERO_OR_MORE_START"><circle r="6" cy="18" cx="48" fill="white" stroke="gray"/><path d="M0,18 Q18,0 36,18 Q18,36 0,18" fill="none" stroke="gray"/></marker></defs><defs><marker orient="auto" markerHeight="36" markerWidth="57" refY="18" refX="39" id="ZERO_OR_MORE_END"><circle r="6" cy="18" cx="9" fill="white" stroke="gray"/><path d="M21,18 Q39,0 57,18 Q39,36 21,18" fill="none" stroke="gray"/></marker></defs><path style="stroke: gray; fill: none;" marker-start="url(#ZERO_OR_MORE_START)" marker-end="url(#ONLY_ONE_END)" d="M131.078125,333.642578125L131.078125,347.5065104166667C131.078125,361.3704427083333,131.078125,389.0983072916667,185.13411458333334,415.1055174269648C239.19010416666666,441.112727562263,347.3020833333333,465.39928324952604,401.3580729166667,477.54256109315753L455.4140625,489.6858389367891" class="er relationshipLine"/><path style="stroke: gray; fill: none;" marker-start="url(#ZERO_OR_MORE_START)" marker-end="url(#ONLY_ONE_END)" d="M81.078125,99.2294921875L81.078125,109.40380859375C81.078125,119.578125,81.078125,139.9267578125,86.48209696380265,163.96500651041666C91.88606892760531,188.00325520833334,102.6940128552106,215.73111979166666,108.09798481901326,229.59505208333334L113.50195678281591,243.458984375" class="er relationshipLine"/><path style="stroke: gray; fill: none;" marker-start="url(#ZERO_OR_MORE_START)" marker-end="url(#ONLY_ONE_END)" d="M396.89453125,322.5966796875L396.89453125,338.3015950520833C396.89453125,354.0065104166667,396.89453125,385.4163411458333,407.6486054961193,409.45458984375C418.4026797422386,433.4928385416667,439.91082823447715,450.1595052083333,450.6649024805965,458.4928385416667L461.4189767267158,466.826171875" class="er relationshipLine"/><path style="stroke: gray; fill: none;" marker-start="url(#ZERO_OR_MORE_START)" marker-end="url(#ONLY_ONE_END)" d="M359.0063962483063,88.18359375L365.3210854152553,100.19889322916667C371.63577458220425,112.21419270833333,384.2651529161021,136.24479166666666,390.57984208305106,163.96500651041666C396.89453125,191.68522135416666,396.89453125,223.09505208333334,396.89453125,238.79996744791666L396.89453125,254.5048828125" class="er relationshipLine"/><path style="stroke: gray; fill: none;" marker-start="url(#ZERO_OR_MORE_START)" marker-end="url(#ONLY_ONE_END)" d="M320.1812452525636,88.18359375L306.25390229380304,100.19889322916667C292.3265593350424,112.21419270833333,264.4718734175212,136.24479166666666,239.13792776204028,162.1240234375C213.80398210655937,188.00325520833334,190.99077671311875,215.73111979166666,179.5841740163984,229.59505208333334L168.17757131967812,243.458984375" class="er relationshipLine"/><path style="stroke: gray; fill: none;" marker-start="url(#ZERO_OR_MORE_START)" marker-end="url(#ONLY_ONE_END)" d="M613.93359375,322.642578125L613.93359375,338.33984375C613.93359375,354.037109375,613.93359375,385.431640625,603.1795195038807,409.4622395833333C592.4254452577615,433.4928385416667,570.9172967655228,450.1595052083333,560.1632225194035,458.4928385416667L549.4091482732841,466.826171875" class="er relationshipLine"/><path style="stroke: gray; fill: none;" marker-start="url(#ZERO_OR_MORE_START)" marker-end="url(#ONLY_ONE_END)" d="M828.91015625,366.826171875L828.91015625,375.1595052083333C828.91015625,383.4928385416667,828.91015625,400.1595052083333,783.3274739583334,420.3419141080961C737.7447916666666,440.52432300785887,646.5794270833334,464.2224741407178,600.9967447916666,476.0715497071472L555.4140625,487.92062527357666" class="er relationshipLine"/><g transform="translate(63.46875,243.458984375 )" id="entity-habits-3f9c9330-a786-4020-bb66-2c47ca4273e7"><rect height="90.18359375" width="135.21875" y="0" x="0" class="er entityBox"/><text style="dominant-baseline: middle; text-anchor: middle; font-size: 12px;" transform="translate(67.609375,12)" y="0" x="0" id="text-entity-habits-3f9c9330-a786-4020-bb66-2c47ca4273e7" class="er entityLabel">habits</text><rect height="22.091796875" width="53.671875" y="24" x="0" class="er attributeBoxOdd"/><text style="dominant-baseline: middle; font-size: 10.2px;" transform="translate(5,35.0458984375)" y="0" x="0" id="text-entity-habits-3f9c9330-a786-4020-bb66-2c47ca4273e7-attr-1-type" class="er entityLabel">String</text><rect height="22.091796875" width="59.984375" y="24" x="53.671875" class="er attributeBoxOdd"/><text style="dominant-baseline: middle; font-size: 10.2px;" transform="translate(58.671875,35.0458984375)" y="0" x="0" id="text-entity-habits-3f9c9330-a786-4020-bb66-2c47ca4273e7-attr-1-name" class="er entityLabel">id</text><rect height="22.091796875" width="21.5625" y="24" x="113.65625" class="er attributeBoxOdd"/><text style="dominant-baseline: middle; font-size: 10.2px;" transform="translate(118.65625,35.0458984375)" y="0" x="0" id="text-entity-habits-3f9c9330-a786-4020-bb66-2c47ca4273e7-attr-1-key" class="er entityLabel">PK</text><rect height="22.091796875" width="53.671875" y="46.091796875" x="0" class="er attributeBoxEven"/><text style="dominant-baseline: middle; font-size: 10.2px;" transform="translate(5,57.1376953125)" y="0" x="0" id="text-entity-habits-3f9c9330-a786-4020-bb66-2c47ca4273e7-attr-2-type" class="er entityLabel">String</text><rect height="22.091796875" width="59.984375" y="46.091796875" x="53.671875" class="er attributeBoxEven"/><text style="dominant-baseline: middle; font-size: 10.2px;" transform="translate(58.671875,57.1376953125)" y="0" x="0" id="text-entity-habits-3f9c9330-a786-4020-bb66-2c47ca4273e7-attr-2-name" class="er entityLabel">title</text><rect height="22.091796875" width="21.5625" y="46.091796875" x="113.65625" class="er attributeBoxEven"/><text style="dominant-baseline: middle; font-size: 10.2px;" transform="translate(118.65625,57.1376953125)" y="0" x="0" id="text-entity-habits-3f9c9330-a786-4020-bb66-2c47ca4273e7-attr-2-key" class="er entityLabel"/><rect height="22" width="53.671875" y="68.18359375" x="0" class="er attributeBoxOdd"/><text style="dominant-baseline: middle; font-size: 10.2px;" transform="translate(5,79.18359375)" y="0" x="0" id="text-entity-habits-3f9c9330-a786-4020-bb66-2c47ca4273e7-attr-3-type" class="er entityLabel">DateTime</text><rect height="22" width="59.984375" y="68.18359375" x="53.671875" class="er attributeBoxOdd"/><text style="dominant-baseline: middle; font-size: 10.2px;" transform="translate(58.671875,79.18359375)" y="0" x="0" id="text-entity-habits-3f9c9330-a786-4020-bb66-2c47ca4273e7-attr-3-name" class="er entityLabel">created_at</text><rect height="22" width="21.5625" y="68.18359375" x="113.65625" class="er attributeBoxOdd"/><text style="dominant-baseline: middle; font-size: 10.2px;" transform="translate(118.65625,79.18359375)" y="0" x="0" id="text-entity-habits-3f9c9330-a786-4020-bb66-2c47ca4273e7-attr-3-key" class="er entityLabel"/></g><g transform="translate(20,31.0458984375 )" id="entity-habitweekdays-105dd346-13b6-4628-94cc-351ac7f4796a"><rect height="68.18359375" width="122.15625" y="0" x="0" class="er entityBox"/><text style="dominant-baseline: middle; text-anchor: middle; font-size: 12px;" transform="translate(61.078125,12)" y="0" x="0" id="text-entity-habitweekdays-105dd346-13b6-4628-94cc-351ac7f4796a" class="er entityLabel">habit_week_days</text><rect height="22.091796875" width="39.453125" y="24" x="0" class="er attributeBoxOdd"/><text style="dominant-baseline: middle; font-size: 10.2px;" transform="translate(5,35.0458984375)" y="0" x="0" id="text-entity-habitweekdays-105dd346-13b6-4628-94cc-351ac7f4796a-attr-1-type" class="er entityLabel">String</text><rect height="22.091796875" width="58.21875" y="24" x="39.453125" class="er attributeBoxOdd"/><text style="dominant-baseline: middle; font-size: 10.2px;" transform="translate(44.453125,35.0458984375)" y="0" x="0" id="text-entity-habitweekdays-105dd346-13b6-4628-94cc-351ac7f4796a-attr-1-name" class="er entityLabel">id</text><rect height="22.091796875" width="24.484375" y="24" x="97.671875" class="er attributeBoxOdd"/><text style="dominant-baseline: middle; font-size: 10.2px;" transform="translate(102.671875,35.0458984375)" y="0" x="0" id="text-entity-habitweekdays-105dd346-13b6-4628-94cc-351ac7f4796a-attr-1-key" class="er entityLabel">PK</text><rect height="22.091796875" width="39.453125" y="46.091796875" x="0" class="er attributeBoxEven"/><text style="dominant-baseline: middle; font-size: 10.2px;" transform="translate(5,57.1376953125)" y="0" x="0" id="text-entity-habitweekdays-105dd346-13b6-4628-94cc-351ac7f4796a-attr-2-type" class="er entityLabel">Int</text><rect height="22.091796875" width="58.21875" y="46.091796875" x="39.453125" class="er attributeBoxEven"/><text style="dominant-baseline: middle; font-size: 10.2px;" transform="translate(44.453125,57.1376953125)" y="0" x="0" id="text-entity-habitweekdays-105dd346-13b6-4628-94cc-351ac7f4796a-attr-2-name" class="er entityLabel">week_day</text><rect height="22.091796875" width="24.484375" y="46.091796875" x="97.671875" class="er attributeBoxEven"/><text style="dominant-baseline: middle; font-size: 10.2px;" transform="translate(102.671875,57.1376953125)" y="0" x="0" id="text-entity-habitweekdays-105dd346-13b6-4628-94cc-351ac7f4796a-attr-2-key" class="er entityLabel"/></g><g transform="translate(343.94921875,254.5048828125 )" id="entity-days-c6f6787b-1007-4e1a-bbb3-10b54ce7db48"><rect height="68.091796875" width="105.890625" y="0" x="0" class="er entityBox"/><text style="dominant-baseline: middle; text-anchor: middle; font-size: 12px;" transform="translate(52.9453125,12)" y="0" x="0" id="text-entity-days-c6f6787b-1007-4e1a-bbb3-10b54ce7db48" class="er entityLabel">days</text><rect height="22.091796875" width="53.671875" y="24" x="0" class="er attributeBoxOdd"/><text style="dominant-baseline: middle; font-size: 10.2px;" transform="translate(5,35.0458984375)" y="0" x="0" id="text-entity-days-c6f6787b-1007-4e1a-bbb3-10b54ce7db48-attr-1-type" class="er entityLabel">String</text><rect height="22.091796875" width="30.65625" y="24" x="53.671875" class="er attributeBoxOdd"/><text style="dominant-baseline: middle; font-size: 10.2px;" transform="translate(58.671875,35.0458984375)" y="0" x="0" id="text-entity-days-c6f6787b-1007-4e1a-bbb3-10b54ce7db48-attr-1-name" class="er entityLabel">id</text><rect height="22.091796875" width="21.5625" y="24" x="84.328125" class="er attributeBoxOdd"/><text style="dominant-baseline: middle; font-size: 10.2px;" transform="translate(89.328125,35.0458984375)" y="0" x="0" id="text-entity-days-c6f6787b-1007-4e1a-bbb3-10b54ce7db48-attr-1-key" class="er entityLabel">PK</text><rect height="22" width="53.671875" y="46.091796875" x="0" class="er attributeBoxEven"/><text style="dominant-baseline: middle; font-size: 10.2px;" transform="translate(5,57.091796875)" y="0" x="0" id="text-entity-days-c6f6787b-1007-4e1a-bbb3-10b54ce7db48-attr-2-type" class="er entityLabel">DateTime</text><rect height="22" width="30.65625" y="46.091796875" x="53.671875" class="er attributeBoxEven"/><text style="dominant-baseline: middle; font-size: 10.2px;" transform="translate(58.671875,57.091796875)" y="0" x="0" id="text-entity-days-c6f6787b-1007-4e1a-bbb3-10b54ce7db48-attr-2-name" class="er entityLabel">date</text><rect height="22" width="21.5625" y="46.091796875" x="84.328125" class="er attributeBoxEven"/><text style="dominant-baseline: middle; font-size: 10.2px;" transform="translate(89.328125,57.091796875)" y="0" x="0" id="text-entity-days-c6f6787b-1007-4e1a-bbb3-10b54ce7db48-attr-2-key" class="er entityLabel"/></g><g transform="translate(296.89453125,42.091796875 )" id="entity-dayhabits-f7228bd6-69df-4379-b242-aa0c405b27fd"><rect height="46.091796875" width="100" y="0" x="0" class="er entityBox"/><text style="dominant-baseline: middle; text-anchor: middle; font-size: 12px;" transform="translate(50,12)" y="0" x="0" id="text-entity-dayhabits-f7228bd6-69df-4379-b242-aa0c405b27fd" class="er entityLabel">day_habits</text><rect height="22.091796875" width="44.302083333333336" y="24" x="0" class="er attributeBoxOdd"/><text style="dominant-baseline: middle; font-size: 10.2px;" transform="translate(5,35.0458984375)" y="0" x="0" id="text-entity-dayhabits-f7228bd6-69df-4379-b242-aa0c405b27fd-attr-1-type" class="er entityLabel">String</text><rect height="22.091796875" width="26.364583333333332" y="24" x="44.302083333333336" class="er attributeBoxOdd"/><text style="dominant-baseline: middle; font-size: 10.2px;" transform="translate(49.302083333333336,35.0458984375)" y="0" x="0" id="text-entity-dayhabits-f7228bd6-69df-4379-b242-aa0c405b27fd-attr-1-name" class="er entityLabel">id</text><rect height="22.091796875" width="29.333333333333332" y="24" x="70.66666666666667" class="er attributeBoxOdd"/><text style="dominant-baseline: middle; font-size: 10.2px;" transform="translate(75.66666666666667,35.0458984375)" y="0" x="0" id="text-entity-dayhabits-f7228bd6-69df-4379-b242-aa0c405b27fd-attr-1-key" class="er entityLabel">PK</text></g><g transform="translate(549.83984375,254.458984375 )" id="entity-years-232f19ce-250b-408f-8c9a-9b21b294477e"><rect height="68.18359375" width="128.1875" y="0" x="0" class="er entityBox"/><text style="dominant-baseline: middle; text-anchor: middle; font-size: 12px;" transform="translate(64.09375,12)" y="0" x="0" id="text-entity-years-232f19ce-250b-408f-8c9a-9b21b294477e" class="er entityLabel">years</text><rect height="22.091796875" width="36.53125" y="24" x="0" class="er attributeBoxOdd"/><text style="dominant-baseline: middle; font-size: 10.2px;" transform="translate(5,35.0458984375)" y="0" x="0" id="text-entity-years-232f19ce-250b-408f-8c9a-9b21b294477e-attr-1-type" class="er entityLabel">String</text><rect height="22.091796875" width="70.09375" y="24" x="36.53125" class="er attributeBoxOdd"/><text style="dominant-baseline: middle; font-size: 10.2px;" transform="translate(41.53125,35.0458984375)" y="0" x="0" id="text-entity-years-232f19ce-250b-408f-8c9a-9b21b294477e-attr-1-name" class="er entityLabel">id</text><rect height="22.091796875" width="21.5625" y="24" x="106.625" class="er attributeBoxOdd"/><text style="dominant-baseline: middle; font-size: 10.2px;" transform="translate(111.625,35.0458984375)" y="0" x="0" id="text-entity-years-232f19ce-250b-408f-8c9a-9b21b294477e-attr-1-key" class="er entityLabel">PK</text><rect height="22.091796875" width="36.53125" y="46.091796875" x="0" class="er attributeBoxEven"/><text style="dominant-baseline: middle; font-size: 10.2px;" transform="translate(5,57.1376953125)" y="0" x="0" id="text-entity-years-232f19ce-250b-408f-8c9a-9b21b294477e-attr-2-type" class="er entityLabel">Int</text><rect height="22.091796875" width="70.09375" y="46.091796875" x="36.53125" class="er attributeBoxEven"/><text style="dominant-baseline: middle; font-size: 10.2px;" transform="translate(41.53125,57.1376953125)" y="0" x="0" id="text-entity-years-232f19ce-250b-408f-8c9a-9b21b294477e-attr-2-name" class="er entityLabel">year_number</text><rect height="22.091796875" width="21.5625" y="46.091796875" x="106.625" class="er attributeBoxEven"/><text style="dominant-baseline: middle; font-size: 10.2px;" transform="translate(111.625,57.1376953125)" y="0" x="0" id="text-entity-years-232f19ce-250b-408f-8c9a-9b21b294477e-attr-2-key" class="er entityLabel"/></g><g transform="translate(455.4140625,466.826171875 )" id="entity-users-41261b27-ec95-404d-9c42-1567e5bb30c0"><rect height="68.18359375" width="100" y="0" x="0" class="er entityBox"/><text style="dominant-baseline: middle; text-anchor: middle; font-size: 12px;" transform="translate(50,12)" y="0" x="0" id="text-entity-users-41261b27-ec95-404d-9c42-1567e5bb30c0" class="er entityLabel">users</text><rect height="22.091796875" width="38.729166666666664" y="24" x="0" class="er attributeBoxOdd"/><text style="dominant-baseline: middle; font-size: 10.2px;" transform="translate(5,35.0458984375)" y="0" x="0" id="text-entity-users-41261b27-ec95-404d-9c42-1567e5bb30c0-attr-1-type" class="er entityLabel">String</text><rect height="22.091796875" width="37.510416666666664" y="24" x="38.729166666666664" class="er attributeBoxOdd"/><text style="dominant-baseline: middle; font-size: 10.2px;" transform="translate(43.729166666666664,35.0458984375)" y="0" x="0" id="text-entity-users-41261b27-ec95-404d-9c42-1567e5bb30c0-attr-1-name" class="er entityLabel">id</text><rect height="22.091796875" width="23.760416666666668" y="24" x="76.23958333333333" class="er attributeBoxOdd"/><text style="dominant-baseline: middle; font-size: 10.2px;" transform="translate(81.23958333333333,35.0458984375)" y="0" x="0" id="text-entity-users-41261b27-ec95-404d-9c42-1567e5bb30c0-attr-1-key" class="er entityLabel">PK</text><rect height="22.091796875" width="38.729166666666664" y="46.091796875" x="0" class="er attributeBoxEven"/><text style="dominant-baseline: middle; font-size: 10.2px;" transform="translate(5,57.1376953125)" y="0" x="0" id="text-entity-users-41261b27-ec95-404d-9c42-1567e5bb30c0-attr-2-type" class="er entityLabel">String</text><rect height="22.091796875" width="37.510416666666664" y="46.091796875" x="38.729166666666664" class="er attributeBoxEven"/><text style="dominant-baseline: middle; font-size: 10.2px;" transform="translate(43.729166666666664,57.1376953125)" y="0" x="0" id="text-entity-users-41261b27-ec95-404d-9c42-1567e5bb30c0-attr-2-name" class="er entityLabel">email</text><rect height="22.091796875" width="23.760416666666668" y="46.091796875" x="76.23958333333333" class="er attributeBoxEven"/><text style="dominant-baseline: middle; font-size: 10.2px;" transform="translate(81.23958333333333,57.1376953125)" y="0" x="0" id="text-entity-users-41261b27-ec95-404d-9c42-1567e5bb30c0-attr-2-key" class="er entityLabel"/></g><g transform="translate(496.89453125,20 )" id="entity-NotificationToken-6666ef9c-4c41-4132-bcb0-67537c214325"><rect height="90.275390625" width="124.625" y="0" x="0" class="er entityBox"/><text style="dominant-baseline: middle; text-anchor: middle; font-size: 12px;" transform="translate(62.3125,12)" y="0" x="0" id="text-entity-NotificationToken-6666ef9c-4c41-4132-bcb0-67537c214325" class="er entityLabel">NotificationToken</text><rect height="22.091796875" width="44.317708333333336" y="24" x="0" class="er attributeBoxOdd"/><text style="dominant-baseline: middle; font-size: 10.2px;" transform="translate(5,35.0458984375)" y="0" x="0" id="text-entity-NotificationToken-6666ef9c-4c41-4132-bcb0-67537c214325-attr-1-type" class="er entityLabel">String</text><rect height="22.091796875" width="50.958333333333336" y="24" x="44.317708333333336" class="er attributeBoxOdd"/><text style="dominant-baseline: middle; font-size: 10.2px;" transform="translate(49.317708333333336,35.0458984375)" y="0" x="0" id="text-entity-NotificationToken-6666ef9c-4c41-4132-bcb0-67537c214325-attr-1-name" class="er entityLabel">id</text><rect height="22.091796875" width="29.348958333333332" y="24" x="95.27604166666667" class="er attributeBoxOdd"/><text style="dominant-baseline: middle; font-size: 10.2px;" transform="translate(100.27604166666667,35.0458984375)" y="0" x="0" id="text-entity-NotificationToken-6666ef9c-4c41-4132-bcb0-67537c214325-attr-1-key" class="er entityLabel">PK</text><rect height="22.091796875" width="44.317708333333336" y="46.091796875" x="0" class="er attributeBoxEven"/><text style="dominant-baseline: middle; font-size: 10.2px;" transform="translate(5,57.1376953125)" y="0" x="0" id="text-entity-NotificationToken-6666ef9c-4c41-4132-bcb0-67537c214325-attr-2-type" class="er entityLabel">String</text><rect height="22.091796875" width="50.958333333333336" y="46.091796875" x="44.317708333333336" class="er attributeBoxEven"/><text style="dominant-baseline: middle; font-size: 10.2px;" transform="translate(49.317708333333336,57.1376953125)" y="0" x="0" id="text-entity-NotificationToken-6666ef9c-4c41-4132-bcb0-67537c214325-attr-2-name" class="er entityLabel">token</text><rect height="22.091796875" width="29.348958333333332" y="46.091796875" x="95.27604166666667" class="er attributeBoxEven"/><text style="dominant-baseline: middle; font-size: 10.2px;" transform="translate(100.27604166666667,57.1376953125)" y="0" x="0" id="text-entity-NotificationToken-6666ef9c-4c41-4132-bcb0-67537c214325-attr-2-key" class="er entityLabel"/><rect height="22.091796875" width="44.317708333333336" y="68.18359375" x="0" class="er attributeBoxOdd"/><text style="dominant-baseline: middle; font-size: 10.2px;" transform="translate(5,79.2294921875)" y="0" x="0" id="text-entity-NotificationToken-6666ef9c-4c41-4132-bcb0-67537c214325-attr-3-type" class="er entityLabel">String</text><rect height="22.091796875" width="50.958333333333336" y="68.18359375" x="44.317708333333336" class="er attributeBoxOdd"/><text style="dominant-baseline: middle; font-size: 10.2px;" transform="translate(49.317708333333336,79.2294921875)" y="0" x="0" id="text-entity-NotificationToken-6666ef9c-4c41-4132-bcb0-67537c214325-attr-3-name" class="er entityLabel">user_id</text><rect height="22.091796875" width="29.348958333333332" y="68.18359375" x="95.27604166666667" class="er attributeBoxOdd"/><text style="dominant-baseline: middle; font-size: 10.2px;" transform="translate(100.27604166666667,79.2294921875)" y="0" x="0" id="text-entity-NotificationToken-6666ef9c-4c41-4132-bcb0-67537c214325-attr-3-key" class="er entityLabel"/></g><g transform="translate(778.02734375,210.275390625 )" id="entity-colors-91543ba0-c58c-41b5-876b-1bfeeaf51fe2"><rect height="156.55078125" width="101.765625" y="0" x="0" class="er entityBox"/><text style="dominant-baseline: middle; text-anchor: middle; font-size: 12px;" transform="translate(50.8828125,12)" y="0" x="0" id="text-entity-colors-91543ba0-c58c-41b5-876b-1bfeeaf51fe2" class="er entityLabel">colors</text><rect height="22.091796875" width="36.53125" y="24" x="0" class="er attributeBoxOdd"/><text style="dominant-baseline: middle; font-size: 10.2px;" transform="translate(5,35.0458984375)" y="0" x="0" id="text-entity-colors-91543ba0-c58c-41b5-876b-1bfeeaf51fe2-attr-1-type" class="er entityLabel">String</text><rect height="22.091796875" width="43.671875" y="24" x="36.53125" class="er attributeBoxOdd"/><text style="dominant-baseline: middle; font-size: 10.2px;" transform="translate(41.53125,35.0458984375)" y="0" x="0" id="text-entity-colors-91543ba0-c58c-41b5-876b-1bfeeaf51fe2-attr-1-name" class="er entityLabel">id</text><rect height="22.091796875" width="21.5625" y="24" x="80.203125" class="er attributeBoxOdd"/><text style="dominant-baseline: middle; font-size: 10.2px;" transform="translate(85.203125,35.0458984375)" y="0" x="0" id="text-entity-colors-91543ba0-c58c-41b5-876b-1bfeeaf51fe2-attr-1-key" class="er entityLabel">PK</text><rect height="22.091796875" width="36.53125" y="46.091796875" x="0" class="er attributeBoxEven"/><text style="dominant-baseline: middle; font-size: 10.2px;" transform="translate(5,57.1376953125)" y="0" x="0" id="text-entity-colors-91543ba0-c58c-41b5-876b-1bfeeaf51fe2-attr-2-type" class="er entityLabel">String</text><rect height="22.091796875" width="43.671875" y="46.091796875" x="36.53125" class="er attributeBoxEven"/><text style="dominant-baseline: middle; font-size: 10.2px;" transform="translate(41.53125,57.1376953125)" y="0" x="0" id="text-entity-colors-91543ba0-c58c-41b5-876b-1bfeeaf51fe2-attr-2-name" class="er entityLabel">color_1</text><rect height="22.091796875" width="21.5625" y="46.091796875" x="80.203125" class="er attributeBoxEven"/><text style="dominant-baseline: middle; font-size: 10.2px;" transform="translate(85.203125,57.1376953125)" y="0" x="0" id="text-entity-colors-91543ba0-c58c-41b5-876b-1bfeeaf51fe2-attr-2-key" class="er entityLabel"/><rect height="22.091796875" width="36.53125" y="68.18359375" x="0" class="er attributeBoxOdd"/><text style="dominant-baseline: middle; font-size: 10.2px;" transform="translate(5,79.2294921875)" y="0" x="0" id="text-entity-colors-91543ba0-c58c-41b5-876b-1bfeeaf51fe2-attr-3-type" class="er entityLabel">String</text><rect height="22.091796875" width="43.671875" y="68.18359375" x="36.53125" class="er attributeBoxOdd"/><text style="dominant-baseline: middle; font-size: 10.2px;" transform="translate(41.53125,79.2294921875)" y="0" x="0" id="text-entity-colors-91543ba0-c58c-41b5-876b-1bfeeaf51fe2-attr-3-name" class="er entityLabel">color_2</text><rect height="22.091796875" width="21.5625" y="68.18359375" x="80.203125" class="er attributeBoxOdd"/><text style="dominant-baseline: middle; font-size: 10.2px;" transform="translate(85.203125,79.2294921875)" y="0" x="0" id="text-entity-colors-91543ba0-c58c-41b5-876b-1bfeeaf51fe2-attr-3-key" class="er entityLabel"/><rect height="22.091796875" width="36.53125" y="90.275390625" x="0" class="er attributeBoxEven"/><text style="dominant-baseline: middle; font-size: 10.2px;" transform="translate(5,101.3212890625)" y="0" x="0" id="text-entity-colors-91543ba0-c58c-41b5-876b-1bfeeaf51fe2-attr-4-type" class="er entityLabel">String</text><rect height="22.091796875" width="43.671875" y="90.275390625" x="36.53125" class="er attributeBoxEven"/><text style="dominant-baseline: middle; font-size: 10.2px;" transform="translate(41.53125,101.3212890625)" y="0" x="0" id="text-entity-colors-91543ba0-c58c-41b5-876b-1bfeeaf51fe2-attr-4-name" class="er entityLabel">color_3</text><rect height="22.091796875" width="21.5625" y="90.275390625" x="80.203125" class="er attributeBoxEven"/><text style="dominant-baseline: middle; font-size: 10.2px;" transform="translate(85.203125,101.3212890625)" y="0" x="0" id="text-entity-colors-91543ba0-c58c-41b5-876b-1bfeeaf51fe2-attr-4-key" class="er entityLabel"/><rect height="22.091796875" width="36.53125" y="112.3671875" x="0" class="er attributeBoxOdd"/><text style="dominant-baseline: middle; font-size: 10.2px;" transform="translate(5,123.4130859375)" y="0" x="0" id="text-entity-colors-91543ba0-c58c-41b5-876b-1bfeeaf51fe2-attr-5-type" class="er entityLabel">String</text><rect height="22.091796875" width="43.671875" y="112.3671875" x="36.53125" class="er attributeBoxOdd"/><text style="dominant-baseline: middle; font-size: 10.2px;" transform="translate(41.53125,123.4130859375)" y="0" x="0" id="text-entity-colors-91543ba0-c58c-41b5-876b-1bfeeaf51fe2-attr-5-name" class="er entityLabel">color_4</text><rect height="22.091796875" width="21.5625" y="112.3671875" x="80.203125" class="er attributeBoxOdd"/><text style="dominant-baseline: middle; font-size: 10.2px;" transform="translate(85.203125,123.4130859375)" y="0" x="0" id="text-entity-colors-91543ba0-c58c-41b5-876b-1bfeeaf51fe2-attr-5-key" class="er entityLabel"/><rect height="22.091796875" width="36.53125" y="134.458984375" x="0" class="er attributeBoxEven"/><text style="dominant-baseline: middle; font-size: 10.2px;" transform="translate(5,145.5048828125)" y="0" x="0" id="text-entity-colors-91543ba0-c58c-41b5-876b-1bfeeaf51fe2-attr-6-type" class="er entityLabel">String</text><rect height="22.091796875" width="43.671875" y="134.458984375" x="36.53125" class="er attributeBoxEven"/><text style="dominant-baseline: middle; font-size: 10.2px;" transform="translate(41.53125,145.5048828125)" y="0" x="0" id="text-entity-colors-91543ba0-c58c-41b5-876b-1bfeeaf51fe2-attr-6-name" class="er entityLabel">color_5</text><rect height="22.091796875" width="21.5625" y="134.458984375" x="80.203125" class="er attributeBoxEven"/><text style="dominant-baseline: middle; font-size: 10.2px;" transform="translate(85.203125,145.5048828125)" y="0" x="0" id="text-entity-colors-91543ba0-c58c-41b5-876b-1bfeeaf51fe2-attr-6-key" class="er entityLabel"/></g><rect height="14" width="22.625" y="437.3461608886719" x="256.06732177734375" class="er relationshipLabelBox"/><text style="text-anchor: middle; dominant-baseline: middle; font-size: 12px;" y="444.3461608886719" x="267.37982177734375" id="rel1" class="er relationshipLabel">user</text><rect height="14" width="27.734375" y="166.1474151611328" x="74.8814697265625" class="er relationshipLabelBox"/><text style="text-anchor: middle; dominant-baseline: middle; font-size: 12px;" y="173.1474151611328" x="88.7486572265625" id="rel2" class="er relationshipLabel">habit</text><rect height="14" width="22.625" y="398.455810546875" x="394.6694030761719" class="er relationshipLabelBox"/><text style="text-anchor: middle; dominant-baseline: middle; font-size: 12px;" y="405.455810546875" x="405.9819030761719" id="rel3" class="er relationshipLabel">user</text><rect height="14" width="18.921875" y="161.16856384277344" x="382.02337646484375" class="er relationshipLabelBox"/><text style="text-anchor: middle; dominant-baseline: middle; font-size: 12px;" y="168.16856384277344" x="391.48431396484375" id="rel4" class="er relationshipLabel">day</text><rect height="14" width="27.734375" y="154.49427795410156" x="225.8888397216797" class="er relationshipLabelBox"/><text style="text-anchor: middle; dominant-baseline: middle; font-size: 12px;" y="161.49427795410156" x="239.7560272216797" id="rel5" class="er relationshipLabel">habit</text><rect height="14" width="22.625" y="398.4783630371094" x="593.5284423828125" class="er relationshipLabelBox"/><text style="text-anchor: middle; dominant-baseline: middle; font-size: 12px;" y="405.4783630371094" x="604.8409423828125" id="rel6" class="er relationshipLabel">user</text><rect height="14" width="22.625" y="439.9143371582031" x="695.812255859375" class="er relationshipLabelBox"/><text style="text-anchor: middle; dominant-baseline: middle; font-size: 12px;" y="446.9143371582031" x="707.124755859375" id="rel7" class="er relationshipLabel">user</text></svg>