<svg aria-roledescription="er" viewBox="0 0 928.5807495117188 554" style="max-width: 928.581px; background-color: white;" xmlns:xlink="http://www.w3.org/1999/xlink" xmlns="http://www.w3.org/2000/svg" width="100%" id="mermaid-0"><style>#mermaid-0{font-family:"trebuchet ms",verdana,arial,sans-serif;font-size:16px;fill:#000000;}#mermaid-0 .error-icon{fill:#552222;}#mermaid-0 .error-text{fill:#552222;stroke:#552222;}#mermaid-0 .edge-thickness-normal{stroke-width:2px;}#mermaid-0 .edge-thickness-thick{stroke-width:3.5px;}#mermaid-0 .edge-pattern-solid{stroke-dasharray:0;}#mermaid-0 .edge-pattern-dashed{stroke-dasharray:3;}#mermaid-0 .edge-pattern-dotted{stroke-dasharray:2;}#mermaid-0 .marker{fill:#000000;stroke:#000000;}#mermaid-0 .marker.cross{stroke:#000000;}#mermaid-0 svg{font-family:"trebuchet ms",verdana,arial,sans-serif;font-size:16px;}#mermaid-0 .entityBox{fill:#cde498;stroke:#13540c;}#mermaid-0 .attributeBoxOdd{fill:#ffffff;stroke:#13540c;}#mermaid-0 .attributeBoxEven{fill:#f2f2f2;stroke:#13540c;}#mermaid-0 .relationshipLabelBox{fill:hsl(78.1578947368, 58.4615384615%, 84.5098039216%);opacity:0.7;background-color:hsl(78.1578947368, 58.4615384615%, 84.5098039216%);}#mermaid-0 .relationshipLabelBox rect{opacity:0.5;}#mermaid-0 .relationshipLine{stroke:#000000;}#mermaid-0 .entityTitleText{text-anchor:middle;font-size:18px;fill:#000000;}#mermaid-0 :root{--mermaid-font-family:"trebuchet ms",verdana,arial,sans-serif;}</style><g/><defs><marker orient="auto" markerHeight="18" markerWidth="18" refY="9" refX="0" id="ONLY_ONE_START"><path d="M9,0 L9,18 M15,0 L15,18" fill="none" stroke="gray"/></marker></defs><defs><marker orient="auto" markerHeight="18" markerWidth="18" refY="9" refX="18" id="ONLY_ONE_END"><path d="M3,0 L3,18 M9,0 L9,18" fill="none" stroke="gray"/></marker></defs><defs><marker orient="auto" markerHeight="18" markerWidth="30" refY="9" refX="0" id="ZERO_OR_ONE_START"><circle r="6" cy="9" cx="21" fill="white" stroke="gray"/><path d="M9,0 L9,18" fill="none" stroke="gray"/></marker></defs><defs><marker orient="auto" markerHeight="18" markerWidth="30" refY="9" refX="30" id="ZERO_OR_ONE_END"><circle r="6" cy="9" cx="9" fill="white" stroke="gray"/><path d="M21,0 L21,18" fill="none" stroke="gray"/></marker></defs><defs><marker orient="auto" markerHeight="36" markerWidth="45" refY="18" refX="18" id="ONE_OR_MORE_START"><path d="M0,18 Q 18,0 36,18 Q 18,36 0,18 M42,9 L42,27" fill="none" stroke="gray"/></marker></defs><defs><marker orient="auto" markerHeight="36" markerWidth="45" refY="18" refX="27" id="ONE_OR_MORE_END"><path d="M3,9 L3,27 M9,18 Q27,0 45,18 Q27,36 9,18" fill="none" stroke="gray"/></marker></defs><defs><marker orient="auto" markerHeight="36" markerWidth="57" refY="18" refX="18" id="ZERO_OR_MORE_START"><circle r="6" cy="18" cx="48" fill="white" stroke="gray"/><path d="M0,18 Q18,0 36,18 Q18,36 0,18" fill="none" stroke="gray"/></marker></defs><defs><marker orient="auto" markerHeight="36" markerWidth="57" refY="18" refX="39" id="ZERO_OR_MORE_END"><circle r="6" cy="18" cx="9" fill="white" stroke="gray"/><path d="M21,18 Q39,0 57,18 Q39,36 21,18" fill="none" stroke="gray"/></marker></defs><path style="stroke: gray; fill: none;" marker-start="url(#ZERO_OR_MORE_START)" marker-end="url(#ONLY_ONE_END)" d="M131.146484375,355L131.146484375,365.1666666666667C131.146484375,375.3333333333333,131.146484375,395.6666666666667,188.9644743601481,418.0697001841523C246.78246434529623,440.47273370163794,362.41844431559247,464.94546740327587,420.23643430074054,477.18183425409484L478.0544242858887,489.41820110491375" class="er relationshipLine"/><path style="stroke: gray; fill: none;" marker-start="url(#ZERO_OR_MORE_START)" marker-end="url(#ONLY_ONE_END)" d="M81.146484375,99L81.146484375,109.16666666666667C81.146484375,119.33333333333333,81.146484375,139.66666666666666,85.11783854166667,160C89.08919270833333,180.33333333333334,97.03190104166667,200.66666666666666,101.00325520833333,210.83333333333334L104.974609375,221" class="er relationshipLine"/><path style="stroke: gray; fill: none;" marker-start="url(#ZERO_OR_MORE_START)" marker-end="url(#ONLY_ONE_END)" d="M418.03501892089844,322L418.03501892089844,337.6666666666667C418.03501892089844,353.3333333333333,418.03501892089844,384.6666666666667,428.94964246901253,408.6666666666667C439.8642660171267,432.6666666666667,461.69351311335487,449.3333333333333,472.60813666146896,457.6666666666667L483.5227602095831,466" class="er relationshipLine"/><path style="stroke: gray; fill: none;" marker-start="url(#ZERO_OR_MORE_START)" marker-end="url(#ONLY_ONE_END)" d="M380.1402820787932,88L386.4560715524774,100C392.7718610261616,112,405.40343997353006,136,411.7192294472142,163.66666666666666C418.03501892089844,191.33333333333334,418.03501892089844,222.66666666666666,418.03501892089844,238.33333333333334L418.03501892089844,254" class="er relationshipLine"/><path style="stroke: gray; fill: none;" marker-start="url(#ZERO_OR_MORE_START)" marker-end="url(#ONLY_ONE_END)" d="M336.2428955078125,88L319.65570068359375,100C303.06850585937497,112,269.8941162109375,136,244.92154668172202,158.16666666666666C219.9489771525065,180.33333333333334,203.17822774251303,200.66666666666666,194.79285303751627,210.83333333333334L186.40747833251953,221" class="er relationshipLine"/><path style="stroke: gray; fill: none;" marker-start="url(#ZERO_OR_MORE_START)" marker-end="url(#ONLY_ONE_END)" d="M638.0738296508789,322L638.0738296508789,337.6666666666667C638.0738296508789,353.3333333333333,638.0738296508789,384.6666666666667,627.1592061027649,408.6666666666667C616.2445825546507,432.6666666666667,594.4153354584224,449.3333333333333,583.5007119103084,457.6666666666667L572.5860883621942,466" class="er relationshipLine"/><path style="stroke: gray; fill: none;" marker-start="url(#ZERO_OR_ONE_START)" marker-end="url(#ONLY_ONE_END)" d="M856.3794326782227,366L856.3794326782227,374.3333333333333C856.3794326782227,382.6666666666667,856.3794326782227,399.3333333333333,809.9919312795004,419.534632913199C763.604429880778,439.7359324930647,670.8294270833334,463.47186498612945,624.441925684611,475.33983123266177L578.0544242858887,487.2077974791942" class="er relationshipLine"/><g transform="translate(22.450424194335938,221 )" id="entity-habits-b4b881ea-feda-43c9-b244-52d63bd681c2"><rect height="134" width="217.39212036132812" y="0" x="0" class="er entityBox"/><text style="dominant-baseline: middle; text-anchor: middle; font-size: 12px;" transform="translate(108.69606018066406,12)" y="0" x="0" id="text-entity-habits-b4b881ea-feda-43c9-b244-52d63bd681c2" class="er entityLabel">habits</text><rect height="22" width="54.095550537109375" y="24" x="0" class="er attributeBoxOdd"/><text style="dominant-baseline: middle; font-size: 10.2px;" transform="translate(5,35)" y="0" x="0" id="text-entity-habits-b4b881ea-feda-43c9-b244-52d63bd681c2-attr-1-type" class="er entityLabel">String</text><rect height="22" width="93.39634704589844" y="24" x="54.095550537109375" class="er attributeBoxOdd"/><text style="dominant-baseline: middle; font-size: 10.2px;" transform="translate(59.095550537109375,35)" y="0" x="0" id="text-entity-habits-b4b881ea-feda-43c9-b244-52d63bd681c2-attr-1-name" class="er entityLabel">id</text><rect height="22" width="22.68768310546875" y="24" x="147.4918975830078" class="er attributeBoxOdd"/><text style="dominant-baseline: middle; font-size: 10.2px;" transform="translate(152.4918975830078,35)" y="0" x="0" id="text-entity-habits-b4b881ea-feda-43c9-b244-52d63bd681c2-attr-1-key" class="er entityLabel">PK</text><rect height="22" width="47.21253967285156" y="24" x="170.17958068847656" class="er attributeBoxOdd"/><text style="dominant-baseline: middle; font-size: 10.2px;" transform="translate(175.17958068847656,35)" y="0" x="0" id="text-entity-habits-b4b881ea-feda-43c9-b244-52d63bd681c2-attr-1-comment" class="er entityLabel"/><rect height="22" width="54.095550537109375" y="46" x="0" class="er attributeBoxEven"/><text style="dominant-baseline: middle; font-size: 10.2px;" transform="translate(5,57)" y="0" x="0" id="text-entity-habits-b4b881ea-feda-43c9-b244-52d63bd681c2-attr-2-type" class="er entityLabel">String</text><rect height="22" width="93.39634704589844" y="46" x="54.095550537109375" class="er attributeBoxEven"/><text style="dominant-baseline: middle; font-size: 10.2px;" transform="translate(59.095550537109375,57)" y="0" x="0" id="text-entity-habits-b4b881ea-feda-43c9-b244-52d63bd681c2-attr-2-name" class="er entityLabel">title</text><rect height="22" width="22.68768310546875" y="46" x="147.4918975830078" class="er attributeBoxEven"/><text style="dominant-baseline: middle; font-size: 10.2px;" transform="translate(152.4918975830078,57)" y="0" x="0" id="text-entity-habits-b4b881ea-feda-43c9-b244-52d63bd681c2-attr-2-key" class="er entityLabel"/><rect height="22" width="47.21253967285156" y="46" x="170.17958068847656" class="er attributeBoxEven"/><text style="dominant-baseline: middle; font-size: 10.2px;" transform="translate(175.17958068847656,57)" y="0" x="0" id="text-entity-habits-b4b881ea-feda-43c9-b244-52d63bd681c2-attr-2-comment" class="er entityLabel"/><rect height="22" width="54.095550537109375" y="68" x="0" class="er attributeBoxOdd"/><text style="dominant-baseline: middle; font-size: 10.2px;" transform="translate(5,79)" y="0" x="0" id="text-entity-habits-b4b881ea-feda-43c9-b244-52d63bd681c2-attr-3-type" class="er entityLabel">DateTime</text><rect height="22" width="93.39634704589844" y="68" x="54.095550537109375" class="er attributeBoxOdd"/><text style="dominant-baseline: middle; font-size: 10.2px;" transform="translate(59.095550537109375,79)" y="0" x="0" id="text-entity-habits-b4b881ea-feda-43c9-b244-52d63bd681c2-attr-3-name" class="er entityLabel">created_at</text><rect height="22" width="22.68768310546875" y="68" x="147.4918975830078" class="er attributeBoxOdd"/><text style="dominant-baseline: middle; font-size: 10.2px;" transform="translate(152.4918975830078,79)" y="0" x="0" id="text-entity-habits-b4b881ea-feda-43c9-b244-52d63bd681c2-attr-3-key" class="er entityLabel"/><rect height="22" width="47.21253967285156" y="68" x="170.17958068847656" class="er attributeBoxOdd"/><text style="dominant-baseline: middle; font-size: 10.2px;" transform="translate(175.17958068847656,79)" y="0" x="0" id="text-entity-habits-b4b881ea-feda-43c9-b244-52d63bd681c2-attr-3-comment" class="er entityLabel"/><rect height="22" width="54.095550537109375" y="90" x="0" class="er attributeBoxEven"/><text style="dominant-baseline: middle; font-size: 10.2px;" transform="translate(5,101)" y="0" x="0" id="text-entity-habits-b4b881ea-feda-43c9-b244-52d63bd681c2-attr-4-type" class="er entityLabel">DateTime</text><rect height="22" width="93.39634704589844" y="90" x="54.095550537109375" class="er attributeBoxEven"/><text style="dominant-baseline: middle; font-size: 10.2px;" transform="translate(59.095550537109375,101)" y="0" x="0" id="text-entity-habits-b4b881ea-feda-43c9-b244-52d63bd681c2-attr-4-name" class="er entityLabel">deactivation_date</text><rect height="22" width="22.68768310546875" y="90" x="147.4918975830078" class="er attributeBoxEven"/><text style="dominant-baseline: middle; font-size: 10.2px;" transform="translate(152.4918975830078,101)" y="0" x="0" id="text-entity-habits-b4b881ea-feda-43c9-b244-52d63bd681c2-attr-4-key" class="er entityLabel"/><rect height="22" width="47.21253967285156" y="90" x="170.17958068847656" class="er attributeBoxEven"/><text style="dominant-baseline: middle; font-size: 10.2px;" transform="translate(175.17958068847656,101)" y="0" x="0" id="text-entity-habits-b4b881ea-feda-43c9-b244-52d63bd681c2-attr-4-comment" class="er entityLabel">nullable</text><rect height="22" width="54.095550537109375" y="112" x="0" class="er attributeBoxOdd"/><text style="dominant-baseline: middle; font-size: 10.2px;" transform="translate(5,123)" y="0" x="0" id="text-entity-habits-b4b881ea-feda-43c9-b244-52d63bd681c2-attr-5-type" class="er entityLabel">DateTime</text><rect height="22" width="93.39634704589844" y="112" x="54.095550537109375" class="er attributeBoxOdd"/><text style="dominant-baseline: middle; font-size: 10.2px;" transform="translate(59.095550537109375,123)" y="0" x="0" id="text-entity-habits-b4b881ea-feda-43c9-b244-52d63bd681c2-attr-5-name" class="er entityLabel">activation_date</text><rect height="22" width="22.68768310546875" y="112" x="147.4918975830078" class="er attributeBoxOdd"/><text style="dominant-baseline: middle; font-size: 10.2px;" transform="translate(152.4918975830078,123)" y="0" x="0" id="text-entity-habits-b4b881ea-feda-43c9-b244-52d63bd681c2-attr-5-key" class="er entityLabel"/><rect height="22" width="47.21253967285156" y="112" x="170.17958068847656" class="er attributeBoxOdd"/><text style="dominant-baseline: middle; font-size: 10.2px;" transform="translate(175.17958068847656,123)" y="0" x="0" id="text-entity-habits-b4b881ea-feda-43c9-b244-52d63bd681c2-attr-5-comment" class="er entityLabel">nullable</text></g><g transform="translate(20,31 )" id="entity-habitweekdays-45c2e91c-7dca-49bd-b596-792b46a2d538"><rect height="68" width="122.29296875" y="0" x="0" class="er entityBox"/><text style="dominant-baseline: middle; text-anchor: middle; font-size: 12px;" transform="translate(61.146484375,12)" y="0" x="0" id="text-entity-habitweekdays-45c2e91c-7dca-49bd-b596-792b46a2d538" class="er entityLabel">habit_week_days</text><rect height="22" width="39.0484364827474" y="24" x="0" class="er attributeBoxOdd"/><text style="dominant-baseline: middle; font-size: 10.2px;" transform="translate(5,35)" y="0" x="0" id="text-entity-habitweekdays-45c2e91c-7dca-49bd-b596-792b46a2d538-attr-1-type" class="er entityLabel">String</text><rect height="22" width="58.90446980794271" y="24" x="39.0484364827474" class="er attributeBoxOdd"/><text style="dominant-baseline: middle; font-size: 10.2px;" transform="translate(44.0484364827474,35)" y="0" x="0" id="text-entity-habitweekdays-45c2e91c-7dca-49bd-b596-792b46a2d538-attr-1-name" class="er entityLabel">id</text><rect height="22" width="24.340062459309895" y="24" x="97.95290629069011" class="er attributeBoxOdd"/><text style="dominant-baseline: middle; font-size: 10.2px;" transform="translate(102.95290629069011,35)" y="0" x="0" id="text-entity-habitweekdays-45c2e91c-7dca-49bd-b596-792b46a2d538-attr-1-key" class="er entityLabel">PK</text><rect height="22" width="39.0484364827474" y="46" x="0" class="er attributeBoxEven"/><text style="dominant-baseline: middle; font-size: 10.2px;" transform="translate(5,57)" y="0" x="0" id="text-entity-habitweekdays-45c2e91c-7dca-49bd-b596-792b46a2d538-attr-2-type" class="er entityLabel">Int</text><rect height="22" width="58.90446980794271" y="46" x="39.0484364827474" class="er attributeBoxEven"/><text style="dominant-baseline: middle; font-size: 10.2px;" transform="translate(44.0484364827474,57)" y="0" x="0" id="text-entity-habitweekdays-45c2e91c-7dca-49bd-b596-792b46a2d538-attr-2-name" class="er entityLabel">week_day</text><rect height="22" width="24.340062459309895" y="46" x="97.95290629069011" class="er attributeBoxEven"/><text style="dominant-baseline: middle; font-size: 10.2px;" transform="translate(102.95290629069011,57)" y="0" x="0" id="text-entity-habitweekdays-45c2e91c-7dca-49bd-b596-792b46a2d538-attr-2-key" class="er entityLabel"/></g><g transform="translate(364.1004943847656,254 )" id="entity-days-91da11f4-4c96-4f2e-8910-bbfb611a032a"><rect height="68" width="107.86904907226562" y="0" x="0" class="er entityBox"/><text style="dominant-baseline: middle; text-anchor: middle; font-size: 12px;" transform="translate(53.93452453613281,12)" y="0" x="0" id="text-entity-days-91da11f4-4c96-4f2e-8910-bbfb611a032a" class="er entityLabel">days</text><rect height="22" width="54.095550537109375" y="24" x="0" class="er attributeBoxOdd"/><text style="dominant-baseline: middle; font-size: 10.2px;" transform="translate(5,35)" y="0" x="0" id="text-entity-days-91da11f4-4c96-4f2e-8910-bbfb611a032a-attr-1-type" class="er entityLabel">String</text><rect height="22" width="31.0858154296875" y="24" x="54.095550537109375" class="er attributeBoxOdd"/><text style="dominant-baseline: middle; font-size: 10.2px;" transform="translate(59.095550537109375,35)" y="0" x="0" id="text-entity-days-91da11f4-4c96-4f2e-8910-bbfb611a032a-attr-1-name" class="er entityLabel">id</text><rect height="22" width="22.68768310546875" y="24" x="85.18136596679688" class="er attributeBoxOdd"/><text style="dominant-baseline: middle; font-size: 10.2px;" transform="translate(90.18136596679688,35)" y="0" x="0" id="text-entity-days-91da11f4-4c96-4f2e-8910-bbfb611a032a-attr-1-key" class="er entityLabel">PK</text><rect height="22" width="54.095550537109375" y="46" x="0" class="er attributeBoxEven"/><text style="dominant-baseline: middle; font-size: 10.2px;" transform="translate(5,57)" y="0" x="0" id="text-entity-days-91da11f4-4c96-4f2e-8910-bbfb611a032a-attr-2-type" class="er entityLabel">DateTime</text><rect height="22" width="31.0858154296875" y="46" x="54.095550537109375" class="er attributeBoxEven"/><text style="dominant-baseline: middle; font-size: 10.2px;" transform="translate(59.095550537109375,57)" y="0" x="0" id="text-entity-days-91da11f4-4c96-4f2e-8910-bbfb611a032a-attr-2-name" class="er entityLabel">date</text><rect height="22" width="22.68768310546875" y="46" x="85.18136596679688" class="er attributeBoxEven"/><text style="dominant-baseline: middle; font-size: 10.2px;" transform="translate(90.18136596679688,57)" y="0" x="0" id="text-entity-days-91da11f4-4c96-4f2e-8910-bbfb611a032a-attr-2-key" class="er entityLabel"/></g><g transform="translate(318.03501892089844,42 )" id="entity-dayhabits-d38a8bc5-51bf-4564-991b-b72dc11c1971"><rect height="46" width="100" y="0" x="0" class="er entityBox"/><text style="dominant-baseline: middle; text-anchor: middle; font-size: 12px;" transform="translate(50,12)" y="0" x="0" id="text-entity-dayhabits-d38a8bc5-51bf-4564-991b-b72dc11c1971" class="er entityLabel">day_habits</text><rect height="22" width="44.39861551920573" y="24" x="0" class="er attributeBoxOdd"/><text style="dominant-baseline: middle; font-size: 10.2px;" transform="translate(5,35)" y="0" x="0" id="text-entity-dayhabits-d38a8bc5-51bf-4564-991b-b72dc11c1971-attr-1-type" class="er entityLabel">String</text><rect height="22" width="25.911142985026043" y="24" x="44.39861551920573" class="er attributeBoxOdd"/><text style="dominant-baseline: middle; font-size: 10.2px;" transform="translate(49.39861551920573,35)" y="0" x="0" id="text-entity-dayhabits-d38a8bc5-51bf-4564-991b-b72dc11c1971-attr-1-name" class="er entityLabel">id</text><rect height="22" width="29.69024149576823" y="24" x="70.30975850423177" class="er attributeBoxOdd"/><text style="dominant-baseline: middle; font-size: 10.2px;" transform="translate(75.30975850423177,35)" y="0" x="0" id="text-entity-dayhabits-d38a8bc5-51bf-4564-991b-b72dc11c1971-attr-1-key" class="er entityLabel">PK</text></g><g transform="translate(571.9695434570312,254 )" id="entity-years-fa34f125-2821-4303-94ea-c59e39b00e55"><rect height="68" width="132.2085723876953" y="0" x="0" class="er entityBox"/><text style="dominant-baseline: middle; text-anchor: middle; font-size: 12px;" transform="translate(66.10428619384766,12)" y="0" x="0" id="text-entity-years-fa34f125-2821-4303-94ea-c59e39b00e55" class="er entityLabel">years</text><rect height="22" width="37.39605712890625" y="24" x="0" class="er attributeBoxOdd"/><text style="dominant-baseline: middle; font-size: 10.2px;" transform="translate(5,35)" y="0" x="0" id="text-entity-years-fa34f125-2821-4303-94ea-c59e39b00e55-attr-1-type" class="er entityLabel">String</text><rect height="22" width="72.12483215332031" y="24" x="37.39605712890625" class="er attributeBoxOdd"/><text style="dominant-baseline: middle; font-size: 10.2px;" transform="translate(42.39605712890625,35)" y="0" x="0" id="text-entity-years-fa34f125-2821-4303-94ea-c59e39b00e55-attr-1-name" class="er entityLabel">id</text><rect height="22" width="22.68768310546875" y="24" x="109.52088928222656" class="er attributeBoxOdd"/><text style="dominant-baseline: middle; font-size: 10.2px;" transform="translate(114.52088928222656,35)" y="0" x="0" id="text-entity-years-fa34f125-2821-4303-94ea-c59e39b00e55-attr-1-key" class="er entityLabel">PK</text><rect height="22" width="37.39605712890625" y="46" x="0" class="er attributeBoxEven"/><text style="dominant-baseline: middle; font-size: 10.2px;" transform="translate(5,57)" y="0" x="0" id="text-entity-years-fa34f125-2821-4303-94ea-c59e39b00e55-attr-2-type" class="er entityLabel">Int</text><rect height="22" width="72.12483215332031" y="46" x="37.39605712890625" class="er attributeBoxEven"/><text style="dominant-baseline: middle; font-size: 10.2px;" transform="translate(42.39605712890625,57)" y="0" x="0" id="text-entity-years-fa34f125-2821-4303-94ea-c59e39b00e55-attr-2-name" class="er entityLabel">year_number</text><rect height="22" width="22.68768310546875" y="46" x="109.52088928222656" class="er attributeBoxEven"/><text style="dominant-baseline: middle; font-size: 10.2px;" transform="translate(114.52088928222656,57)" y="0" x="0" id="text-entity-years-fa34f125-2821-4303-94ea-c59e39b00e55-attr-2-key" class="er entityLabel"/></g><g transform="translate(478.0544242858887,466 )" id="entity-users-6b658d20-55b1-4e08-9e25-4855f2dfc178"><rect height="68" width="100" y="0" x="0" class="er entityBox"/><text style="dominant-baseline: middle; text-anchor: middle; font-size: 12px;" transform="translate(50,12)" y="0" x="0" id="text-entity-users-6b658d20-55b1-4e08-9e25-4855f2dfc178" class="er entityLabel">users</text><rect height="22" width="38.930643717447914" y="24" x="0" class="er attributeBoxOdd"/><text style="dominant-baseline: middle; font-size: 10.2px;" transform="translate(5,35)" y="0" x="0" id="text-entity-users-6b658d20-55b1-4e08-9e25-4855f2dfc178-attr-1-type" class="er entityLabel">String</text><rect height="22" width="36.847086588541664" y="24" x="38.930643717447914" class="er attributeBoxOdd"/><text style="dominant-baseline: middle; font-size: 10.2px;" transform="translate(43.930643717447914,35)" y="0" x="0" id="text-entity-users-6b658d20-55b1-4e08-9e25-4855f2dfc178-attr-1-name" class="er entityLabel">id</text><rect height="22" width="24.222269694010418" y="24" x="75.77773030598958" class="er attributeBoxOdd"/><text style="dominant-baseline: middle; font-size: 10.2px;" transform="translate(80.77773030598958,35)" y="0" x="0" id="text-entity-users-6b658d20-55b1-4e08-9e25-4855f2dfc178-attr-1-key" class="er entityLabel">PK</text><rect height="22" width="38.930643717447914" y="46" x="0" class="er attributeBoxEven"/><text style="dominant-baseline: middle; font-size: 10.2px;" transform="translate(5,57)" y="0" x="0" id="text-entity-users-6b658d20-55b1-4e08-9e25-4855f2dfc178-attr-2-type" class="er entityLabel">String</text><rect height="22" width="36.847086588541664" y="46" x="38.930643717447914" class="er attributeBoxEven"/><text style="dominant-baseline: middle; font-size: 10.2px;" transform="translate(43.930643717447914,57)" y="0" x="0" id="text-entity-users-6b658d20-55b1-4e08-9e25-4855f2dfc178-attr-2-name" class="er entityLabel">email</text><rect height="22" width="24.222269694010418" y="46" x="75.77773030598958" class="er attributeBoxEven"/><text style="dominant-baseline: middle; font-size: 10.2px;" transform="translate(80.77773030598958,57)" y="0" x="0" id="text-entity-users-6b658d20-55b1-4e08-9e25-4855f2dfc178-attr-2-key" class="er entityLabel"/></g><g transform="translate(518.0350189208984,20 )" id="entity-NotificationToken-b388e80c-2bf9-4c31-aece-c9e8597d9beb"><rect height="90" width="125.06640625" y="0" x="0" class="er entityBox"/><text style="dominant-baseline: middle; text-anchor: middle; font-size: 12px;" transform="translate(62.533203125,12)" y="0" x="0" id="text-entity-NotificationToken-b388e80c-2bf9-4c31-aece-c9e8597d9beb" class="er entityLabel">NotificationToken</text><rect height="22" width="44.56122843424479" y="24" x="0" class="er attributeBoxOdd"/><text style="dominant-baseline: middle; font-size: 10.2px;" transform="translate(5,35)" y="0" x="0" id="text-entity-NotificationToken-b388e80c-2bf9-4c31-aece-c9e8597d9beb-attr-1-type" class="er entityLabel">String</text><rect height="22" width="50.652323404947914" y="24" x="44.56122843424479" class="er attributeBoxOdd"/><text style="dominant-baseline: middle; font-size: 10.2px;" transform="translate(49.56122843424479,35)" y="0" x="0" id="text-entity-NotificationToken-b388e80c-2bf9-4c31-aece-c9e8597d9beb-attr-1-name" class="er entityLabel">id</text><rect height="22" width="29.852854410807293" y="24" x="95.2135518391927" class="er attributeBoxOdd"/><text style="dominant-baseline: middle; font-size: 10.2px;" transform="translate(100.2135518391927,35)" y="0" x="0" id="text-entity-NotificationToken-b388e80c-2bf9-4c31-aece-c9e8597d9beb-attr-1-key" class="er entityLabel">PK</text><rect height="22" width="44.56122843424479" y="46" x="0" class="er attributeBoxEven"/><text style="dominant-baseline: middle; font-size: 10.2px;" transform="translate(5,57)" y="0" x="0" id="text-entity-NotificationToken-b388e80c-2bf9-4c31-aece-c9e8597d9beb-attr-2-type" class="er entityLabel">String</text><rect height="22" width="50.652323404947914" y="46" x="44.56122843424479" class="er attributeBoxEven"/><text style="dominant-baseline: middle; font-size: 10.2px;" transform="translate(49.56122843424479,57)" y="0" x="0" id="text-entity-NotificationToken-b388e80c-2bf9-4c31-aece-c9e8597d9beb-attr-2-name" class="er entityLabel">token</text><rect height="22" width="29.852854410807293" y="46" x="95.2135518391927" class="er attributeBoxEven"/><text style="dominant-baseline: middle; font-size: 10.2px;" transform="translate(100.2135518391927,57)" y="0" x="0" id="text-entity-NotificationToken-b388e80c-2bf9-4c31-aece-c9e8597d9beb-attr-2-key" class="er entityLabel"/><rect height="22" width="44.56122843424479" y="68" x="0" class="er attributeBoxOdd"/><text style="dominant-baseline: middle; font-size: 10.2px;" transform="translate(5,79)" y="0" x="0" id="text-entity-NotificationToken-b388e80c-2bf9-4c31-aece-c9e8597d9beb-attr-3-type" class="er entityLabel">String</text><rect height="22" width="50.652323404947914" y="68" x="44.56122843424479" class="er attributeBoxOdd"/><text style="dominant-baseline: middle; font-size: 10.2px;" transform="translate(49.56122843424479,79)" y="0" x="0" id="text-entity-NotificationToken-b388e80c-2bf9-4c31-aece-c9e8597d9beb-attr-3-name" class="er entityLabel">user_id</text><rect height="22" width="29.852854410807293" y="68" x="95.2135518391927" class="er attributeBoxOdd"/><text style="dominant-baseline: middle; font-size: 10.2px;" transform="translate(100.2135518391927,79)" y="0" x="0" id="text-entity-NotificationToken-b388e80c-2bf9-4c31-aece-c9e8597d9beb-attr-3-key" class="er entityLabel"/></g><g transform="translate(804.1781158447266,210 )" id="entity-colors-f0e7ae5b-876c-4d98-a47c-8e899f79defc"><rect height="156" width="104.40263366699219" y="0" x="0" class="er entityBox"/><text style="dominant-baseline: middle; text-anchor: middle; font-size: 12px;" transform="translate(52.201316833496094,12)" y="0" x="0" id="text-entity-colors-f0e7ae5b-876c-4d98-a47c-8e899f79defc" class="er entityLabel">colors</text><rect height="22" width="37.39605712890625" y="24" x="0" class="er attributeBoxOdd"/><text style="dominant-baseline: middle; font-size: 10.2px;" transform="translate(5,35)" y="0" x="0" id="text-entity-colors-f0e7ae5b-876c-4d98-a47c-8e899f79defc-attr-1-type" class="er entityLabel">String</text><rect height="22" width="44.31889343261719" y="24" x="37.39605712890625" class="er attributeBoxOdd"/><text style="dominant-baseline: middle; font-size: 10.2px;" transform="translate(42.39605712890625,35)" y="0" x="0" id="text-entity-colors-f0e7ae5b-876c-4d98-a47c-8e899f79defc-attr-1-name" class="er entityLabel">id</text><rect height="22" width="22.68768310546875" y="24" x="81.71495056152344" class="er attributeBoxOdd"/><text style="dominant-baseline: middle; font-size: 10.2px;" transform="translate(86.71495056152344,35)" y="0" x="0" id="text-entity-colors-f0e7ae5b-876c-4d98-a47c-8e899f79defc-attr-1-key" class="er entityLabel">PK</text><rect height="22" width="37.39605712890625" y="46" x="0" class="er attributeBoxEven"/><text style="dominant-baseline: middle; font-size: 10.2px;" transform="translate(5,57)" y="0" x="0" id="text-entity-colors-f0e7ae5b-876c-4d98-a47c-8e899f79defc-attr-2-type" class="er entityLabel">String</text><rect height="22" width="44.31889343261719" y="46" x="37.39605712890625" class="er attributeBoxEven"/><text style="dominant-baseline: middle; font-size: 10.2px;" transform="translate(42.39605712890625,57)" y="0" x="0" id="text-entity-colors-f0e7ae5b-876c-4d98-a47c-8e899f79defc-attr-2-name" class="er entityLabel">color_1</text><rect height="22" width="22.68768310546875" y="46" x="81.71495056152344" class="er attributeBoxEven"/><text style="dominant-baseline: middle; font-size: 10.2px;" transform="translate(86.71495056152344,57)" y="0" x="0" id="text-entity-colors-f0e7ae5b-876c-4d98-a47c-8e899f79defc-attr-2-key" class="er entityLabel"/><rect height="22" width="37.39605712890625" y="68" x="0" class="er attributeBoxOdd"/><text style="dominant-baseline: middle; font-size: 10.2px;" transform="translate(5,79)" y="0" x="0" id="text-entity-colors-f0e7ae5b-876c-4d98-a47c-8e899f79defc-attr-3-type" class="er entityLabel">String</text><rect height="22" width="44.31889343261719" y="68" x="37.39605712890625" class="er attributeBoxOdd"/><text style="dominant-baseline: middle; font-size: 10.2px;" transform="translate(42.39605712890625,79)" y="0" x="0" id="text-entity-colors-f0e7ae5b-876c-4d98-a47c-8e899f79defc-attr-3-name" class="er entityLabel">color_2</text><rect height="22" width="22.68768310546875" y="68" x="81.71495056152344" class="er attributeBoxOdd"/><text style="dominant-baseline: middle; font-size: 10.2px;" transform="translate(86.71495056152344,79)" y="0" x="0" id="text-entity-colors-f0e7ae5b-876c-4d98-a47c-8e899f79defc-attr-3-key" class="er entityLabel"/><rect height="22" width="37.39605712890625" y="90" x="0" class="er attributeBoxEven"/><text style="dominant-baseline: middle; font-size: 10.2px;" transform="translate(5,101)" y="0" x="0" id="text-entity-colors-f0e7ae5b-876c-4d98-a47c-8e899f79defc-attr-4-type" class="er entityLabel">String</text><rect height="22" width="44.31889343261719" y="90" x="37.39605712890625" class="er attributeBoxEven"/><text style="dominant-baseline: middle; font-size: 10.2px;" transform="translate(42.39605712890625,101)" y="0" x="0" id="text-entity-colors-f0e7ae5b-876c-4d98-a47c-8e899f79defc-attr-4-name" class="er entityLabel">color_3</text><rect height="22" width="22.68768310546875" y="90" x="81.71495056152344" class="er attributeBoxEven"/><text style="dominant-baseline: middle; font-size: 10.2px;" transform="translate(86.71495056152344,101)" y="0" x="0" id="text-entity-colors-f0e7ae5b-876c-4d98-a47c-8e899f79defc-attr-4-key" class="er entityLabel"/><rect height="22" width="37.39605712890625" y="112" x="0" class="er attributeBoxOdd"/><text style="dominant-baseline: middle; font-size: 10.2px;" transform="translate(5,123)" y="0" x="0" id="text-entity-colors-f0e7ae5b-876c-4d98-a47c-8e899f79defc-attr-5-type" class="er entityLabel">String</text><rect height="22" width="44.31889343261719" y="112" x="37.39605712890625" class="er attributeBoxOdd"/><text style="dominant-baseline: middle; font-size: 10.2px;" transform="translate(42.39605712890625,123)" y="0" x="0" id="text-entity-colors-f0e7ae5b-876c-4d98-a47c-8e899f79defc-attr-5-name" class="er entityLabel">color_4</text><rect height="22" width="22.68768310546875" y="112" x="81.71495056152344" class="er attributeBoxOdd"/><text style="dominant-baseline: middle; font-size: 10.2px;" transform="translate(86.71495056152344,123)" y="0" x="0" id="text-entity-colors-f0e7ae5b-876c-4d98-a47c-8e899f79defc-attr-5-key" class="er entityLabel"/><rect height="22" width="37.39605712890625" y="134" x="0" class="er attributeBoxEven"/><text style="dominant-baseline: middle; font-size: 10.2px;" transform="translate(5,145)" y="0" x="0" id="text-entity-colors-f0e7ae5b-876c-4d98-a47c-8e899f79defc-attr-6-type" class="er entityLabel">String</text><rect height="22" width="44.31889343261719" y="134" x="37.39605712890625" class="er attributeBoxEven"/><text style="dominant-baseline: middle; font-size: 10.2px;" transform="translate(42.39605712890625,145)" y="0" x="0" id="text-entity-colors-f0e7ae5b-876c-4d98-a47c-8e899f79defc-attr-6-name" class="er entityLabel">color_5</text><rect height="22" width="22.68768310546875" y="134" x="81.71495056152344" class="er attributeBoxEven"/><text style="dominant-baseline: middle; font-size: 10.2px;" transform="translate(86.71495056152344,145)" y="0" x="0" id="text-entity-colors-f0e7ae5b-876c-4d98-a47c-8e899f79defc-attr-6-key" class="er entityLabel"/></g><rect height="14" width="23.958984375" y="440.08392333984375" x="274.8670654296875" class="er relationshipLabelBox"/><text style="text-anchor: middle; dominant-baseline: middle; font-size: 12px;" y="447.08392333984375" x="286.8465576171875" id="rel1" class="er relationshipLabel">user</text><rect height="14" width="27.96875" y="154.47479248046875" x="71.4284439086914" class="er relationshipLabelBox"/><text style="text-anchor: middle; dominant-baseline: middle; font-size: 12px;" y="161.47479248046875" x="85.4128189086914" id="rel2" class="er relationshipLabel">habit</text><rect height="14" width="23.958984375" y="397.9931640625" x="415.4054870605469" class="er relationshipLabelBox"/><text style="text-anchor: middle; dominant-baseline: middle; font-size: 12px;" y="404.9931640625" x="427.3849792480469" id="rel3" class="er relationshipLabel">user</text><rect height="14" width="19.990234375" y="160.82008361816406" x="402.6202087402344" class="er relationshipLabelBox"/><text style="text-anchor: middle; dominant-baseline: middle; font-size: 12px;" y="167.82008361816406" x="412.6153259277344" id="rel4" class="er relationshipLabel">day</text><rect height="14" width="27.96875" y="141.63316345214844" x="242.02398681640625" class="er relationshipLabelBox"/><text style="text-anchor: middle; dominant-baseline: middle; font-size: 12px;" y="148.63316345214844" x="256.00836181640625" id="rel5" class="er relationshipLabel">habit</text><rect height="14" width="23.958984375" y="397.9931335449219" x="616.7443237304688" class="er relationshipLabelBox"/><text style="text-anchor: middle; dominant-baseline: middle; font-size: 12px;" y="404.9931335449219" x="628.7238159179688" id="rel6" class="er relationshipLabel">user</text><rect height="14" width="23.958984375" y="439.23541259765625" x="720.13623046875" class="er relationshipLabelBox"/><text style="text-anchor: middle; dominant-baseline: middle; font-size: 12px;" y="446.23541259765625" x="732.11572265625" id="rel7" class="er relationshipLabel">user</text></svg>